<svg width="48" height="48" viewBox="0 0 48 48" fill="none" xmlns="http://www.w3.org/2000/svg">
<g clip-path="url(#clip0_1932_6382)">
<path d="M0 0V22.0002H22.0002V0H0ZM18 18H4.0002V4.0002H18V18Z" fill="#DBF40C"/>
<path d="M44.0005 26.0005H30.0001C27.8005 26.0005 26.0005 27.8005 26.0005 30.0001V44.0005C26.0005 46.1989 27.8005 48.0001 30.0001 48.0001H44.0005C46.1989 48.0001 48.0001 46.1989 48.0001 44.0005V30.0001C48.0001 27.8005 46.1989 26.0005 44.0005 26.0005ZM44.0005 44.0005H30.0001V30.0001H44.0005V44.0005Z" fill="#DBF40C"/>
<path d="M36.9997 0C30.9259 0 26.0005 4.92539 26.0005 11.0021C26.0005 17.0741 30.9259 22.0002 36.9997 22.0002C43.0747 22.0002 48.0001 17.0742 48.0001 11.0021C48.0001 4.92539 43.0747 0 36.9997 0ZM36.9997 18C33.1351 18 30.0001 14.865 30.0001 10.9998C30.0001 7.13461 33.1351 3.99961 36.9997 3.99961C40.8649 3.99961 44.0005 7.13461 44.0005 10.9998C44.0005 14.865 40.8649 18 36.9997 18Z" fill="#DBF40C"/>
<path d="M12 26.0005L0 48.0001H24L12 26.0005ZM12 34.3537L17.262 44.0005H6.73805L12 34.3537Z" fill="#DBF40C"/>
</g>
<defs>
<clipPath id="clip0_1932_6382">
<rect width="48" height="48" fill="white"/>
</clipPath>
</defs>
</svg>
