<svg width="49" height="48" viewBox="0 0 49 48" fill="none" xmlns="http://www.w3.org/2000/svg">
<g clip-path="url(#clip0_1932_6395)">
<path d="M36.4236 16.0002C35.4275 7.0002 27.8057 0 18.5405 0C8.59916 0 0.540527 8.05863 0.540527 18C0.540527 27.2652 7.54072 34.887 16.5407 35.883V48H48.5405V16.0002H36.4236ZM16.5407 31.8396C9.76729 30.8652 4.54072 25.0386 4.54072 18C4.54072 10.2792 10.8221 4.0002 18.5405 4.0002C25.5792 4.0002 31.4057 9.22676 32.3801 16.0002H16.5407V31.8396ZM32.3801 19.9998C31.4994 26.1168 26.6573 30.9594 20.5403 31.8396V19.9998H32.3801ZM44.5403 43.9998H20.5403V35.883C28.8821 34.959 35.4996 28.3423 36.4236 19.9998H44.5403V43.9998V43.9998Z" fill="#DBF40C"/>
</g>
<defs>
<clipPath id="clip0_1932_6395">
<rect width="48" height="48" fill="white" transform="translate(0.540527)"/>
</clipPath>
</defs>
</svg>
