<svg width="49" height="48" viewBox="0 0 49 48" fill="none" xmlns="http://www.w3.org/2000/svg">
<path d="M8.62119 19.998H4.62158C4.62158 35.4625 17.1568 48 32.6212 48V43.9998C19.3654 43.9998 8.62119 33.2538 8.62119 19.998Z" fill="#DBF40C"/>
<path d="M32.6214 4.0002V0C21.5748 0 12.6216 8.95324 12.6216 19.998C12.6216 31.0446 21.5748 40.0002 32.6214 40.0002V36C23.784 36 16.6218 28.836 16.6218 19.9986C16.6218 11.1642 23.7839 4.0002 32.6214 4.0002Z" fill="#DBF40C"/>
<path d="M32.6211 7.99976C25.9923 7.99976 20.6211 13.3709 20.6211 19.998C20.6211 26.6268 25.9923 31.9998 32.6211 31.9998V28.0001C28.2015 28.0001 24.6213 24.4176 24.6213 19.9998C24.6213 15.5819 28.2015 12 32.6211 12C37.0413 12 40.6215 15.5819 40.6215 19.9998L44.6211 19.998C44.6211 13.3709 39.2505 7.99976 32.6211 7.99976Z" fill="#DBF40C"/>
</svg>
