<svg width="49" height="48" viewBox="0 0 49 48" fill="none" xmlns="http://www.w3.org/2000/svg">
<g clip-path="url(#clip0_1932_6423)">
<path d="M27.53 9.85734L34.5589 2.8302L31.7288 0L24.7016 7.02961L17.672 0L14.8418 2.82844L33.188 21.1716L36.0158 18.3438L27.53 9.85734Z" fill="#DBF40C"/>
<path d="M48.7028 16.9704L45.8744 14.1426L27.5312 32.4864L30.359 35.3143L38.843 26.8285L45.8726 33.8574L48.7028 31.0272L41.6732 24L48.7028 16.9704Z" fill="#DBF40C"/>
<path d="M16.2174 26.8284L13.3896 29.6561L21.876 38.1401L14.8464 45.1697L17.6766 47.9999L24.7038 40.9703L31.7334 47.9999L34.5618 45.1715L16.2174 26.8284Z" fill="#DBF40C"/>
<path d="M19.047 12.6841L10.5629 21.1716L3.53332 14.1403L0.703125 16.9704L7.73273 24.0001L0.703125 31.0297L3.53156 33.8574L21.8747 15.5118L19.047 12.6841Z" fill="#DBF40C"/>
</g>
<defs>
<clipPath id="clip0_1932_6423">
<rect width="48" height="48" fill="white" transform="translate(0.702148)"/>
</clipPath>
</defs>
</svg>
