<svg width="24" height="24" viewBox="0 0 24 24" fill="none" xmlns="http://www.w3.org/2000/svg">
<path d="M11.6436 9.88683C10.5295 7.90648 9.33848 6.29301 9.25341 6.17749C7.45819 7.02579 6.11879 8.67938 5.7002 10.6733C5.86986 10.6762 8.55253 10.7081 11.6436 9.88683V9.88683Z" fill="#DBF40C"/>
<path d="M10.4583 5.74902C10.4515 5.75192 10.4448 5.75337 10.438 5.75482C10.4501 5.75241 10.4573 5.75047 10.4573 5.75047L10.4583 5.74902Z" fill="#DBF40C"/>
<path d="M16.2519 7.16872C15.1174 6.17009 13.6306 5.56299 12.0002 5.56299C11.4772 5.56299 10.9697 5.62679 10.4829 5.74425C10.5796 5.87186 11.7885 7.47808 12.8896 9.50047C15.319 8.58885 16.2364 7.19386 16.2519 7.16872V7.16872Z" fill="#DBF40C"/>
<path d="M13.0961 13.0538C9.2949 14.3782 8.05604 17.0498 8.04492 17.073C9.13636 17.9256 10.5077 18.4385 11.9998 18.4385C12.8921 18.4385 13.7409 18.2558 14.5133 17.9271C14.4181 17.3645 14.043 15.3933 13.1376 13.0403C13.1236 13.0442 13.1096 13.0485 13.0961 13.0538Z" fill="#DBF40C"/>
<path d="M12.4456 12.0503C12.5297 12.0228 12.6148 11.9972 12.6984 11.9735C12.5379 11.6066 12.3615 11.2402 12.1764 10.8787C8.86243 11.871 5.68092 11.798 5.56782 11.7961C5.5654 11.8638 5.5625 11.9305 5.5625 11.9991C5.5625 13.6532 6.18652 15.1608 7.21125 16.3015L7.20884 16.2977C7.20932 16.2996 8.97118 13.1732 12.4456 12.0503Z" fill="#DBF40C"/>
<path d="M12 0C5.38323 0 0 5.38323 0 12C0 18.6163 5.38323 24 12 24C18.6163 24 24 18.6163 24 12C24 5.38323 18.6173 0 12 0ZM19.3848 13.5192C19.2862 14.0035 19.1374 14.4797 18.9459 14.936C18.756 15.3826 18.523 15.8133 18.2509 16.2164C17.9811 16.6147 17.6713 16.9907 17.332 17.332C16.9912 17.6723 16.6166 17.9816 16.2164 18.2509C15.8133 18.523 15.3816 18.7569 14.936 18.9459C14.4811 19.1378 14.0035 19.2862 13.5192 19.3858C13.0233 19.4878 12.5119 19.5381 12.001 19.5381C11.4896 19.5381 10.9796 19.4878 10.4827 19.3858C9.99839 19.2862 9.52131 19.1378 9.06598 18.9459C8.61887 18.7565 8.18819 18.5235 7.78506 18.2509C7.38629 17.9802 7.01071 17.6723 6.67043 17.332C6.32917 16.9907 6.01982 16.6166 5.75058 16.2164C5.47845 15.8133 5.2445 15.3811 5.05551 14.936C4.86361 14.4811 4.71473 14.0035 4.61564 13.5192C4.51414 13.0238 4.4629 12.5119 4.4629 11.9995C4.4629 11.4886 4.51414 10.9782 4.61564 10.4822C4.71473 9.9979 4.86313 9.52131 5.05599 9.06501C5.24498 8.6179 5.47845 8.18771 5.7501 7.78555C6.0203 7.38677 6.32917 7.01071 6.66994 6.67043C7.01071 6.32917 7.38532 6.01982 7.78506 5.7501C8.18819 5.47797 8.61935 5.2445 9.06549 5.05502C9.52082 4.86361 9.99839 4.71425 10.4822 4.61613C10.9791 4.51414 11.4896 4.46242 12.0005 4.46242C12.5119 4.46242 13.0223 4.51414 13.5192 4.61613C14.0035 4.71425 14.4797 4.86313 14.936 5.05502C15.3835 5.2445 15.8133 5.477 16.2164 5.7501C16.6147 6.0203 16.9912 6.32965 17.332 6.67043C17.6723 7.0112 17.9821 7.38629 18.2509 7.78555C18.523 8.18819 18.7569 8.61887 18.9459 9.06501C19.1374 9.52082 19.2867 9.9979 19.3853 10.4822C19.4873 10.9777 19.5376 11.4886 19.5376 11.9995C19.5376 12.5119 19.4863 13.0218 19.3848 13.5192V13.5192Z" fill="#DBF40C"/>
<path d="M14.3442 12.7415C15.1892 15.0617 15.5319 16.9512 15.5971 17.3403C17.0433 16.3634 18.0695 14.8161 18.3566 13.0224C18.2232 12.9784 16.4222 12.41 14.3442 12.7415V12.7415Z" fill="#DBF40C"/>
<path d="M13.3838 10.4585C13.5346 10.7654 13.6777 11.0772 13.8125 11.3923C13.8609 11.5035 13.9053 11.6147 13.9513 11.7249C16.1631 11.4474 18.3421 11.9163 18.434 11.9361C18.4204 10.4082 17.8733 9.00741 16.9713 7.91162C16.9602 7.92854 15.9273 9.42117 13.3838 10.4585V10.4585Z" fill="#DBF40C"/>
</svg>
