<?xml version="1.0" encoding="UTF-8"?>
<svg fill="none" viewBox="0 0 423 131" xmlns="http://www.w3.org/2000/svg">
<path d="m207.46 98.584c-0.272-0.0527-0.554-0.1123-0.845-0.1787-0.275-0.0695-0.553-0.1996-0.834-0.3902-0.26-0.177-0.513-0.4513-0.759-0.823-0.261-0.4559-0.471-0.913-0.628-1.3713-0.14-0.4615-0.262-1.0052-0.364-1.631-0.167-0.8751-0.253-1.6436-0.257-2.3055 9e-3 -0.682 0.084-1.3853 0.225-2.1098 0.024-0.0569 0.055-0.2112 0.094-0.4629 0.053-0.2717 0.111-0.5618 0.174-0.8704 0.08-0.3118 0.139-0.5498 0.178-0.7141 0.08-0.3118 0.209-0.729 0.389-1.2516 0.192-0.5427 0.405-1.0717 0.638-1.5872 0.35-0.8168 0.645-1.4661 0.884-1.9478 0.239-0.4818 0.475-0.893 0.706-1.2338 0.232-0.3407 0.5-0.671 0.805-0.9909 0.319-0.34 0.727-0.7581 1.225-1.2545 0.319-0.3399 0.696-0.5601 1.13-0.6605 0.451-0.1037 0.891-0.0831 1.32 0.0618 0.426 0.128 0.77 0.3762 1.032 0.7447 0.252 0.318 0.427 0.7294 0.523 1.2343 0.094 0.488 0.118 1.0241 0.072 1.6083-0.048 0.5675-0.161 1.1209-0.337 1.6603-0.176 0.5395-0.41 1.0028-0.702 1.39-0.18 0.2438-0.368 0.3581-0.563 0.3429-0.178-0.0183-0.405-0.1143-0.683-0.2881-0.206-0.2571-0.322-0.4093-0.348-0.4566-0.01-0.0505 0.017-0.0906 0.081-0.1203 0.079-0.137 0.175-0.3647 0.288-0.6829 0.114-0.3182 0.224-0.6533 0.332-1.0051 0.104-0.3687 0.17-0.6605 0.199-0.8753-1e-3 -0.7325-3e-3 -1.2466-7e-3 -1.5423-7e-3 -0.3125-0.101-0.53-0.282-0.6526-0.08-0.0544-0.186-0.0604-0.317-0.0178-0.115 0.0393-0.301 0.162-0.558 0.3681-0.355 0.2422-0.787 0.7173-1.297 1.4252-0.514 0.6911-0.963 1.4398-1.35 2.2463-0.503 1.0204-0.915 1.919-1.238 2.6957-0.323 0.7768-0.533 1.5494-0.63 2.318-0.021 0.0738-0.055 0.2112-0.104 0.4124-0.032 0.198-0.048 0.2969-0.048 0.2969 0.03 0.0641 0.036 0.2372 0.021 0.5193-0.02 0.2653-0.053 0.4985-0.102 0.6997-0.037 0.8094 7e-3 1.6381 0.135 2.4859 0.123 0.831 0.305 1.5549 0.545 2.1719 0.257 0.6137 0.536 1.0227 0.836 1.2269 0.248 0.1096 0.552 0.1039 0.913-0.0173 0.377-0.1245 0.792-0.3258 1.245-0.6042 0.452-0.2783 0.91-0.5751 1.373-0.8903 0.372-0.2454 0.707-0.5012 1.005-0.7674 0.298-0.2663 0.516-0.4912 0.656-0.6748 0.115-0.1267 0.264-0.2598 0.447-0.3993 0.196-0.1596 0.37-0.2539 0.521-0.2828 0.22-0.1291 0.348-0.1885 0.385-0.1781s0.068 0.0829 0.094 0.2175c0.045 0.2356-0.04 0.5222-0.255 0.8597-0.197 0.3343-0.476 0.6578-0.835 0.9705-0.108 0.1604-0.258 0.3371-0.448 0.5304-0.189 0.1932-0.394 0.3544-0.614 0.4836-0.302 0.3367-0.689 0.6811-1.163 1.0332-0.473 0.3521-0.966 0.6468-1.479 0.8843-0.496 0.2343-0.971 0.3512-1.424 0.3506zm9.639-3.3065c-0.304 0.1453-0.578 0.1278-0.822-0.0524-0.226-0.1834-0.4-0.4991-0.521-0.947-0.12-0.4479-0.172-0.996-0.157-1.6444 0.046-0.218 0.076-0.4243 0.091-0.6191 0.012-0.2116 7e-3 -0.3763-0.016-0.4941 2e-3 -0.1747 0.023-0.4315 0.063-0.7705 0.036-0.3559 0.08-0.7217 0.13-1.0976s0.1-0.7081 0.15-0.9966c0.063-0.3086 0.105-0.4998 0.126-0.5735 0.067-0.0129 0.115-0.083 0.143-0.2105 0.028-0.1274 0.03-0.25 8e-3 -0.3678-0.026-0.1346-0.03-0.2909-0.011-0.4688 0.035-0.1811 0.08-0.3118 0.134-0.392-0.016-0.0841-0.017-0.1799-2e-3 -0.2873 0.028-0.1274 0.035-0.2248 0.022-0.2921s-9e-3 -0.1378 0.012-0.2116c0.038-0.0769 0.05-0.1491 0.037-0.2164 0.076-0.2412 0.162-0.6151 0.257-1.1217 0.109-0.5265 0.216-1.1052 0.322-1.736 0.123-0.6339 0.231-1.2563 0.324-1.867s0.161-1.1209 0.205-1.5304c0.057-0.4296 0.078-0.6864 0.062-0.7706-0.026-0.1346-0.012-0.242 0.043-0.3222 0.054-0.0801 0.149-0.1331 0.283-0.1588 0.041-0.0601 0.094-0.105 0.158-0.1347 0.081-0.0329 0.155-0.0558 0.222-0.0686l0.12 0.0816c0.081 0.0545 0.201 0.1362 0.361 0.2451 0.157 0.092 0.259 0.2122 0.305 0.3604 0.062 0.1451 0.113 0.3185 0.151 0.5205 0.042 0.2187 0.054 0.4171 0.035 0.595-0.018 0.1779-0.072 0.4412-0.163 0.7898-0.09 0.3487-0.231 0.8901-0.422 1.6243-0.07 0.3623-0.152 0.7093-0.246 1.0412-0.097 0.315-0.138 0.5061-0.126 0.5734 0.013 0.0673-1e-3 0.1747-0.043 0.3222-0.024 0.1443-0.051 0.3238-0.08 0.5386-0.042 0.1475-0.096 0.3671-0.162 0.6588-0.069 0.275-0.143 0.5767-0.219 0.9053-0.064 0.3086-0.116 0.5803-0.159 0.8152-0.045 0.218-0.065 0.3438-0.058 0.3774 0.013 0.0674 0.017 0.1363 0.013 0.2068 0.013 0.0673-8e-3 0.141-0.062 0.2212-0.068 0.0129-0.1 0.0714-0.098 0.1756 0.016 0.0841 0.024 0.1262 0.024 0.1262 0.033 0.1683-0.017 0.6399-0.148 1.4149-0.092 0.977-0.182 1.875-0.27 2.6941-0.071 0.8158-0.061 1.4594 0.029 1.9305 0.077 0.4039 0.12 0.6748 0.129 0.8126 5e-3 0.121-0.053 0.228-0.174 0.321zm3.63-1.5307c-0.16-0.1089-0.293-0.2579-0.399-0.447-0.089-0.1923-0.145-0.391-0.166-0.5961-0.022-0.2052-0.012-0.3815 0.029-0.529-0.025-0.1346-0.028-0.2388-7e-3 -0.3125 0.034-0.0938 0.037-0.1727 7e-3 -0.2368s-0.035-0.1851-0.017-0.3631c0.018-0.1779 0.038-0.3474 0.06-0.5085 0.066-0.2917 0.131-0.6356 0.195-1.0315 0.061-0.4127 0.115-0.8155 0.162-1.2082s0.087-0.7317 0.119-1.017c0.033-0.2853 0.052-0.4633 0.055-0.5338-0.038-0.2019 0.076-0.337 0.342-0.4053 0.189-0.1059 0.34-0.1348 0.454-0.0868 0.111 0.0312 0.276 0.1654 0.495 0.4025 0.161 0.1089 0.25 0.3012 0.268 0.5768 0.017 0.2757-0.028 0.6331-0.136 1.0724-0.041 0.1475-0.088 0.357-0.141 0.6287-0.036 0.2685-0.052 0.507-0.047 0.7153-0.041 0.1475-0.088 0.3571-0.141 0.6288-0.039 0.2517-0.072 0.4933-0.097 0.7249-0.018 0.0906-0.027 0.2232-0.029 0.3979-4e-3 0.1579-0.014 0.3342-0.029 0.529-0.019 0.1779-0.057 0.3422-0.116 0.4929-0.019 0.7189-0.085 1.15-0.197 1.2936-0.096 0.1402-0.317 0.0779-0.664-0.1872zm0.491-10.716c-0.1-0.0681-0.199-0.1714-0.295-0.31-0.099-0.1554-0.17-0.2988-0.213-0.4302-0.046-0.1483-0.043-0.2272 7e-3 -0.2368 0.132-0.0426 0.264-0.2162 0.398-0.5208 0.133-0.3046 0.164-0.5546 0.092-0.7501-0.013-0.0673 1e-3 -0.1311 0.042-0.1912 0.038-0.0769 0.088-0.1303 0.152-0.1599 0.177-0.1732 0.367-0.227 0.571-0.1614 0.218 0.0455 0.437 0.1869 0.657 0.424 0.213 0.2908 0.306 0.552 0.28 0.7836-0.028 0.2148-0.159 0.5362-0.391 0.9643-0.188 0.3847-0.388 0.6149-0.601 0.6903-0.195 0.0722-0.428 0.0383-0.699-0.1018zm6.633 9.5903c-0.37 0.0707-0.651 0.1069-0.842 0.1086-0.192 0.0017-0.345-0.0214-0.458-0.0695-0.114-0.048-0.25-0.118-0.407-0.2101-0.093-0.1218-0.204-0.2487-0.334-0.3809s-0.235-0.2255-0.315-0.2799c-0.116-0.2396-0.212-0.5613-0.289-0.9651-0.061-0.4071-0.094-0.8543-0.1-1.3415 0.011-0.4905 0.062-0.9537 0.154-1.3897 0.041-0.1475 0.074-0.2934 0.099-0.4377 0.025-0.1442 0.037-0.2164 0.037-0.2164-0.016-0.0841 0.047-0.3053 0.187-0.6636 0.158-0.3615 0.329-0.7431 0.514-1.1447 0.202-0.4048 0.373-0.699 0.512-0.8826 0.092-0.1571 0.241-0.3339 0.448-0.5304 0.223-0.1996 0.421-0.3508 0.594-0.4535 0.172-0.1027 0.346-0.1969 0.521-0.2828 0.192-0.089 0.415-0.1577 0.667-0.2059 0.236-0.045 0.464-0.0363 0.685 0.0261 0.222 0.0624 0.449 0.2021 0.682 0.4192 0.361 0.245 0.587 0.5157 0.679 0.8122 0.105 0.2764 0.153 0.5725 0.143 0.8883-0.02 0.3526-0.079 0.6343-0.178 0.8452-0.103 0.194-0.24 0.2986-0.411 0.3139-0.172 0.0154-0.39-0.0739-0.653-0.2677-0.093-0.1217-0.148-0.2247-0.164-0.3088-0.019-0.101-0.013-0.2505 0.019-0.4484 0.022-0.2485-0.024-0.4925-0.14-0.732-0.115-0.2396-0.249-0.3449-0.4-0.316-0.219 0.0418-0.444 0.1894-0.674 0.4428-0.217 0.2333-0.433 0.5187-0.648 0.8562-0.092 0.1571-0.22 0.3996-0.384 0.7275-0.151 0.3078-0.295 0.6493-0.432 1.0244-0.141 0.3583-0.25 0.7018-0.327 1.0304-0.079 0.5907-0.145 1.0655-0.199 1.4246-0.036 0.3558-0.055 0.5337-0.055 0.5337 0.013 0.0674 0.043 0.1314 0.089 0.1923 0.061 0.0409 0.097 0.0949 0.11 0.1623 0.039 0.2019 0.187 0.3392 0.445 0.412 0.208 0.0825 0.439 0.108 0.695 0.0766 0.252-0.0482 0.547-0.1918 0.886-0.4308 0.243-0.1861 0.462-0.411 0.656-0.6748 0.21-0.2669 0.434-0.5103 0.671-0.73 0.163-0.1532 0.286-0.2814 0.371-0.3849 0.102-0.1066 0.159-0.1263 0.172-0.059s0.045 0.0962 0.095 0.0865c0.051-0.0096 0.103-0.0545 0.158-0.1347 0.075-0.1539 0.168-0.2589 0.28-0.3151 0.108-0.073 0.205-0.1091 0.293-0.1083 0.101-0.0193 0.156-0.0037 0.166 0.0468-5e-3 0.1578 0.053 0.2776 0.173 0.3593 0.013 0.0673 5e-3 0.1647-0.023 0.2921-0.014 0.1074-0.048 0.2012-0.103 0.2814-0.062 0.1338-0.162 0.2926-0.301 0.4762-0.123 0.1803-0.24 0.3423-0.352 0.4858-0.116 0.1267-0.173 0.19-0.173 0.19-0.071-4e-3 -0.135 0.0257-0.193 0.0891-0.04 0.0601-0.088 0.1303-0.143 0.2104-0.112 0.1435-0.22 0.2602-0.325 0.35-0.108 0.073-0.196 0.1159-0.263 0.1288-0.105 0.0898-0.19 0.1495-0.254 0.1792-0.047 0.0265-0.064 0.0734-0.051 0.1407-0.137 0.2004-0.324 0.3584-0.564 0.4739-0.226 0.0955-0.575 0.1883-1.046 0.2783zm12.832-1.7973c-0.054 0.0802-0.235 0.1408-0.541 0.1818-0.289 0.0379-0.571 0.022-0.846-0.0476-0.043-0.044-0.112-0.0833-0.206-0.1177-0.097-0.0512-0.195-0.1109-0.295-0.1789-0.084-0.0713-0.157-0.1358-0.221-0.1935-0.043-0.044-0.145-0.1205-0.305-0.2294-0.164-0.1257-0.326-0.243-0.486-0.352-0.16-0.1089-0.27-0.1837-0.331-0.2246-0.093-0.1217-0.259-0.2643-0.5-0.4276-0.244-0.1802-0.476-0.3452-0.696-0.4949-0.15-0.1458-0.295-0.2663-0.435-0.3616-0.141-0.0953-0.258-0.1602-0.352-0.1946-0.097-0.0512-0.17-0.072-0.221-0.0624 0 0-0.013 0.1158-0.038 0.3475-0.012 0.2115-0.038 0.4868-0.078 0.8258-0.026 0.319-0.059 0.648-0.099 0.987-0.026 0.319-0.047 0.5758-0.062 0.7706-0.073 0.2581-0.143 0.4372-0.211 0.5374-0.068 0.1003-0.17 0.1632-0.304 0.1889-0.186 0.0354-0.37-0.0166-0.553-0.1559-0.167-0.1426-0.281-0.3737-0.342-0.6935-0.113-0.2227-0.126-0.752-0.042-1.5879 0.085-0.8359 0.253-1.9147 0.507-3.2363 0.019-0.2653 0.053-0.5422 0.103-0.8307 0.046-0.3054 0.085-0.5571 0.117-0.755 0.062-0.5875 0.141-1.1345 0.236-1.641 0.109-0.5266 0.226-1.0548 0.351-1.5846 0.123-0.5466 0.247-1.1285 0.373-1.7456 0.094-0.3319 0.161-0.5715 0.203-0.719 0.038-0.1643 0.085-0.3302 0.14-0.4977 0.052-0.1844 0.132-0.4525 0.239-0.8044 0.239-0.7606 0.43-1.3554 0.575-1.7842s0.259-0.747 0.341-0.9546c0.082-0.2077 0.158-0.3616 0.226-0.4618s0.157-0.1784 0.269-0.2345c0.111-0.0562 0.229-0.0787 0.353-0.0675 0.121-0.0057 0.233 0.0339 0.337 0.1188 0.16 0.1089 0.263 0.2375 0.309 0.3857 0.059 0.1282 0.061 0.3197 5e-3 0.5746-0.039 0.2517-0.145 0.6119-0.317 1.0809-0.076 0.3286-0.144 0.5682-0.202 0.7189-0.059 0.1507-0.117 0.3014-0.176 0.4521-0.058 0.1507-0.148 0.412-0.269 0.7839-0.014 0.1074-0.043 0.2264-0.088 0.3571-0.045 0.1306-0.11 0.204-0.194 0.2201 0.01 0.0505 4e-3 0.1562-0.018 0.3173-0.021 0.1611-0.053 0.3154-0.094 0.4629-0.015 0.1947-0.061 0.4128-0.137 0.654-0.062 0.2212-0.106 0.404-0.131 0.5482-0.045 0.218-0.127 0.5214-0.244 0.9102-0.101 0.3855-0.204 0.7626-0.308 1.1313-0.09 0.3487-0.134 0.6188-0.133 0.8103 0.013 0.0673 0.062 0.0492 0.147-0.0542s0.18-0.2 0.285-0.2898c0.214-0.2502 0.461-0.5068 0.742-0.7698 0.295-0.283 0.579-0.5292 0.853-0.7385 0.288-0.2294 0.53-0.3802 0.725-0.4524 0.24-0.1155 0.435-0.1878 0.587-0.2167 0.168-0.0322 0.342-0.0306 0.524 0.0045 0.147 0.0416 0.274 0.1133 0.381 0.215 0.123 0.0985 0.233 0.217 0.329 0.3556 0.113 0.1354 0.208 0.3093 0.283 0.5216 0.029 0.1514 0.018 0.4151-0.032 0.791s-0.127 0.7482-0.231 1.1169c-0.107 0.3518-0.232 0.6112-0.375 0.7779-0.108 0.073-0.191 0.1412-0.249 0.2045-0.057 0.0634-0.086 0.095-0.086 0.095 0.013 0.0673-5e-3 0.1579-0.053 0.2717-0.031 0.1106-0.108 0.2125-0.229 0.3055-0.055 0.0802-0.114 0.1788-0.179 0.2958s-0.093 0.2008-0.083 0.2513c0 0 5e-3 0.0252 0.014 0.0757 7e-3 0.0337 0.01 0.0505 0.01 0.0505-0.067 0.0129-0.159 0.0826-0.274 0.2093-0.098 0.1235-0.227 0.2702-0.387 0.4402-0.15 0.2205-0.265 0.3471-0.346 0.38-0.064 0.0297-0.158 0.0827-0.283 0.1589-0.028 0.0401-0.065 0.0733-0.112 0.0998-0.031 0.0233-0.069 0.0481-0.117 0.0746-0.03 0.0233-0.061 0.0465-0.091 0.0698-0.014 0.02-0.017 0.0469-0.011 0.0805 0.013 0.0673 0.116 0.1959 0.309 0.3857 0.207 0.1698 0.444 0.36 0.711 0.5706 0.284 0.2074 0.548 0.4012 0.791 0.5814 0.258 0.1602 0.443 0.2642 0.557 0.3123 0.181 0.0351 0.322 0.1304 0.421 0.2858 0.113 0.1354 0.194 0.2856 0.243 0.4507 0.046 0.1482 0.052 0.2692 0.017 0.363zm-3.882-3.8891c0.071-0.0834 0.222-0.2517 0.453-0.5051 0.227-0.2702 0.476-0.562 0.748-0.8755 0.268-0.3304 0.506-0.6374 0.714-0.9212 0.221-0.3039 0.37-0.5243 0.449-0.6614 0.095-0.1403 0.174-0.3648 0.237-0.6733 0.064-0.3086 0.037-0.539-0.079-0.6912-0.03-0.0641-0.175-0.0015-0.435 0.1878-0.261 0.1892-0.558 0.4118-0.893 0.6676-0.254 0.2229-0.549 0.506-0.884 0.8492-0.319 0.3399-0.618 0.6935-0.897 1.0607-0.261 0.364-0.449 0.7051-0.563 1.0233-0.011 0.1242 0.048 0.2524 0.178 0.3846 0.13 0.1321 0.287 0.2242 0.472 0.2762 0.181 0.0352 0.347-0.0054 0.5-0.1217zm13.784 4.7184c-0.088 0.0866-0.209 0.0923-0.363 0.0171-0.137-0.0785-0.349-0.2299-0.636-0.4541-0.144-0.1121-0.247-0.2407-0.309-0.3857-0.063-0.145-0.109-0.4327-0.139-0.863 0.032-0.198 0.032-0.3811 0-0.5494-0.016-0.1715-0.03-0.2909-0.043-0.3582-0.019-0.101-0.039-0.3414-0.059-0.7212-3e-3 -0.3831-0.01-0.783-0.02-1.1997-0.013-0.4336-0.015-0.7645-6e-3 -0.9929-3e-3 -0.0169-3e-3 -0.0605 1e-3 -0.1311 4e-3 -0.0705 9e-3 -0.1326 0.017-0.1863 4e-3 -0.1579 8e-3 -0.3679 0.01-0.6299 0.019-0.2653 0.019-0.5879-2e-3 -0.9677 0.055-0.4464 0.085-0.8796 0.092-1.2995 0.021-0.44 0.017-0.7357-0.012-0.8872-0.058-0.3029 0.018-0.5441 0.228-0.7238 1e-3 -0.0873 0.027-0.2232 0.079-0.4075 0.049-0.2012 0.095-0.3671 0.14-0.4978 0.154-1.0234 0.287-1.8337 0.399-2.4308 0.11-0.6139 0.242-1.1538 0.397-1.6195 0.047-0.3053 0.1-0.6207 0.16-0.9461 0.076-0.3286 0.166-0.5899 0.268-0.7839 0.043-0.2348 0.183-0.5495 0.422-0.9439 0.235-0.4112 0.491-0.8089 0.766-1.1929 0.272-0.4008 0.494-0.7047 0.663-0.9115 0.335-0.2559 0.606-0.4383 0.811-0.5474 0.206-0.1091 0.486-0.1974 0.839-0.2649 0.32-0.0611 0.538-0.0592 0.655 0.0056 0.131 0.0448 0.325 0.1473 0.582 0.3074 0.284 0.2075 0.451 0.35 0.501 0.4277 0.049 0.0777 0.097 0.2344 0.142 0.47 8e-3 0.2252-0.03 0.5289-0.114 0.9112-0.07 0.3623-0.162 0.7025-0.276 1.0208-0.1 0.2981-0.199 0.4653-0.296 0.5014-0.189 0.1059-0.344 0.118-0.464 0.0363-0.107-0.1017-0.184-0.2788-0.233-0.5312-0.022-0.1178-0.077-0.2207-0.163-0.3089-0.073-0.1081-0.11-0.1622-0.11-0.1622-9e-3 -0.0505-0.017-0.1362-0.023-0.2572 8e-3 -0.1411 0.034-0.2769 0.079-0.4076 0.052-0.1843 0.045-0.3137-0.022-0.3882-0.049-0.0777-0.162-0.0737-0.337 0.0122-0.044 0.0433-0.16 0.17-0.346 0.38-0.187 0.2101-0.386 0.4486-0.596 0.7156-0.197 0.2469-0.371 0.4806-0.52 0.7011-0.15 0.2205-0.22 0.3559-0.21 0.4064 0 0-0.02 0.0822-0.058 0.2465-0.042 0.1475-0.134 0.3483-0.277 0.6024-0.086 0.1908-0.163 0.3799-0.232 0.5675-0.055 0.1675-0.08 0.2681-0.073 0.3018 0.013 0.0673 0.019 0.1446 0.018 0.232 0.013 0.0673-0.023 0.109-0.107 0.125 0 0-0.011 0.0806-0.032 0.2417-0.022 0.1611-0.077 0.3723-0.167 0.6336-0.035 0.1811-0.086 0.3739-0.151 0.5783-0.069 0.1875-0.131 0.3214-0.185 0.4016l0.025-0.0049s-0.021 0.1175-0.063 0.3523c-0.029 0.2148-0.063 0.448-0.102 0.6997-0.043 0.2348-0.061 0.369-0.054 0.4027 0.013 0.0673 0.137 0.0785 0.373 0.0335 0.252-0.0483 0.542-0.1298 0.869-0.2445 0.323-0.1316 0.613-0.2568 0.87-0.3756 0.222-0.1123 0.376-0.1765 0.46-0.1925 0.084-0.0161 0.259-0.0146 0.524 0.0045 0.151 0.0584 0.284 0.1637 0.401 0.3159 0.129 0.1322 0.226 0.2708 0.288 0.4158 0.076 0.125 0.096 0.2259 0.058 0.3029-4e-3 0.0705-0.171 0.1984-0.502 0.3837s-0.667 0.3454-1.007 0.4802c-0.29 0.1252-0.646 0.2716-1.067 0.4393-0.422 0.1678-0.794 0.3174-1.118 0.449-0.307 0.1284-0.456 0.2179-0.446 0.2683-0.067 0.0129-0.118 0.0662-0.153 0.16-0.037 0.077-0.051 0.1407-0.042 0.1912 0.045 0.2355 0.046 0.4187 1e-3 0.5493-0.015 0.1074-0.035 0.3206-0.061 0.6396-0.027 0.3189-0.055 0.6732-0.085 1.0627-0.013 0.3863-0.025 0.7373-0.034 1.053 7e-3 0.3126 0.02 0.5193 0.04 0.6203-0.079 0.1371-0.109 0.2998-0.09 0.4881 0.015 0.1715 0.036 0.3245 0.061 0.4592-0.041 0.1474-0.059 0.2817-0.054 0.4027 3e-3 0.1042 0.011 0.1899 0.023 0.2572 4e-3 0.0169 0.01 0.0505 0.02 0.101 9e-3 0.0505 0.011 0.1026 3e-3 0.1563 0.016 0.1715 0.032 0.395 0.05 0.6707 0.038 0.2893 0.083 0.5686 0.134 0.8378l0.064 0.7465c0.025 0.2219 0.035 0.4119 0.03 0.5698-1e-3 0.1747-0.036 0.3121-0.104 0.4123zm8.721-5.4334c-0.34 0.1348-0.563 0.2034-0.667 0.2059-0.09-0.0176-0.244-0.0928-0.462-0.2258-0.295-0.0831-0.554-0.208-0.778-0.3746-0.206-0.1698-0.373-0.356-0.499-0.5587-0.112-0.2227-0.174-0.4114-0.186-0.5661-0.062-0.5986-0.04-1.257 0.067-1.9751s0.269-1.4206 0.487-2.1075 0.478-1.2861 0.782-1.7976c0.317-0.5315 0.647-0.8999 0.992-1.1052 0.311-0.199 0.621-0.3105 0.93-0.3347 0.31-0.0242 0.559 0.0938 0.748 0.3542 0.346 0.4398 0.346 0.7623 2e-3 0.9677-0.051 0.0096-0.105 0.0461-0.162 0.1095-0.061 0.0465-0.085 0.1034-0.072 0.1707 0.073 0.0208 0.26-0.0062 0.56-0.0808 0.296-0.0916 0.589-0.1999 0.879-0.3251 0.304-0.1452 0.498-0.2695 0.583-0.373 0.092-0.0697 0.163-0.1094 0.213-0.1191 0.05-0.0096 0.18-0.0169 0.388-0.0218 0.302 0.0295 0.465 0.1031 0.487 0.2209 0.013 0.0673 0.051 0.1298 0.115 0.1875 0.06 0.0408 0.123 0.0548 0.191 0.0419 0.121-0.0056 0.118 0.0733-7e-3 0.2369-0.109 0.1603-0.31 0.3904-0.601 0.6903-0.281 0.263-0.457 0.4362-0.529 0.5196-0.057 0.0633-0.043 0.1827 0.043 0.3582 0.195 0.294 0.274 0.6626 0.237 1.1058s-0.166 0.9125-0.385 1.4079c-0.219 0.4953-0.511 0.9783-0.875 1.449-0.349 0.4505-0.743 0.857-1.179 1.2195-0.423 0.3424-0.857 0.5823-1.302 0.7196zm-0.641-1.0287c0.067-0.0128 0.179-0.069 0.334-0.1685 0.152-0.1162 0.274-0.2093 0.365-0.279 0.055-0.0802 0.124-0.172 0.209-0.2754 0.099-0.1235 0.18-0.2001 0.244-0.2298 0.068-0.0128 0.147-0.0541 0.238-0.1239 0.088-0.0866 0.207-0.2401 0.357-0.4606 0.146-0.2373 0.334-0.5784 0.563-1.0233 0.266-0.4345 0.463-0.8209 0.59-1.1591 0.124-0.3551 0.118-0.6592-0.018-0.9124-0.029-0.0641-0.088-0.0965-0.175-0.0973-0.071-4e-3 -0.171-0.0284-0.302-0.0732-0.168 0.0322-0.336 0.0207-0.504-0.0346-0.153-0.0752-0.337-0.1709-0.551-0.287l-0.501-0.4276-0.347 0.511c-0.218 0.3207-0.427 0.7792-0.627 1.3756-0.186 0.5763-0.327 1.1614-0.423 1.7553-0.099 0.577-0.135 1.0286-0.108 1.3548 0.032 0.2556 0.106 0.4159 0.223 0.4807 0.117 0.0649 0.261 0.0896 0.433 0.0743zm8.463-0.2824c-0.047 0.0265-0.133 0.0341-0.257 0.023-0.125-0.0112-0.25-0.0307-0.378-0.0587-0.127-0.028-0.211-0.0556-0.251-0.0828-0.08-0.0545-0.167-0.1426-0.26-0.2644-0.076-0.1249-0.113-0.3185-0.111-0.5805-1e-3 -0.2789 0.102-0.656 0.307-1.1314 0.052-0.1843 0.105-0.456 0.159-0.8151 0.053-0.359 0.103-0.7349 0.15-1.1276 0.061-0.4128 0.113-0.7802 0.156-1.1024 0.06-0.3254 0.104-0.5518 0.132-0.6793-0.021-0.2925-0.076-0.4912-0.166-0.5961-0.076-0.125-0.234-0.1734-0.473-0.1452-0.168 0.0321-0.306 0.041-0.413 0.0266-0.091-0.0175-0.165-0.1778-0.223-0.4807-0.011-0.242 0.017-0.4131 0.085-0.5133 0.082-0.1203 0.196-0.2554 0.341-0.4053 0.153-0.1163 0.31-0.2073 0.471-0.2732 0.179-0.069 0.354-0.1111 0.526-0.1265 0.171-0.0153 0.317 0.0179 0.437 0.0996 0.131 0.0448 0.236 0.1818 0.314 0.4109 0.076 0.2124 0.136 0.4363 0.181 0.6719 0.062 0.2324 0.112 0.4059 0.152 0.5204 0.142-0.1667 0.334-0.3952 0.575-0.6855 0.255-0.3102 0.471-0.5957 0.648-0.8562 0.233-0.2366 0.518-0.4827 0.853-0.7386 0.331-0.2726 0.581-0.425 0.75-0.4572 0.185-0.0353 0.379-0.0202 0.584 0.0454 0.201 0.0488 0.348 0.134 0.441 0.2558 0.223 0.2539 0.347 0.4919 0.372 0.7139 0.042 0.2187-7e-3 0.4636-0.148 0.7345-0.126 0.2509-0.307 0.4426-0.544 0.5749-0.219 0.1292-0.363 0.2002-0.43 0.213-0.101 0.0193-0.242-0.0323-0.422-0.1548s-0.289-0.2327-0.325-0.3304c-9e-3 -0.0505-0.109 0.0209-0.299 0.2141-0.176 0.1732-0.37 0.3933-0.58 0.6603-0.214 0.2501-0.389 0.4754-0.525 0.6758-0.219 0.4081-0.43 0.9455-0.634 1.6124s-0.443 1.4712-0.716 2.413c-0.122 0.4593-0.196 0.8484-0.222 1.1674-0.03 0.3021-0.115 0.4929-0.257 0.5723zm14.769-3.2923c-0.208-0.0824-0.405-0.2017-0.592-0.3579-0.19-0.173-0.314-0.4109-0.372-0.7138-0.032-0.1683-0.053-0.4608-0.063-0.8775-0.01-0.4168-4e-3 -0.8888 0.018-1.4161 0.021-0.5274 0.049-1.021 0.083-1.4811 0.11-0.335 0.196-0.6652 0.255-0.9906 0.06-0.3254 0.084-0.5218 0.071-0.5891-5e-3 -0.2083-8e-3 -0.452-9e-3 -0.7309 0.016-0.2821 0.037-0.5389 0.062-0.7705 0.026-0.2317 0.052-0.3675 0.079-0.4076 0.069-0.1002 0.16-0.17 0.274-0.2093 0.112-0.0562 0.233-0.0618 0.363-0.017 0.145 0.0247 0.267 0.1148 0.366 0.2702 0.224 0.1666 0.363 0.3929 0.418 0.679 0.051 0.2692 0.036 0.6908-0.047 1.2646-0.087 0.3655-0.163 0.7899-0.227 1.2732-0.065 0.4833-0.119 0.9297-0.163 1.3392-0.03 0.3895-0.041 0.6532-0.032 0.791l-0.476 0.2479c0.235-0.3239 0.451-0.653 0.649-0.9873 0.194-0.3511 0.334-0.622 0.42-0.8128 0.212-0.4417 0.395-0.808 0.549-1.099 0.167-0.3111 0.383-0.6838 0.649-1.1183 0.263-0.4514 0.546-0.7496 0.85-0.8949 0.317-0.1652 0.568-0.2655 0.753-0.3009 0.383-0.0034 0.715 0.1339 0.995 0.4118 0.293 0.2579 0.531 0.6833 0.714 1.2762 0.045 0.2356 0.073 0.5181 0.084 0.8475 0.027 0.3261 0.041 0.4892 0.041 0.4892l0.303-0.6072c0.218-0.408 0.523-0.8674 0.914-1.3781 0.274-0.2967 0.56-0.4908 0.856-0.5823 0.294-0.1083 0.582-0.0588 0.866 0.1486 0.482 0.152 0.838 0.4592 1.065 0.9214 0.225 0.4455 0.375 1.0449 0.449 1.7981 0.033 0.4472 0.087 0.777 0.162 0.9893 0.073 0.1955 0.162 0.3878 0.268 0.5768 0.147 0.0416 0.2 0.1799 0.157 0.4147-0.045 0.218-0.127 0.3382-0.245 0.3608-0.168 0.0321-0.368 0.0354-0.6 0.0099-0.214-0.0287-0.42-0.1028-0.618-0.2221-0.183-0.1393-0.302-0.352-0.357-0.6381l-0.299-1.565c-0.071-0.3702-0.145-0.6699-0.224-0.899-0.062-0.2324-0.131-0.3674-0.208-0.405-0.205-0.0656-0.453 0.0952-0.745 0.4824-0.292 0.3873-0.589 0.8887-0.89 1.5043-0.301 0.6157-0.574 1.2433-0.818 1.883-0.22 0.5827-0.364 0.9242-0.432 1.0244-0.054 0.0802-0.185 0.079-0.393-0.0034-0.393-0.0471-0.659-0.1619-0.798-0.3446-0.126-0.2027-0.181-0.4451-0.165-0.7272 0.029-0.3021 0.056-0.7084 0.081-1.2189 0.041-0.5137 0.077-1.009 0.108-1.4859 0.028-0.4937 0.039-0.8447 0.034-1.053-0.093-0.1218-0.218-0.1414-0.377-0.0587-0.145 0.0625-0.29 0.1688-0.436 0.3188-0.176 0.1731-0.372 0.4722-0.588 0.897-0.215 0.4249-0.427 0.9103-0.637 1.4561-0.141 0.3583-0.29 0.7182-0.448 1.0797-0.161 0.3447-0.311 0.6526-0.451 0.9235-0.14 0.271-0.267 0.4782-0.379 0.6217-0.165 0.4152-0.286 0.6477-0.364 0.6974-0.077 0.0497-0.245 0.0382-0.503-0.0346zm15.695-1.8732c-0.216 0.0586-0.396 0.0755-0.54 0.0507-0.148-0.0415-0.334-0.1019-0.558-0.1812-0.425-0.2153-0.757-0.4483-0.997-0.6991-0.226-0.2707-0.358-0.5507-0.396-0.84 5e-3 -0.1579-0.021-0.2925-0.077-0.4039-0.039-0.1146-0.059-0.1718-0.059-0.1718-0.117-0.0649-0.16-0.1089-0.13-0.1322 0.027-0.0401 0.043-0.0954 0.047-0.1659 0.128-0.0594 0.127-0.1552-3e-3 -0.2873-0.076-0.125-0.109-0.4327-0.098-0.9232 0.025-0.5105 0.09-0.9938 0.194-1.4498 0.049-0.2012 0.12-0.4677 0.214-0.7995 0.11-0.3351 0.238-0.6733 0.382-1.0148 0.14-0.3583 0.277-0.6461 0.41-0.8633 0.29-0.4914 0.559-0.8654 0.806-1.122 0.261-0.2766 0.564-0.5176 0.909-0.723 0.311-0.1989 0.54-0.3212 0.688-0.367 0.149-0.0457 0.378 0.015 0.689 0.1824 0.427 0.0406 0.762 0.151 1.005 0.3312 0.258 0.1601 0.487 0.4477 0.688 0.8627 0.228 0.4623 0.381 1.0348 0.459 1.7176 0.092 0.6627-0.032 1.5671-0.371 2.7133-0.194 0.7174-0.419 1.2749-0.675 1.6725-0.238 0.3944-0.541 0.8185-0.908 1.2723-0.268 0.3303-0.522 0.5969-0.763 0.7998-0.24 0.2029-0.546 0.3834-0.916 0.5415zm1.445-3.3895c0.24-0.5692 0.413-1.0817 0.517-1.5378 0.119-0.4761 0.174-1.0535 0.166-1.7323-1e-3 -0.1915-0.036-0.4203-0.104-0.6864-0.072-0.2828-0.164-0.5356-0.276-0.7583-0.096-0.226-0.195-0.3377-0.3-0.3353-0.235-0.0423-0.479 0.0043-0.732 0.1399-0.256 0.1187-0.512 0.3769-0.767 0.7746-0.222 0.3912-0.411 0.8196-0.566 1.2853-0.138 0.4625-0.252 0.9638-0.34 1.504-0.089 0.5402-0.163 1.1124-0.222 1.7167-0.046 0.6716 0.056 1.158 0.305 1.4592 0.266 0.298 0.61 0.3194 1.033 0.0644 0.419-0.2719 0.847-0.9033 1.286-1.894zm5.244 1.3529c-0.174-0.0888-0.306-0.1857-0.396-0.2907-0.073-0.1081-0.117-0.3353-0.13-0.6815-0.04-0.4808-0.051-0.9059-0.035-1.2754 0.014-0.3863 0.034-0.8263 0.062-1.3199-5e-3 -0.2084 0.022-0.571 0.08-1.088 0.075-0.5201 0.176-1.0888 0.302-1.7059 0.126-0.6172 0.259-1.2007 0.398-1.7505 0.136-0.5667 0.264-0.9923 0.384-1.2768 0.116-0.1267 0.267-0.1993 0.456-0.2179 0.205-0.0217 0.388 0.0219 0.548 0.1308 0.214 0.1161 0.291 0.3805 0.23 0.7932-0.047 0.3928-0.187 1.0299-0.42 1.9116-0.115 0.4929-0.2 0.8668-0.256 1.1217-0.06 0.2381-0.076 0.3807-0.049 0.428 0.023 0.0304 0.094-0.0093 0.212-0.1191 0.066-0.2044 0.211-0.4501 0.435-0.7372 0.221-0.3038 0.461-0.6025 0.718-0.8959 0.258-0.2935 0.504-0.5585 0.738-0.795s0.397-0.3897 0.488-0.4595c0.118-0.1098 0.257-0.2061 0.416-0.2887 0.172-0.1027 0.288-0.1773 0.349-0.2238 0.352-0.259 0.735-0.4019 1.148-0.4285 0.414-0.0267 0.695 0.0765 0.844 0.3096 0.043 0.1315 0.112 0.2228 0.209 0.274l0.171 0.072c0.068-0.0128 0.106 6e-3 0.116 0.0565 0.026 0.0473 0.039 0.0709 0.039 0.0709 0.023 0.1178-0.055 0.2112-0.234 0.2802-0.165 0.049-0.381 0.1076-0.647 0.1759-0.215 0.0586-0.401 0.1376-0.556 0.2371-0.155 0.0994-0.341 0.2221-0.558 0.3681-0.568 0.4924-1.113 0.9715-1.635 1.4374-0.505 0.4627-0.97 1.0399-1.396 1.7318-0.092 0.1571-0.179 0.3395-0.262 0.5471-0.082 0.2076-0.17 0.4336-0.262 0.6781-0.068 0.1002-0.117 0.3014-0.147 0.6035-0.029 0.3022-0.052 0.5943-0.068 0.8764-2e-3 0.2621 2e-3 0.4183 0.011 0.4688 0 0-9e-3 0.089-0.027 0.2669-0.022 0.1611-0.077 0.3286-0.166 0.5026-0.15 0.3078-0.293 0.4745-0.428 0.5003-0.134 0.0257-0.362-0.0704-0.682-0.2882zm13.058-2.4946c-0.295 0.3704-0.674 0.6258-1.135 0.7663-0.445 0.1373-0.904 0.1552-1.377 0.0536-0.476-0.1183-0.895-0.3521-1.259-0.7013-0.356-0.3156-0.622-0.7009-0.796-1.156-0.177-0.4719-0.306-1.1014-0.387-1.8883-0.075-0.6659 0.01-1.3624 0.255-2.0894 0.242-0.7438 0.573-1.4264 0.995-2.0477 0.439-0.6245 0.9-1.0876 1.383-1.3892 0.221-0.2164 0.416-0.3324 0.588-0.3477 0.185-0.0353 0.466-0.0715 0.842-0.1086 0.397-0.0235 0.698-0.0024 0.902 0.0632 0.221 0.0624 0.407 0.1665 0.557 0.3123 0.3 0.2042 0.517 0.4244 0.649 0.6608 0.129 0.2195 0.217 0.447 0.262 0.6826 3e-3 0.3831-0.163 0.8856-0.497 1.5077-0.321 0.602-0.795 1.1372-1.42 1.6056-0.348 0.1885-0.742 0.3161-1.183 0.3829-0.441 0.0667-0.823 0.0265-1.148-0.1208-0.345-0.0736-0.551-0.0081-0.617 0.1963-0.068 0.1875-0.081 0.6259-0.036 1.3151 0.055 0.6523 0.195 1.1138 0.421 1.3846 0.223 0.2539 0.483 0.3788 0.778 0.3746 0.35 3e-3 0.62 0.0037 0.812 2e-3 0.205-0.0218 0.434-0.1441 0.688-0.367 0.237-0.2197 0.388-0.3444 0.452-0.3741 0.061-0.0465 0.105-0.0898 0.132-0.1299 0.041-0.0602 0.13-0.1904 0.266-0.3909 0.095-0.1402 0.171-0.2421 0.229-0.3054 0.055-0.0802 0.124-0.1283 0.208-0.1444 0.084-0.016 0.168 0.0116 0.251 0.0828 0.08 0.0545 0.157 0.0921 0.231 0.1129 0.168-0.0321 0.221 0.0624 0.159 0.2836-0.046 0.218-0.176 0.4958-0.39 0.8333-0.218 0.3207-0.49 0.6342-0.815 0.9405zm-1.047-5.3464c0.169-0.1195 0.34-0.2743 0.513-0.4643 0.17-0.2069 0.304-0.4157 0.403-0.6265 0.113-0.2309 0.157-0.4136 0.131-0.5482-0.045-0.2356-0.191-0.4082-0.439-0.5179-0.251-0.1265-0.584-0.089-0.999 0.1123-0.175 0.0859-0.362 0.2523-0.559 0.4992-0.2 0.2301-0.387 0.4839-0.561 0.7612-0.156 0.2742-0.285 0.5167-0.384 0.7275-0.082 0.2076-0.103 0.325-0.063 0.3523 0.066 0.0745 0.222 0.1144 0.467 0.1199 0.242-0.0113 0.505-0.0527 0.788-0.1242 0.299-0.0747 0.534-0.1718 0.703-0.2913zm13.101 3.2007c-0.128 0.0594-0.302 0.11-0.521 0.1517-0.222 0.025-0.42 0.0367-0.595 0.0352-0.161-0.0215-0.246-0.0575-0.256-0.108-0.016-0.0842-0.066-0.1182-0.15-0.1021 0 0-0.049-0.0256-0.146-0.0769-0.08-0.0544-0.202-0.1008-0.366-0.1392-0.197-0.2067-0.321-0.4446-0.372-0.7139-0.055-0.286-0.064-0.7464-0.029-1.3812-0.029-0.4303 0.037-0.9488 0.2-1.5556 0.177-0.6268 0.411-1.2732 0.703-1.9394 0.291-0.6661 0.61-1.2765 0.958-1.8313 0.364-0.5579 0.711-0.9817 1.039-1.2712 0.191-0.2805 0.453-0.4614 0.786-0.5425s0.667-0.0665 1.002 0.0439c0.185 0.052 0.379 0.1545 0.582 0.3074 0.204 0.153 0.403 0.3244 0.596 0.5142s0.361 0.3845 0.504 0.584c0.086 0.1754 0.143 0.3389 0.172 0.4903 0.042 0.1314 0.075 0.2997 0.096 0.5049 0.039 0.2019 0.072 0.5096 0.098 0.9231-0.026 0.319-0.031 0.7037-0.015 1.154 0.033 0.4472 0.08 0.8307 0.141 1.1504 0.028 0.3261 0.105 0.5469 0.232 0.6622 0.143 0.1121 0.313 0.0884 0.509-0.0712 0.183-0.1395 0.368-0.2186 0.557-0.2371 0.185-0.0354 0.338-0.0122 0.458 0.0695 0.137 0.0784 0.225 0.2186 0.263 0.4206 0.039 0.2019-0.022 0.4315-0.182 0.6889-0.147 0.2373-0.348 0.459-0.606 0.6651-0.243 0.186-0.491 0.3032-0.744 0.3514-0.185 0.0353-0.382-0.0403-0.592-0.2269-0.214-0.2034-0.418-0.4522-0.614-0.7462-0.182-0.314-0.352-0.6129-0.511-0.8965l-0.262-0.5516-0.888 1.2423c-0.174 0.2773-0.351 0.5379-0.531 0.7816-0.167 0.2237-0.267 0.3824-0.302 0.4762-0.055 0.1675-0.186 0.3495-0.392 0.546-0.19 0.1932-0.464 0.4025-0.822 0.6279zm-0.209-1.5037c0.254-0.2229 0.535-0.5296 0.845-0.9201 0.306-0.4072 0.598-0.8382 0.878-1.2927 0.276-0.4714 0.5-0.8978 0.671-1.2794 0.212-0.4417 0.362-0.8453 0.449-1.2108 0.087-0.3654 0.135-0.7061 0.145-1.0218-0.103-0.1723-0.249-0.3449-0.439-0.5179-0.194-0.1898-0.351-0.2819-0.472-0.2762-0.37 0.0707-0.72 0.3818-1.051 0.9334-0.317 0.5315-0.618 1.1034-0.902 1.7159-0.051 0.097-0.118 0.2493-0.2 0.4569-0.083 0.2076-0.167 0.4068-0.252 0.5975-0.073 0.1708-0.121 0.2846-0.145 0.3415-0.037 0.077-0.101 0.2898-0.192 0.6384-0.076 0.3287-0.151 0.6657-0.225 1.0111-0.077 0.3286-0.105 0.5434-0.086 0.6444s0.048 0.2087 0.088 0.3233c0.056 0.1114 0.155 0.171 0.296 0.179 0.141 0.0079 0.338-0.0996 0.592-0.3225zm10.158-0.4232c-0.209 0.0923-0.411 0.1309-0.605 0.1158-0.195-0.0152-0.38-0.0672-0.553-0.156-0.174-0.0889-0.332-0.181-0.472-0.2763-0.143-0.1121-0.2-0.2234-0.168-0.334 0.028-0.1275 0.101-0.2025 0.218-0.225 0.068-0.0128 0.097-0.0882 0.088-0.226 5e-3 -0.1579-0.013-0.4335-0.053-0.827-0.012-0.242-8e-3 -0.452 0.01-0.6299 0.032-0.198 0.042-0.3306 0.029-0.3979 7e-3 -0.0537-2e-3 -0.1916-0.027-0.4135-0.011-0.2421 1e-3 -0.4536 0.036-0.6348 9e-3 -0.3157 0.036-0.722 0.081-1.2189 0.041-0.5138 0.086-1.0106 0.134-1.4907 0.061-0.5001 0.11-0.8844 0.146-1.1529-2e-3 -0.1915 0.029-0.4416 0.092-0.7502 0.063-0.3085 0.121-0.555 0.173-0.7394 0.078-0.5033 0.189-1.1088 0.333-1.8165 0.161-0.7109 0.321-1.4219 0.482-2.1328s0.307-1.3144 0.439-1.8106c0.146-0.5162 0.242-0.8312 0.29-0.945 0.109-0.1603 0.258-0.2498 0.446-0.2683 0.205-0.0217 0.418 0.0422 0.639 0.192 0.186 0.1562 0.292 0.3452 0.317 0.5672 0.022 0.2052-0.046 0.4448-0.203 0.719-0.044 0.1306-0.091 0.2965-0.14 0.4977-0.052 0.1844-0.109 0.3435-0.17 0.4773-0.058 0.4296-0.151 0.8572-0.279 1.2828-0.111 0.4224-0.229 0.8985-0.355 1.4283-0.128 0.513-0.251 1.147-0.369 1.9019-0.09 0.3487-0.155 0.6925-0.195 1.0316-0.043 0.3221-0.09 0.5317-0.142 0.6287-0.03 0.3895-0.082 0.8007-0.157 1.2335-0.077 0.4159-0.111 0.8323-0.101 1.249l0.204-0.3006c0.153-0.2037 0.332-0.4558 0.536-0.7564 0.521-0.8322 1.067-1.5381 1.636-2.1178 0.586-0.583 1.097-0.9246 1.531-1.025 0.232-0.0619 0.496-0.0512 0.791 0.032 0.312 0.08 0.605 0.1984 0.879 0.3553 0.271 0.1401 0.469 0.3115 0.595 0.5142 0.193 0.2772 0.306 0.5957 0.34 0.9555 0.047 0.3398 0.015 0.7209-0.096 1.1433-0.097 0.4023-0.261 0.8259-0.49 1.2708-0.124 0.3551-0.291 0.7098-0.503 1.0642-0.198 0.3343-0.376 0.5864-0.535 0.7564-0.14 0.1836-0.279 0.3672-0.419 0.5508-0.125 0.1635-0.231 0.297-0.315 0.4004-0.19 0.1933-0.344 0.3448-0.463 0.4547-0.122 0.093-0.292 0.2041-0.512 0.3332-0.305 0.32-0.758 0.5983-1.358 0.835-0.6 0.2368-1.195 0.4551-1.785 0.6549zm0.411-1.4127c0.118-0.0225 0.323-0.0879 0.616-0.1962 0.31-0.1116 0.581-0.2941 0.811-0.5474 0.714-0.555 1.301-1.1816 1.76-1.8799 0.457-0.7151 0.772-1.3944 0.945-2.038 0.188-0.6637 0.227-1.1858 0.12-1.5664-0.108-0.3806-0.418-0.4085-0.932-0.0837-0.513 0.3249-1.09 0.9583-1.73 1.9003-0.306 0.4073-0.59 0.8366-0.853 1.2879-0.249 0.4313-0.484 0.8425-0.706 1.2337-0.082 0.2076-0.153 0.3868-0.211 0.5375-0.042 0.1475-0.058 0.2901-0.049 0.4279-0.016 0.6484 0.06 0.9565 0.229 0.9243zm11.255-0.1879c-0.216 0.0586-0.396 0.0756-0.54 0.0508-0.147-0.0416-0.333-0.102-0.558-0.1812-0.425-0.2154-0.757-0.4484-0.997-0.6991-0.226-0.2708-0.358-0.5508-0.396-0.8401 5e-3 -0.1578-0.021-0.2925-0.077-0.4038-0.039-0.1146-0.059-0.1719-0.059-0.1719-0.117-0.0648-0.16-0.1089-0.13-0.1321 0.028-0.0401 0.043-0.0954 0.047-0.166 0.128-0.0593 0.128-0.1551-2e-3 -0.2873-0.077-0.1249-0.109-0.4327-0.098-0.9231 0.024-0.5105 0.089-0.9938 0.194-1.4499 0.048-0.2011 0.12-0.4676 0.213-0.7995 0.111-0.335 0.238-0.6733 0.382-1.0148 0.141-0.3583 0.278-0.646 0.411-0.8633 0.289-0.4914 0.558-0.8654 0.806-1.122 0.261-0.2766 0.564-0.5176 0.908-0.7229 0.311-0.1989 0.54-0.3213 0.689-0.367 0.148-0.0458 0.378 0.015 0.689 0.1823 0.426 0.0407 0.761 0.1511 1.005 0.3313 0.257 0.1601 0.486 0.4477 0.688 0.8627 0.228 0.4623 0.381 1.0348 0.459 1.7175 0.091 0.6628-0.032 1.5672-0.372 2.7134-0.194 0.7173-0.419 1.2748-0.674 1.6725-0.239 0.3944-0.542 0.8185-0.908 1.2723-0.269 0.3303-0.523 0.5969-0.763 0.7998-0.241 0.2029-0.546 0.3833-0.917 0.5414zm1.445-3.3895c0.24-0.5691 0.413-1.0817 0.518-1.5377 0.118-0.4761 0.173-1.0536 0.166-1.7324-2e-3 -0.1915-0.037-0.4203-0.105-0.6863-0.072-0.2829-0.164-0.5356-0.276-0.7584-0.095-0.2259-0.195-0.3377-0.299-0.3352-0.235-0.0423-0.479 0.0043-0.732 0.1398-0.257 0.1188-0.513 0.377-0.768 0.7746-0.222 0.3912-0.41 0.8197-0.566 1.2854-0.138 0.4624-0.251 0.9638-0.34 1.504s-0.163 1.1124-0.222 1.7167c-0.046 0.6716 0.056 1.158 0.305 1.4592 0.267 0.2979 0.611 0.3194 1.033 0.0643 0.419-0.2719 0.848-0.9032 1.286-1.894zm10.956 1.1251c-0.2-0.1361-0.412-0.3311-0.635-0.5851-0.226-0.2707-0.427-0.59-0.601-0.9577-0.06-0.1282-0.112-0.3101-0.157-0.5457-0.028-0.2388-0.06-0.4071-0.096-0.5048-0.028 0.1274-0.088 0.2697-0.181 0.4268-0.078 0.1371-0.16 0.2574-0.245 0.3608-0.054 0.0802-0.18 0.2437-0.377 0.4906-0.2 0.2302-0.407 0.4266-0.62 0.5894-0.488 0.4595-0.913 0.7414-1.277 0.8458-0.347 0.1011-0.719-0.0197-1.116-0.3625-0.311-0.1673-0.551-0.3743-0.72-0.6211-0.153-0.2499-0.223-0.6201-0.212-1.1106-0.079-0.5954-0.104-1.1836-0.076-1.7646 0.025-0.5979 0.158-1.4082 0.399-2.4309 0.222-0.7574 0.394-1.3137 0.518-1.6688 0.121-0.3719 0.201-0.5963 0.238-0.6733 0.236-0.1323 0.448-0.1641 0.636-0.0953 0.184 0.052 0.316 0.1926 0.395 0.4217 0.133 0.149 0.17 0.4383 0.113 0.8679-0.041 0.4264-0.156 0.963-0.347 1.6098-0.126 0.6171-0.235 1.2311-0.328 1.8418-0.076 0.6075-0.092 1.1164-0.048 1.5267 0.043 0.4103 0.191 0.635 0.442 0.6741 0.168 0.0552 0.424-0.0198 0.768-0.2252 0.362-0.2086 0.726-0.6271 1.095-1.2556 0.385-0.6317 0.7-1.5378 0.946-2.7184 0.07-0.3623 0.115-0.6761 0.134-0.9413 0.016-0.2822 1e-3 -0.5847-0.043-0.9076-0.072-0.1955-0.097-0.3738-0.076-0.5349 0.035-0.1811 0.143-0.3499 0.322-0.5063 0.051-0.097 0.129-0.1904 0.234-0.2802 0.102-0.1066 0.178-0.1211 0.227-0.0434l0.399-0.1024c0.065-0.0297 0.115 0.0044 0.151 0.1021 0.05 0.0777 0.123 0.1422 0.22 0.1934 0.214 0.1161 0.327 0.4346 0.339 0.9555 0.013 0.5209-0.088 1.2727-0.301 2.2553-0.188 0.751-0.307 1.3145-0.358 1.6904-0.033 0.3727-0.026 0.7289 0.021 1.0686 0.058 0.3029 0.172 0.5778 0.341 0.8245s0.401 0.4554 0.695 0.6259c0.208 0.0824 0.334 0.1978 0.38 0.346 0.063 0.145 0.105 0.3201 0.127 0.5253-5e-3 0.1578-0.082 0.3033-0.231 0.4365-0.135 0.113-0.304 0.1888-0.506 0.2274s-0.398 0.0151-0.589-0.0706zm5.832 0.2463c-0.571 0.022-0.99-0.116-1.256-0.414-0.246-0.2844-0.383-0.7727-0.411-1.4651 0.04-0.3391 0.044-0.6364 0.013-0.892-0.018-0.2757 0.026-0.4584 0.131-0.5482 0 0 3e-3 -0.0269 0.01-0.0806 0.024-0.0569 6e-3 -0.1058-0.054-0.1466-0.042-0.2188-0.024-0.5361 0.054-0.9521 0.014-0.1074 0.034-0.2332 0.058-0.3775 0.039-0.1643 0.058-0.2464 0.058-0.2464-0.11-0.1186-0.131-0.228-0.063-0.3282s0.138-0.192 0.209-0.2754c0.085-0.1034 0.076-0.1976-0.027-0.2825-0.047-0.0608-0.034-0.2203 0.039-0.4784 0.069-0.2749 0.154-0.5615 0.254-0.8597 0.1-0.2981 0.161-0.5278 0.183-0.6889-7e-3 -0.0336 0.013-0.1594 0.058-0.3774 0.046-0.2181 0.102-0.4729 0.168-0.7647 0.067-0.2917 0.129-0.5566 0.189-0.7947 0.076-0.2412 0.124-0.3987 0.145-0.4725 0.152-0.1163 0.073-0.1623-0.236-0.1381s-0.631 0.0769-0.964 0.158c-0.525 0.0828-0.95 0.138-1.276 0.1654-0.31 0.0242-0.577-0.0033-0.801-0.0825-0.247-0.197-0.355-0.3508-0.324-0.4615 0.045-0.1306 0.234-0.2365 0.567-0.3176 0.216-0.0586 0.383-0.0992 0.5-0.1217 0.135-0.0257 0.302-0.0663 0.5-0.1217 0.213-0.0754 0.541-0.1818 0.986-0.3191l1.268-0.3469-6e-3 -0.4435c0.093-0.2445 0.165-0.4589 0.217-0.6433 0.066-0.2044 0.114-0.4055 0.146-0.6035s0.046-0.4011 0.041-0.6095l0.15-0.4473c0.097-0.315 0.133-0.6271 0.109-0.9364 0.137-0.3752 0.256-0.7118 0.356-1.01 0.097-0.315 0.156-0.5094 0.177-0.5831 0.156-0.1868 0.268-0.2867 0.335-0.2995 0.084-0.0161 0.268 0.0359 0.553 0.156 0.168 0.0552 0.321 0.1304 0.462 0.2257 0.14 0.0953 0.24 0.207 0.299 0.3352 0.056 0.1114 0.028 0.2388-0.084 0.3823-0.021 0.0738-0.047 0.2096-0.079 0.4076-0.035 0.1811-0.058 0.3338-0.069 0.458-0.079 0.1371-0.168 0.3547-0.268 0.6529-0.086 0.2782-0.129 0.5567-0.128 0.8355-0.08 0.3118-0.157 0.5968-0.229 0.8549-0.076 0.2412-0.148 0.3683-0.215 0.3811 0.065 0.1619 0.183 0.2267 0.351 0.1946 0.165-0.049 0.439-0.1188 0.823-0.2096 0.313-0.0947 0.526-0.1702 0.637-0.2264 0.125-0.0762 0.28-0.0883 0.464-0.0363 0.107 0.1018 0.2 0.2235 0.279 0.3653 0.08 0.1418 0.115 0.2833 0.107 0.4243 6e-3 0.121-0.045 0.218-0.153 0.291-0.084 0.0161-0.251 0.1003-0.501 0.2527-0.237 0.1324-0.547 0.2439-0.931 0.3347l-1.313 0.3818-0.266 0.9402c-0.076 0.2412-0.138 0.4624-0.187 0.6636-0.052 0.1844-0.091 0.2966-0.119 0.3367 0.02 0.1009-0.01 0.2636-0.089 0.4881-0.063 0.2212-0.13 0.4608-0.203 0.7189-0.047 0.3054-0.114 0.5887-0.204 0.85-0.073 0.2581-0.109 0.3872-0.109 0.3872-0.068 0.0128-0.092 0.0697-0.072 0.1707 0.122 0.1859 0.126 0.3421 0.011 0.4688-0.075 0.0666-0.136 0.1568-0.184 0.2706-0.034 0.0938-0.052 0.1407-0.052 0.1407 0.081 0.0544 0.105 0.1369 0.074 0.2475-0.015 0.1074-0.044 0.2265-0.089 0.3571 0.026 0.1346 0.021 0.3362-0.015 0.6047-0.019 0.2653-0.05 0.5153-0.092 0.7501 0.074 0.2997 0.128 0.49 0.161 0.571 0.033 0.0809 0.081 0.1065 0.145 0.0768 0.088 8e-4 0.164-0.0137 0.228-0.0434s0.129-0.0509 0.197-0.0638c0.216-0.146 0.202 0.4671-0.041 1.8392-0.189 0.4722-0.316 0.8104-0.382 1.0148-0.062 0.2212-0.136 0.3399-0.22 0.3559zm14.424-5.0577c-0.341 0.1348-0.563 0.2035-0.667 0.2059-0.091-0.0176-0.245-0.0928-0.462-0.2257-0.295-0.0832-0.554-0.2081-0.778-0.3747-0.207-0.1698-0.373-0.356-0.499-0.5587-0.112-0.2227-0.174-0.4114-0.187-0.5661-0.062-0.5986-0.039-1.2569 0.068-1.975 0.107-0.7182 0.269-1.4207 0.487-2.1076 0.217-0.6869 0.478-1.2861 0.781-1.7976 0.317-0.5315 0.648-0.8999 0.993-1.1052 0.311-0.1989 0.621-0.3105 0.93-0.3347s0.559 0.0939 0.748 0.3542c0.346 0.4398 0.346 0.7624 2e-3 0.9677-0.051 0.0096-0.105 0.0461-0.163 0.1095-0.061 0.0465-0.085 0.1034-0.072 0.1707 0.074 0.0208 0.261-0.0061 0.56-0.0808 0.297-0.0915 0.59-0.1999 0.88-0.3251 0.304-0.1452 0.498-0.2695 0.583-0.3729 0.091-0.0698 0.162-0.1095 0.213-0.1192 0.05-0.0096 0.18-0.0169 0.388-0.0218 0.302 0.0295 0.464 0.1031 0.487 0.2209 0.013 0.0673 0.051 0.1298 0.114 0.1875 0.06 0.0408 0.124 0.0548 0.191 0.042 0.121-0.0057 0.119 0.0732-7e-3 0.2368-0.109 0.1603-0.309 0.3904-0.6 0.6903-0.281 0.263-0.458 0.4362-0.529 0.5196-0.058 0.0633-0.044 0.1827 0.042 0.3582 0.196 0.294 0.275 0.6626 0.238 1.1058-0.038 0.4432-0.166 0.9125-0.385 1.4079-0.22 0.4954-0.511 0.9784-0.875 1.449-0.35 0.4506-0.743 0.8571-1.18 1.2195-0.423 0.3425-0.856 0.5823-1.301 0.7196zm-0.641-1.0287c0.067-0.0128 0.178-0.069 0.334-0.1684 0.152-0.1163 0.274-0.2093 0.365-0.2791 0.055-0.0802 0.124-0.172 0.209-0.2754 0.099-0.1235 0.18-0.2001 0.244-0.2297 0.067-0.0129 0.147-0.0542 0.238-0.124 0.088-0.0866 0.207-0.2401 0.357-0.4606 0.146-0.2373 0.334-0.5784 0.563-1.0233 0.266-0.4345 0.462-0.8209 0.59-1.1591 0.124-0.3551 0.118-0.6592-0.018-0.9124-0.029-0.0641-0.088-0.0965-0.175-0.0973-0.071-0.0039-0.171-0.0283-0.302-0.0731-0.168 0.0321-0.336 0.0206-0.504-0.0346-0.154-0.0753-0.338-0.1709-0.552-0.287l-0.5-0.4277-0.347 0.5111c-0.218 0.3206-0.427 0.7792-0.627 1.3755-0.186 0.5763-0.327 1.1614-0.423 1.7553-0.099 0.5771-0.135 1.0287-0.108 1.3548 0.032 0.2557 0.106 0.4159 0.223 0.4807 0.117 0.0649 0.261 0.0897 0.433 0.0743zm8.593-0.8306c-0.374-0.225-0.674-0.4729-0.9-0.7436-0.21-0.274-0.419-0.7311-0.629-1.3713-0.091-0.2965-0.133-0.6983-0.125-1.2056 4e-3 -0.5241 0.046-1.0815 0.125-1.6722s0.193-1.1357 0.342-1.6351c0.145-0.5161 0.313-0.9145 0.504-1.1951 0.154-0.291 0.288-0.4562 0.402-0.4955 0.129-0.0594 0.376-0.0455 0.741 0.0417 0.227 0.1834 0.364 0.4013 0.413 0.6537 0.048 0.2524 2e-3 0.5578-0.139 0.9161-0.25 0.5186-0.435 1.147-0.556 1.8852-0.107 0.7181-0.151 1.3544-0.132 1.909-0.059 0.6043-0.061 1.0058-6e-3 1.2045 0.056 0.1987 0.233 0.3044 0.532 0.317 0.332 0.0063 0.689-0.1838 1.068-0.5703 0.377-0.4033 0.722-0.9228 1.037-1.5585 0.311-0.6525 0.529-1.3394 0.653-2.0608 0.056-0.2548 0.078-0.5469 0.068-0.8763 6e-3 -0.3326 0.028-0.5811 0.067-0.7454 0.019-0.3526 0.091-0.6191 0.213-0.7995 0.119-0.1972 0.262-0.3203 0.427-0.3692 0.162-0.0658 0.311-0.0595 0.448 0.0189 0.164 0.0384 0.273 0.1049 0.326 0.1994 0.05 0.0777 0.095 0.3133 0.135 0.7068 0.119 0.6226 0.086 1.1784-0.1 1.6674-0.186 0.4889-0.325 0.9951-0.416 1.5184-0.084 0.3823-0.236 0.8212-0.455 1.3166-0.203 0.4921-0.447 0.9487-0.733 1.3696-0.269 0.4176-0.55 0.7243-0.844 0.92-0.414 0.3929-0.805 0.6247-1.176 0.6955-0.356 0.0506-0.786 0.0369-1.29-0.0414zm8.133-1.1349c-0.174-0.0889-0.306-0.1858-0.396-0.2907-0.073-0.1082-0.116-0.3353-0.13-0.6815-0.04-0.4809-0.051-0.906-0.035-1.2755 0.014-0.3862 0.034-0.8262 0.062-1.3199-5e-3 -0.2084 0.022-0.571 0.08-1.0879 0.075-0.5202 0.176-1.0888 0.302-1.706 0.126-0.6171 0.259-1.2006 0.398-1.7505 0.136-0.5666 0.264-0.9922 0.384-1.2768 0.116-0.1267 0.267-0.1993 0.456-0.2178 0.205-0.0218 0.388 0.0218 0.548 0.1307 0.214 0.1161 0.291 0.3805 0.23 0.7933-0.047 0.3927-0.187 1.0299-0.42 1.9115-0.115 0.493-0.2 0.8669-0.256 1.1217-0.059 0.2381-0.076 0.3808-0.049 0.428 0.023 0.0305 0.094-0.0092 0.212-0.1191 0.066-0.2044 0.211-0.4501 0.435-0.7371 0.221-0.3039 0.461-0.6025 0.718-0.896 0.258-0.2934 0.504-0.5584 0.738-0.795 0.234-0.2365 0.397-0.3897 0.488-0.4594 0.118-0.1099 0.257-0.2061 0.416-0.2888 0.172-0.1026 0.289-0.1772 0.349-0.2237 0.352-0.2591 0.735-0.4019 1.148-0.4286 0.414-0.0267 0.695 0.0766 0.844 0.3097 0.043 0.1314 0.113 0.2227 0.21 0.274 0.113 0.048 0.17 0.072 0.17 0.072 0.068-0.0129 0.106 0.0059 0.116 0.0564 0.026 0.0473 0.039 0.0709 0.039 0.0709 0.023 0.1178-0.055 0.2112-0.234 0.2802-0.165 0.049-0.38 0.1076-0.646 0.1759-0.216 0.0586-0.402 0.1377-0.557 0.2371-0.155 0.0995-0.341 0.2222-0.558 0.3682-0.568 0.4923-1.113 0.9715-1.635 1.4373-0.504 0.4627-0.97 1.04-1.396 1.7318-0.092 0.1571-0.179 0.3395-0.261 0.5471-0.083 0.2076-0.171 0.4337-0.263 0.6781-0.068 0.1003-0.117 0.3014-0.147 0.6036-0.029 0.3021-0.052 0.5942-0.068 0.8763-2e-3 0.2621 2e-3 0.4184 0.011 0.4689 0 0-9e-3 0.0889-0.027 0.2668-0.022 0.1611-0.077 0.3287-0.166 0.5026-0.15 0.3078-0.293 0.4746-0.427 0.5003-0.135 0.0257-0.363-0.0703-0.683-0.2881zm-180.72 62.406c-0.209 0.093-0.439 0.076-0.69-0.051-0.231-0.113-0.406-0.254-0.525-0.423-0.153-0.25-0.268-0.489-0.347-0.718-0.065-0.25-0.136-0.533-0.214-0.849l-0.189-0.853-0.857 1.131c-0.469 0.648-0.934 1.138-1.394 1.47-0.446 0.312-0.871 0.507-1.275 0.584-0.191 1e-3 -0.441-0.073-0.749-0.224-0.294-0.17-0.575-0.361-0.842-0.571-0.253-0.231-0.438-0.422-0.554-0.575-0.146-0.216-0.242-0.538-0.289-0.965-0.03-0.43-0.017-0.912 0.038-1.446 0.072-0.537 0.179-1.072 0.321-1.605 0.159-0.536 0.365-1.011 0.617-1.426 0.395-0.947 0.985-1.601 1.771-1.96 0.783-0.377 1.528-0.449 2.235-0.218 0.331 0.094 0.561 0.111 0.69 0.052 0.128-0.06 0.191-0.185 0.189-0.377 0.016-0.282 0.044-0.549 0.083-0.801 0.039-0.251 0.089-0.627 0.151-1.127 0.176-1.359 0.347-2.43 0.511-3.211 0.182-0.785 0.347-1.471 0.497-2.057 0.111-0.423 0.245-0.727 0.401-0.914s0.303-0.285 0.441-0.294c0.185-0.035 0.425-0.011 0.72 0.072 0.312 0.08 0.532 0.23 0.661 0.449 0.097 0.139 0.152 0.294 0.168 0.465 0.032 0.169 0.015 0.355-0.051 0.559-0.141 0.446-0.299 1.034-0.473 1.765-0.161 0.711-0.317 1.491-0.469 2.34-0.135 0.845-0.255 1.679-0.359 2.502-0.105 0.822-0.185 1.544-0.241 2.165-0.03 0.389-0.024 0.877 0.018 1.462 0.058 0.581 0.129 1.178 0.211 1.791 0.096 0.592 0.197 1.122 0.304 1.59 0.103 0.451 0.185 0.741 0.244 0.869 0.166 0.317 0.214 0.569 0.145 0.757s-0.191 0.324-0.366 0.41c-0.173 0.103-0.35 0.18-0.532 0.232zm-4.748-2.258c0.22-0.129 0.411-0.27 0.573-0.424 0.163-0.153 0.353-0.346 0.57-0.579 0.431-0.484 0.728-0.89 0.892-1.217 0.181-0.331 0.299-0.72 0.353-1.167 0.036-0.268-6e-3 -0.487-0.125-0.656-0.103-0.172-0.263-0.325-0.48-0.458-0.214-0.116-0.461-0.13-0.741-0.041-0.283 0.071-0.577 0.311-0.883 0.718-0.333 0.447-0.596 0.942-0.789 1.485s-0.295 1.286-0.306 2.23c-2e-3 0.175 0.079 0.281 0.244 0.32 0.164 0.038 0.395-0.032 0.692-0.211zm12.671-0.276c-0.45 0.383-0.956 0.654-1.519 0.814-0.548 0.14-1.085 0.164-1.608 0.072-0.526-0.109-0.978-0.328-1.355-0.657-0.21-0.187-0.436-0.501-0.677-0.943-0.245-0.459-0.396-1.111-0.452-1.955-0.047-0.793 0.039-1.621 0.258-2.482 0.236-0.865 0.574-1.653 1.013-2.365 0.44-0.712 0.967-1.24 1.582-1.584 0.219-0.129 0.443-0.233 0.673-0.312 0.242-0.099 0.569-0.17 0.979-0.213 0.397-0.024 0.761 0.011 1.093 0.105 0.329 0.077 0.576 0.186 0.743 0.329 0.321 0.218 0.547 0.445 0.68 0.681 0.132 0.236 0.212 0.474 0.24 0.713 0.019 0.554-0.114 1.181-0.399 1.881-0.268 0.697-0.727 1.264-1.375 1.702-0.264 0.172-0.586 0.312-0.967 0.42-0.38 0.108-0.92 0.158-1.619 0.152-0.42-7e-3 -0.681 0.087-0.783 0.281-0.086 0.191-0.074 0.528 0.036 1.013 0.092 0.297 0.21 0.553 0.356 0.769 0.16 0.197 0.399 0.308 0.718 0.334 0.4-6e-3 0.679-0.051 0.838-0.134 0.155-0.099 0.348-0.232 0.578-0.398 0.119-0.11 0.227-0.226 0.326-0.35 0.115-0.127 0.222-0.252 0.32-0.375 0.116-0.127 0.211-0.223 0.285-0.29 0.071-0.083 0.147-0.142 0.228-0.174 0.081-0.033 0.164-0.058 0.248-0.074 0.188-0.018 0.384 0.049 0.588 0.202s0.347 0.309 0.429 0.467c0.026 0.135-0.021 0.344-0.141 0.629-0.123 0.268-0.302 0.563-0.537 0.887-0.221 0.304-0.481 0.589-0.779 0.855zm-1.403-5.566c0.108-0.073 0.254-0.223 0.437-0.45 0.201-0.23 0.374-0.463 0.52-0.701 0.144-0.254 0.204-0.44 0.182-0.558-0.036-0.185-0.192-0.32-0.471-0.407-0.261-0.089-0.577-0.055-0.948 0.103-0.128 0.059-0.27 0.182-0.426 0.369-0.157 0.187-0.308 0.399-0.455 0.636-0.149 0.221-0.274 0.436-0.373 0.647-0.103 0.194-0.169 0.347-0.201 0.457 0.084 0.071 0.231 0.113 0.443 0.125 0.211 0.012 0.435-5e-3 0.671-0.05 0.252-0.048 0.459-0.105 0.621-0.171zm7.46 5.09c-0.538 0.103-1.057 0.08-1.557-0.069-0.485-0.169-0.897-0.404-1.233-0.706-0.34-0.319-0.542-0.647-0.607-0.983-0.029-0.152-0.024-0.266 0.013-0.343 0.055-0.08 0.141-0.132 0.259-0.154 0.087 1e-3 0.196 0.024 0.327 0.068 0.13 0.045 0.263 0.098 0.397 0.16 0.304 0.134 0.621 0.195 0.95 0.185 0.33-0.011 0.613-0.082 0.849-0.215 0.233-0.149 0.347-0.328 0.342-0.536-0.013-0.067-0.073-0.204-0.183-0.41-0.109-0.206-0.233-0.4-0.373-0.583-0.539-0.542-0.913-1.081-1.12-1.617-0.21-0.553-0.386-1.112-0.529-1.678-0.045-0.236 0.014-0.517 0.178-0.845 0.161-0.345 0.374-0.691 0.639-1.038 0.296-0.37 0.628-0.73 0.997-1.08 0.386-0.353 0.772-0.662 1.157-0.927 0.386-0.266 0.718-0.443 0.998-0.531 0.303-0.058 0.626-0.102 0.969-0.133 0.356-0.051 0.603-0.037 0.74 0.042 0.271 0.14 0.548 0.401 0.83 0.783s0.451 0.716 0.506 1.002c0.025 0.135-0.018 0.318-0.131 0.549-0.099 0.21-0.185 0.445-0.258 0.703-0.045 0.131-0.08 0.268-0.105 0.412-0.024 0.145-0.058 0.291-0.099 0.438-0.056 0.255-0.222 0.391-0.498 0.409-0.262-2e-3 -0.523-0.092-0.783-0.269-0.264-0.194-0.425-0.442-0.483-0.745-0.048-0.252-0.014-0.486 0.102-0.7s0.168-0.354 0.155-0.422c-7e-3 -0.033-0.028-0.055-0.065-0.066-0.037-0.01-0.098-7e-3 -0.182 9e-3 -0.118 0.022-0.301 0.11-0.551 0.262-0.237 0.133-0.482 0.31-0.736 0.533s-0.476 0.475-0.667 0.755c-0.132 0.218-0.237 0.447-0.313 0.688-0.062 0.221-0.071 0.45-0.026 0.685 0.045 0.236 0.14 0.506 0.285 0.809 0.159 0.284 0.317 0.515 0.473 0.695 0.04 0.027 0.108 0.11 0.205 0.249 0.109 0.118 0.234 0.269 0.374 0.451 0.867 1.16 1.149 2.092 0.848 2.795-0.285 0.7-0.983 1.155-2.094 1.368zm8.211-1.752c-0.404 0.077-0.798-0.066-1.181-0.428-0.37-0.383-0.646-0.871-0.829-1.464-9e-3 -0.138-0.029-0.335-0.061-0.59-0.014-0.259-0.03-0.526-0.048-0.802 6e-3 -0.333 0.02-0.763 0.041-1.29 0.022-0.527 0.051-1.056 0.09-1.587 0.035-0.547 0.067-1.016 0.097-1.405 0.027-0.406 0.043-0.645 0.047-0.715 0.056-0.255 0.272-0.358 0.648-0.307 0.376 0.05 0.727 0.245 1.053 0.583 0.127 0.116 0.216 0.264 0.268 0.446 0.069 0.179 0.096 0.453 0.079 0.822 0 0.367-0.035 0.914-0.105 1.642-0.057 0.709-0.095 1.283-0.116 1.723-7e-3 0.42 0.042 0.856 0.145 1.307 0.081 0.787 0.115 1.33 0.102 1.629-0.016 0.282-0.093 0.427-0.23 0.436zm0.321-10.919c-0.058 0.064-0.121 0.102-0.188 0.115-0.054-8e-3 -0.156-0.04-0.306-0.099-0.121 6e-3 -0.287-0.041-0.498-0.14-0.197-0.12-0.378-0.242-0.541-0.368-0.147-0.129-0.224-0.21-0.23-0.244-0.049-0.165-0.092-0.436-0.129-0.812-0.02-0.38 6e-3 -0.743 0.08-1.088 0.087-0.366 0.255-0.581 0.504-0.646 0.068-0.013 0.217-7e-3 0.449 0.019 0.248 0.022 0.508 0.06 0.78 0.113 0.183 0.226 0.372 0.53 0.567 0.912 0.195 0.381 0.279 0.775 0.252 1.181-0.014 0.386-0.26 0.739-0.74 1.057zm7.102 14.681c-0.274 0.209-0.663 0.319-1.167 0.328-0.487 6e-3 -0.99-0.073-1.51-0.235-0.499-0.149-0.922-0.356-1.269-0.621-0.184-0.139-0.357-0.316-0.52-0.529s-0.282-0.425-0.357-0.638c-0.073-0.195-0.056-0.338 0.049-0.428 0.132-0.13 0.299-0.214 0.501-0.252 0.219-0.042 0.409-0.052 0.57-0.031 0.178 0.019 0.273 0.061 0.286 0.129 0.217 0.133 0.421 0.242 0.612 0.328 0.211 0.099 0.407 0.166 0.588 0.201 0.255 0.056 0.468 0.033 0.64-0.07 0.193-0.089 0.357-0.234 0.493-0.434 0.099-0.211 0.172-0.469 0.218-0.774 0.067-0.292 0.1-0.621 0.1-0.987l0.013-0.343c0.024-0.877 0.05-1.701 0.077-2.474 0.04-0.793 0.087-1.368 0.14-1.727-0.033 6e-3 -0.074 0.022-0.121 0.049-0.047 0.026-0.093 0.061-0.137 0.105-0.091 0.069-0.183 0.139-0.274 0.209s-0.182 0.139-0.274 0.209c-0.196 0.16-0.372 0.289-0.527 0.389-0.159 0.082-0.302 0.153-0.431 0.213-0.205 0.109-0.361 0.165-0.465 0.167-0.104 3e-3 -0.19 0.01-0.257 0.023-0.168 0.032-0.397 0.024-0.685-0.026-0.292-0.066-0.546-0.166-0.764-0.299-0.18-0.122-0.318-0.253-0.415-0.392-0.099-0.155-0.175-0.324-0.227-0.506-0.052-0.181-0.096-0.365-0.131-0.55-0.049-0.252 1e-3 -0.724 0.148-1.415 0.144-0.708 0.417-1.423 0.82-2.145 0.258-0.381 0.618-0.781 1.079-1.2 0.46-0.42 0.939-0.79 1.436-1.112 0.51-0.341 0.942-0.546 1.295-0.613 0.067-0.013 0.145-0.019 0.232-0.019 0.104-2e-3 0.205 0.022 0.302 0.074 0.299 0.012 0.615 0.117 0.95 0.315 0.331 0.181 0.643 0.444 0.935 0.789 0.186 0.244 0.35 0.509 0.492 0.796 0.159 0.284 0.271 0.594 0.335 0.93 0.052 0.269 0.046 0.515-0.016 0.736-0.049 0.201-0.112 0.327-0.19 0.376-0.027 0.04-0.065 0.074-0.112 0.1-0.05 0.01-0.108 0.029-0.172 0.059-0.033 7e-3 -0.097 0.036-0.192 0.089-0.091 0.07-0.175 0.182-0.25 0.336-0.061 0.134-0.105 0.36-0.132 0.679 0 0.087-1e-3 0.175-2e-3 0.262s-0.01 0.176-0.027 0.267c3e-3 0.017-0.014 0.064-0.052 0.141-0.024 0.056-0.036 0.129-0.037 0.216 5e-3 0.121-9e-3 0.228-0.043 0.322-0.021 0.074-0.04 0.156-0.058 0.247-4e-3 0.07-1e-3 0.131 9e-3 0.181 6e-3 0.034 0.013 0.067 0.019 0.101l-0.048 0.297c-0.018 0.178-0.04 0.339-0.065 0.483-8e-3 0.141-8e-3 0.229-2e-3 0.262l-4e-3 0.524c1e-3 0.192-5e-3 0.385-0.021 0.58 2e-3 0.191 2e-3 0.375 1e-3 0.549-2e-3 0.175-0.012 0.351-0.03 0.529-0.087 1.552-0.252 2.743-0.495 3.574-0.225 0.828-0.512 1.38-0.861 1.656zm-3.36-9.509c0.105 0.364 0.446 0.464 1.026 0.301 0.576-0.18 1.165-0.659 1.766-1.436 0.241-0.29 0.442-0.608 0.603-0.953 0.178-0.348 0.278-0.689 0.301-1.025 0.033-0.286 0.014-0.474-0.055-0.565-0.057-0.112-0.212-0.151-0.468-0.12-0.337 0.064-0.667 0.206-0.992 0.425-0.31 0.199-0.635 0.461-0.974 0.788-0.161 0.344-0.309 0.573-0.444 0.686-0.136 0.113-0.229 0.175-0.279 0.184-0.037-0.01-0.019-5e-3 0.055 0.016-0.021 0.074-0.043 0.139-0.067 0.196l-0.072 0.171c-0.069 0.187-0.143 0.35-0.221 0.487-0.079 0.137-0.14 0.271-0.185 0.401-0.028 0.128-0.026 0.276 6e-3 0.444zm16.84 1.152c-0.376 0.037-0.702 0.021-0.977-0.049-0.261-0.089-0.505-0.313-0.73-0.671-0.119-0.257-0.205-0.528-0.26-0.814-0.041-0.306-0.071-0.597-0.088-0.873-0.021-0.292-0.051-0.539-0.09-0.741-6e-3 -0.034-0.019-0.101-0.038-0.202-0.02-0.101-0.037-0.194-0.053-0.278-0.082-0.246-0.178-0.385-0.289-0.416-0.097-0.051-0.247-0.014-0.45 0.112-0.321 0.236-0.664 0.537-1.03 0.904-0.353 0.346-0.721 0.748-1.105 1.205-0.37 0.437-0.752 0.902-1.146 1.396-0.293 0.475-0.508 0.856-0.644 1.144-0.121 0.284-0.273 0.444-0.458 0.479-0.122 0.093-0.268 0.104-0.439 0.032s-0.353-0.159-0.547-0.262c-0.144-0.112-0.319-0.253-0.526-0.423-0.193-0.19-0.313-0.315-0.359-0.376-0.052-0.269-0.081-0.516-0.09-0.741 9e-3 -0.229 0.033-0.469 0.072-0.721 0.056-0.254 0.122-0.546 0.199-0.875 0.045-0.13 0.081-0.259 0.109-0.387 0.042-0.147 0.09-0.305 0.146-0.472 0.022-0.249 0.063-0.536 0.123-0.861 0.077-0.329 0.148-0.639 0.215-0.931 0.101-0.473 0.172-0.879 0.212-1.218s0.058-0.7 0.054-1.083c-0.023-0.03-0.024-0.082-3e-3 -0.156s0.063-0.125 0.127-0.155l0.025-5e-3 0.026-5e-3c0.101-0.106 0.318-0.157 0.651-0.15 0.346-0.014 0.616 0.03 0.81 0.133 0.412 0.235 0.655 0.598 0.732 1.09 0.076 0.491-0.054 1.178-0.391 2.063-0.066 0.291-0.144 0.568-0.234 0.829-0.076 0.241-0.106 0.404-0.09 0.488 0 0 0.058-0.063 0.173-0.19 0.115-0.126 0.253-0.275 0.412-0.445 0.156-0.187 0.294-0.335 0.412-0.445 0.068-0.1 0.225-0.287 0.469-0.56 0.241-0.29 0.506-0.594 0.794-0.911 0.288-0.316 0.521-0.561 0.697-0.734 0.159-0.17 0.369-0.35 0.629-0.539 0.258-0.206 0.42-0.316 0.487-0.329 0.168-0.032 0.381-0.012 0.64 0.061 0.275 0.07 0.529 0.169 0.763 0.299 0.248 0.11 0.401 0.229 0.461 0.357 0.013 0.067 0.022 0.161 0.027 0.282 3e-3 0.105 0.012 0.199 0.028 0.283 0.035 0.272 0.089 0.602 0.163 0.989 0.088 0.367 0.168 0.744 0.242 1.131 0.071 0.37 0.102 0.713 0.092 1.029 0 0 0.012 0.015 0.035 0.046 0.02 0.013 0.043 0.044 0.07 0.091-0.014 0.02-0.016 0.055-6e-3 0.106 0.023 0.03 0.035 0.045 0.035 0.045 0.056 0.112 0.112 0.223 0.168 0.335 0.073 0.108 0.158 0.231 0.254 0.37 0.093 0.121 0.203 0.284 0.329 0.486 0.025 0.222-0.06 0.465-0.254 0.729-0.18 0.244-0.375 0.412-0.584 0.504zm4.57-0.454c-0.074-0.021-0.209-0.091-0.406-0.211-0.181-0.122-0.364-0.261-0.551-0.418-0.19-0.173-0.32-0.305-0.39-0.396-0.066-0.075-0.095-0.226-0.087-0.454 0.026-0.232 0.072-0.354 0.14-0.367 0.057 0.024 0.113-0.048 0.168-0.215 0.055-0.168 0.109-0.344 0.161-0.528 0.048-0.201 0.07-0.319 0.063-0.352 4e-3 -0.071 0.037-0.13 0.097-0.176 0.075-0.067 0.141-0.132 0.199-0.195 0.058-0.151 0.142-0.306 0.251-0.466 0.122-0.181 0.216-0.33 0.281-0.447 0.102-0.194 0.298-0.493 0.587-0.897s0.568-0.815 0.837-1.232c0.28-0.455 0.527-0.851 0.741-1.188 0.212-0.355 0.315-0.592 0.309-0.713 0 0 0.02-0.03 0.061-0.091 0.055-0.08 0.119-0.153 0.194-0.22 0.074-0.066 0.167-0.171 0.279-0.315 0.129-0.146 0.235-0.28 0.316-0.4 8e-3 -0.141 0.055-0.307 0.141-0.498 0.099-0.211 0.217-0.416 0.353-0.617 0.096-0.227 0.18-0.47 0.253-0.728 0.07-0.275 0.11-0.475 0.121-0.599 0.015-0.195-0.022-0.301-0.113-0.319-0.094-0.034-0.337-0.0748-0.73-0.1218-0.429-0.0575-0.813-0.0104-1.15 0.1408-0.337 0.152-0.76 0.495-1.269 1.028-0.226 0.095-0.432 0.204-0.618 0.327-0.169 0.12-0.322 0.184-0.46 0.193-0.074-0.021-0.164-0.082-0.27-0.184-0.107-0.102-0.221-0.194-0.341-0.275l-0.46-1.037 0.701-0.579c0.606-0.5693 1.2-1.0228 1.781-1.3606 0.594-0.3577 1.141-0.5058 1.642-0.4444 0.185-0.0354 0.358-0.0423 0.519-0.0207 0.158 0.0047 0.237 0.0071 0.237 0.0071 0.131-0.0426 0.337-0.0122 0.619 0.091 0.298 0.1 0.596 0.2437 0.893 0.4311 0.314 0.1841 0.545 0.3843 0.691 0.6006 0.346 0.3525 0.54 0.8212 0.582 1.4059 0.042 0.585-0.088 1.229-0.39 1.932-0.064 0.117-0.209 0.363-0.434 0.737-0.225 0.375-0.484 0.799-0.777 1.274-0.28 0.454-0.542 0.862-0.787 1.223-0.228 0.357-0.376 0.586-0.445 0.686-0.108 0.073-0.279 0.272-0.514 0.596-0.217 0.32-0.454 0.68-0.71 1.077-0.241 0.378-0.448 0.714-0.618 1.008-0.157 0.274-0.219 0.408-0.185 0.402-4e-3 0.07 0.08 0.054 0.252-0.049 0.186-0.122 0.35-0.223 0.492-0.303 0.236-0.132 0.516-0.264 0.84-0.396 0.337-0.152 0.678-0.286 1.022-0.404 0.343-0.118 0.64-0.21 0.889-0.275 0.266-0.068 0.429-0.082 0.489-0.041 0.05 0.078 0.082 0.107 0.095 0.086 0.027-0.04 0.041-0.06 0.041-0.06 0.011-0.124 0.215-0.198 0.612-0.221 0.413-0.027 0.79-0.02 1.129 0.02 0.194 0.015 0.35 0.055 0.467 0.12 0.134 0.061 0.207 0.126 0.22 0.193l0.075 0.117c0.063 0.057 0.157 0.135 0.28 0.234 0.311 0.167 0.356 0.403 0.135 0.707-0.204 0.3-0.654 0.456-1.35 0.467-0.437 0.083-0.794 0.178-1.07 0.283-0.061 0.046-0.201 0.091-0.42 0.132-0.219 0.042-0.427 0.091-0.626 0.146-0.309 0.024-0.609 0.099-0.899 0.224-0.293 0.109-0.638 0.27-1.033 0.485-0.141 0.08-0.362 0.2-0.663 0.362-0.3 0.162-0.626 0.329-0.977 0.501s-0.673 0.312-0.966 0.42c-0.277 0.105-0.459 0.157-0.546 0.157zm11.46-2.765c-0.253 0.048-0.541-0.089-0.864-0.411-0.326-0.339-0.618-0.771-0.876-1.298-0.24-0.529-0.395-1.066-0.464-1.611-0.103-0.539-0.16-0.973-0.171-1.302 3e-3 -0.35 8e-3 -0.691 0.014-1.023 0.031-0.111 0.041-0.2 0.028-0.267 4e-3 -0.071 0-0.183-0.012-0.338 4e-3 -0.158 0.015-0.421 0.032-0.791 0.012-0.299 0.035-0.547 0.066-0.745 0.049-0.201 0.092-0.34 0.13-0.417 0.151-0.308 0.347-0.511 0.59-0.61 0.24-0.116 0.472-0.134 0.696-0.055 0.241 0.076 0.401 0.229 0.48 0.458 0.117 0.065 0.204 0.249 0.262 0.552 0.072 0.283 0.113 0.589 0.123 0.918 8e-3 0.313-0.026 0.546-0.101 0.7-0.018 0.09-0.018 0.317-1e-3 0.68 0.034 0.36 0.062 0.738 0.086 1.135 0.04 0.393 0.057 0.713 0.052 0.958 7e-3 0.313 0.061 0.503 0.161 0.571 0.114 0.048 0.268-0.06 0.462-0.324 0.207-0.284 0.456-0.759 0.748-1.425 0.24-0.569 0.408-1.011 0.505-1.326 0.114-0.318 0.19-0.603 0.229-0.855 0.056-0.255 0.113-0.553 0.169-0.895 0.033-0.286 0.067-0.519 0.102-0.7 0.052-0.184 0.105-0.317 0.16-0.397 0.133-0.304 0.357-0.46 0.669-0.468 0.326-0.0271 0.603 7e-3 0.831 0.103 0.24 0.164 0.411 0.419 0.512 0.766 0.115 0.327 0.11 0.711-0.015 1.154-0.083 0.295-0.156 0.64-0.22 1.036-0.047 0.393-0.078 0.782-0.091 1.169 3e-3 0.383 0.031 0.709 0.082 0.978 0.065 0.337 0.145 0.53 0.242 0.582 0.111 0.031 0.233 0.034 0.368 8e-3 0.202-0.039 0.383-0.143 0.542-0.313 0.156-0.187 0.376-0.499 0.658-0.937 0.123-0.18 0.264-0.443 0.425-0.787 0.161-0.345 0.311-0.705 0.448-1.08 0.155-0.378 0.275-0.707 0.361-0.985 0.1-0.298 0.144-0.481 0.131-0.548-0.019-0.101 0.029-0.258 0.145-0.473 0.076-0.153 0.132-0.269 0.17-0.346 0.051-0.097 0.153-0.203 0.305-0.32 0.122-0.0928 0.271-0.1301 0.449-0.1118 0.175 0.0015 0.334 0.0583 0.478 0.1708 0.097 0.051 0.188 0.208 0.273 0.471 0.099 0.243 0.167 0.465 0.206 0.667-0.015 0.195-0.041 0.47-0.078 0.826-0.04 0.339-0.09 0.671-0.15 0.996-0.046 0.306-0.102 0.517-0.166 0.634-0.055 0.08-0.149 0.229-0.281 0.446-0.137 0.2-0.253 0.414-0.349 0.642-0.324 0.585-0.564 0.971-0.72 1.158-0.157 0.187-0.289 0.361-0.398 0.521-0.286 0.421-0.635 0.784-1.048 1.09-0.415 0.288-0.822 0.488-1.219 0.599-0.401 0.094-0.735 0.079-1.003-0.044-0.573-0.17-0.921-0.574-1.043-1.214-0.026-0.134-0.073-0.247-0.143-0.339-0.056-0.111-0.084-0.167-0.084-0.167-0.068 0.013-0.157 0.048-0.268 0.104-0.095 0.053-0.182 0.192-0.261 0.416-0.097 0.315-0.301 0.659-0.614 1.033-0.298 0.353-0.614 0.667-0.945 0.939-0.335 0.256-0.603 0.403-0.805 0.442zm16.192-2.832c-0.45 0.383-0.956 0.654-1.519 0.814-0.549 0.139-1.085 0.163-1.608 0.071-0.527-0.108-0.978-0.327-1.355-0.656-0.21-0.187-0.436-0.502-0.677-0.944-0.245-0.459-0.396-1.11-0.452-1.954-0.047-0.793 0.039-1.621 0.258-2.483 0.236-0.864 0.574-1.6528 1.013-2.3647 0.44-0.7119 0.967-1.2399 1.581-1.584 0.22-0.1291 0.444-0.233 0.673-0.3117 0.243-0.0987 0.57-0.1698 0.98-0.2133 0.397-0.0234 0.761 0.0116 1.093 0.1052 0.328 0.0768 0.576 0.1864 0.743 0.329 0.321 0.2178 0.547 0.4449 0.679 0.6812 0.133 0.2363 0.213 0.4739 0.241 0.7127 0.019 0.5546-0.114 1.1817-0.399 1.8816-0.268 0.696-0.727 1.264-1.376 1.702-0.263 0.172-0.585 0.312-0.966 0.42-0.38 0.107-0.92 0.158-1.619 0.152-0.42-7e-3 -0.681 0.087-0.784 0.281-0.085 0.19-0.073 0.528 0.037 1.013 0.092 0.296 0.21 0.553 0.356 0.769 0.16 0.196 0.399 0.308 0.718 0.334 0.4-7e-3 0.679-0.051 0.838-0.134 0.155-0.1 0.348-0.232 0.578-0.398 0.118-0.11 0.227-0.227 0.325-0.35 0.116-0.127 0.223-0.252 0.321-0.375 0.116-0.127 0.21-0.224 0.285-0.29 0.071-0.084 0.147-0.142 0.228-0.175s0.164-0.057 0.248-0.073c0.188-0.019 0.384 0.048 0.588 0.201 0.203 0.153 0.347 0.309 0.429 0.468 0.026 0.134-0.021 0.344-0.141 0.629-0.124 0.267-0.303 0.563-0.537 0.887-0.221 0.304-0.481 0.589-0.779 0.855zm-1.403-5.566c0.108-0.073 0.254-0.223 0.437-0.45 0.2-0.23 0.374-0.4637 0.52-0.701 0.144-0.2541 0.204-0.44 0.182-0.5578-0.036-0.1851-0.193-0.3209-0.471-0.4073-0.261-0.0896-0.577-0.0554-0.948 0.1027-0.128 0.0594-0.27 0.1825-0.427 0.3693-0.156 0.1868-0.307 0.3988-0.454 0.6361-0.149 0.22-0.274 0.436-0.373 0.647-0.103 0.194-0.17 0.346-0.201 0.457 0.084 0.071 0.231 0.113 0.443 0.125 0.211 0.012 0.435-5e-3 0.67-0.05 0.253-0.048 0.46-0.105 0.622-0.171zm7.389 4.58c-0.209 0.092-0.502 0.113-0.878 0.063-0.379-0.067-0.754-0.161-1.126-0.282-0.358-0.141-0.608-0.259-0.748-0.354-0.144-0.113-0.2-0.224-0.169-0.335 0.028-0.127 0.101-0.202 0.219-0.224 0.067-0.013 0.164-0.102 0.29-0.265 0.122-0.18 0.163-0.467 0.123-0.861-0.011-0.242-8e-3 -0.452 0.011-0.63 0.031-0.198 0.041-0.33 0.028-0.398 7e-3 -0.053-2e-3 -0.191-0.027-0.413-0.011-0.242 1e-3 -0.454 0.036-0.635 0.01-0.316 0.037-0.722 0.081-1.2189 0.042-0.5137 0.086-1.0106 0.134-1.4907 0.062-0.5001 0.11-0.8844 0.146-1.1528-2e-3 -0.1916 0.029-0.4416 0.092-0.7502s0.121-0.555 0.173-0.7394c0.078-0.5033 0.196-1.1189 0.354-1.8466 0.174-0.731 0.357-1.4636 0.548-2.1977 0.188-0.7511 0.354-1.3847 0.5-1.9008 0.159-0.5363 0.263-0.8613 0.311-0.9751 0.109-0.1603 0.318-0.2526 0.627-0.2768 0.31-0.0242 0.574 0.0385 0.795 0.1883 0.187 0.1562 0.367 0.3223 0.54 0.4986 0.173 0.1762 0.181 0.4014 0.024 0.6755-0.044 0.1307-0.118 0.3367-0.222 0.618-0.106 0.2645-0.19 0.4637-0.252 0.5976-0.057 0.4296-0.15 0.8572-0.278 1.2828-0.111 0.4224-0.23 0.8985-0.355 1.4283-0.129 0.5129-0.252 1.1469-0.369 1.9019-0.091 0.3487-0.156 0.6925-0.196 1.0315-0.043 0.3222-0.09 0.5318-0.141 0.6288-0.03 0.3895-0.087 0.688-0.169 0.8956-0.066 0.2044-0.094 0.515-0.084 0.9317l0.204-0.3006c0.153-0.2037 0.332-0.4558 0.536-0.7564 0.521-0.8322 1.007-1.4832 1.458-1.953 0.451-0.4699 0.894-0.755 1.328-0.8554 0.233-0.0619 0.496-0.0512 0.791 0.032 0.312 0.08 0.605 0.1984 0.879 0.3553 0.271 0.1401 0.47 0.3115 0.595 0.5142 0.193 0.2772 0.336 0.6598 0.429 1.1478 0.09 0.4712 0.108 0.9736 0.053 1.5074-0.039 0.5305-0.172 1.0183-0.401 1.4631-0.124 0.355-0.292 0.71-0.503 1.064-0.198 0.334-0.377 0.587-0.536 0.757-0.139 0.183-0.279 0.367-0.418 0.55-0.126 0.164-0.231 0.297-0.316 0.401-0.19 0.193-0.344 0.345-0.463 0.455-0.121 0.093-0.292 0.204-0.511 0.333-0.306 0.32-0.758 0.598-1.358 0.835-0.601 0.236-1.195 0.455-1.785 0.655zm0.264-2.039c0.118-0.023 0.324-0.088 0.617-0.197 0.31-0.111 0.58-0.294 0.811-0.547 0.714-0.555 1.26-1.121 1.638-1.699 0.394-0.582 0.646-1.1355 0.755-1.6621 0.109-0.5265 0.109-0.9801 2e-3 -1.3607-0.108-0.3807-0.341-0.4583-0.699-0.2329-0.344 0.2054-0.837 0.779-1.476 1.721-0.306 0.4073-0.565 0.7877-0.776 1.1427-0.212 0.354-0.428 0.727-0.65 1.118-0.083 0.208-0.171 0.382-0.267 0.522-0.081 0.12-0.118 0.249-0.109 0.387-0.015 0.561 0.037 0.83 0.154 0.808zm10.012 3.607c-0.088 0.087-0.339 0.048-0.755-0.117-0.395-0.151-0.736-0.339-1.023-0.563-0.143-0.112-0.247-0.241-0.309-0.386-0.063-0.145-0.109-0.433-0.139-0.863 0.032-0.198 0.032-0.381 0-0.549-0.015-0.172-0.03-0.291-0.042-0.358-0.02-0.101-0.039-0.342-0.06-0.722-3e-3 -0.383-0.01-0.783-0.02-1.199-0.013-0.434-0.015-0.765-6e-3 -0.993-3e-3 -0.017-3e-3 -0.061 1e-3 -0.131 4e-3 -0.071 0.01-0.133 0.017-0.187 4e-3 -0.158 8e-3 -0.368 0.01-0.63 0.019-0.265 0.019-0.5874-1e-3 -0.9673 0.054-0.4464 0.084-0.8796 0.091-1.2995 0.021-0.44 0.017-0.7357-0.012-0.8871-0.058-0.3029 0.018-0.5442 0.228-0.7238 1e-3 -0.0874 0.027-0.2232 0.079-0.4076 0.049-0.2012 0.096-0.3671 0.14-0.4977 0.154-1.0235 0.287-1.8338 0.399-2.4309 0.11-0.6139 0.242-1.1537 0.397-1.6194 0.047-0.3054 0.1-0.6208 0.16-0.9462 0.077-0.3286 0.166-0.5899 0.269-0.7839 0.042-0.2348 0.182-0.5494 0.421-0.9439 0.235-0.4112 0.491-0.8088 0.766-1.1929 0.273-0.4008 0.494-0.7046 0.663-0.9115 0.335-0.2558 0.66-0.4748 0.974-0.6569 0.327-0.2021 0.668-0.3369 1.021-0.4044 0.32-0.0611 0.642-0.018 0.967 0.1293 0.341 0.144 0.641 0.2962 0.898 0.4563 0.284 0.2074 0.451 0.35 0.5 0.4277 0.05 0.0777 0.097 0.2343 0.142 0.4699-1e-3 0.1747-0.055 0.438-0.163 0.7899-0.11 0.335-0.242 0.6917-0.397 1.0701-0.154 0.3783-0.3 0.7114-0.437 0.9991-0.14 0.271-0.244 0.4129-0.311 0.4258-0.365 0.1917-0.597 0.0267-0.696-0.4949-0.023-0.1178-0.111-0.2143-0.265-0.2896-0.14-0.0953-0.21-0.1429-0.21-0.1429-0.01-0.0505-0.018-0.1363-0.023-0.2573 8e-3 -0.141 0.034-0.2769 0.079-0.4075 0.052-0.1844 0.043-0.3659-0.026-0.5446-0.072-0.1955-0.196-0.2503-0.371-0.1644-0.044 0.0433-0.131 0.1383-0.26 0.285-0.132 0.1299-0.269 0.2782-0.412 0.445-0.126 0.1635-0.235 0.3239-0.327 0.481-0.095 0.1403-0.138 0.2357-0.128 0.2862 0 0-0.019 0.0821-0.058 0.2464-0.041 0.1475-0.134 0.3483-0.277 0.6024-0.086 0.1908-0.163 0.38-0.232 0.5676-0.055 0.1675-0.079 0.2681-0.073 0.3017 0.013 0.0673 0.019 0.1447 0.018 0.232 0.013 0.0673-0.022 0.109-0.107 0.1251 0 0-0.01 0.0805-0.032 0.2416s-0.077 0.3723-0.167 0.6336c-0.035 0.1812-0.085 0.3739-0.151 0.5783-0.069 0.1876-0.13 0.3214-0.185 0.4016l0.025-0.0048s-0.022 0.109-0.068 0.327c-0.032 0.198-0.071 0.406-0.116 0.624-0.046 0.218-0.065 0.3438-0.059 0.3774 0.013 0.0674 0.12 0.0817 0.322 0.0431 0.202-0.0385 0.441-0.1104 0.718-0.2155 0.273-0.122 0.538-0.2423 0.794-0.3611 0.223-0.1123 0.376-0.1765 0.461-0.1926 0.084-0.016 0.258-0.0145 0.524 0.0046 0.15 0.0584 0.29 0.1974 0.419 0.4169 0.143 0.1994 0.252 0.4053 0.328 0.6177 0.089 0.1923 0.115 0.3269 0.077 0.4038-4e-3 0.0706-0.171 0.1985-0.502 0.3838s-0.667 0.3453-1.007 0.4802c-0.29 0.1251-0.621 0.2668-0.992 0.4248-0.371 0.1581-0.693 0.2981-0.966 0.4201s-0.405 0.2082-0.396 0.2587c-0.067 0.0128-0.118 0.0661-0.152 0.1599-0.038 0.077-0.052 0.1407-0.042 0.1912 0.045 0.2356 0.045 0.4187 0 0.5493-0.014 0.1074-0.033 0.329-0.056 0.6648-6e-3 0.3326-0.016 0.692-0.029 1.0783-0.014 0.386-0.024 0.746-0.03 1.078 0.011 0.33 0.026 0.545 0.045 0.646-0.079 0.137-0.109 0.3-0.09 0.488 0.015 0.171 0.036 0.324 0.062 0.459-0.042 0.148-0.06 0.282-0.054 0.403 2e-3 0.104 0.01 0.19 0.023 0.257 3e-3 0.017 9e-3 0.051 0.019 0.101 0.01 0.051 0.011 0.103 4e-3 0.156 0.015 0.172 0.032 0.395 0.049 0.671 0.038 0.289 0.083 0.569 0.134 0.838l0.064 0.746c0.025 0.222 0.035 0.412 0.031 0.57-2e-3 0.175-0.037 0.312-0.105 0.412zm6.175-3.56c-0.235-0.042-0.446-0.141-0.633-0.298-0.166-0.142-0.29-0.38-0.372-0.714-0.041-0.218-0.086-0.541-0.132-0.968-0.05-0.444-0.083-0.891-0.1-1.342-6e-3 -0.033-0.012-0.067-0.019-0.101 7e-3 -0.053 9e-3 -0.0887 6e-3 -0.1056 4e-3 -0.0705 2e-3 -0.1747-7e-3 -0.3125-0.012-0.1547-0.018-0.2757-0.017-0.363 0.014-0.1074 0.029-0.1191 0.045-0.0349l0.022-0.7105c0.026-0.3189 0.051-0.6463 0.074-0.9821s0.045-0.6279 0.068-0.8764c0.019-0.2653 0.033-0.4163 0.044-0.4532l0.048-0.297c0.029-0.2147 0.057-0.4295 0.086-0.6443 0.109-0.8928 0.228-1.6394 0.357-2.2397 0.146-0.6036 0.288-1.0492 0.425-1.337 7e-3 -0.0537 0.021-0.1174 0.042-0.1912 0.017-0.0905 0.03-0.1627 0.037-0.2163-0.035-0.1852-0.053-0.3214-0.052-0.4087 0.018-0.0906 0.045-0.1744 0.083-0.2513 0.021-0.0738 0.055-0.1675 0.103-0.2814 0.045-0.1306 0.093-0.2881 0.145-0.4725l0.023-0.2921c0.059-0.238 0.137-0.5146 0.234-0.8296 0.094-0.3318 0.16-0.5799 0.198-0.7442 0.021-0.1611 0.089-0.357 0.202-0.5879 0.109-0.2477 0.25-0.4229 0.422-0.5256l-0.03-0.0204c0.056-0.1675 0.193-0.3158 0.412-0.445 0.217-0.1459 0.401-0.2334 0.552-0.2623 0.236-0.045 0.425-0.0115 0.569 0.1006 0.16 0.1089 0.263 0.2812 0.308 0.5168 0.048 0.2524 0.075 0.4391 0.081 0.5601 0.019 0.101-0.018 0.23-0.11 0.3872l0.026-0.0049c0.027-0.0401 0.028 0.012 3e-3 0.1563-0.024 0.1443-0.049 0.2449-0.073 0.3018-0.017 0.0905-0.042 0.1911-0.073 0.3017-0.014 0.1074-0.042 0.1912-0.083 0.2513-0.037 0.077-0.127 0.3383-0.269 0.7839-0.128 0.4256-0.283 0.935-0.467 1.5282-0.169 0.573-0.323 1.1345-0.463 1.6843-0.142 0.533-0.238 0.9438-0.287 1.2323l-0.054 0.4028c-4e-3 0.0705-3e-3 0.1226 3e-3 0.1563-0.028 0.1274-0.056 0.2548-0.084 0.3823-0.028 0.1274-0.059 0.238-0.093 0.3318l-0.13 1.6469v0.5494l-0.116 0.624-0.06 0.5085c-0.014 0.1074-0.019 0.2216-0.013 0.3426 0.022 0.1178 0.013 0.2067-0.028 0.2669 4e-3 0.0168 0 0.0436-0.01 0.0805 3e-3 0.0168 6e-3 0.0337 9e-3 0.0505-0.016 0.2821-0.061 0.6836-0.136 1.2036s-0.073 1.078 6e-3 1.673c3e-3 0.017-2e-3 0.035-0.016 0.055 3e-3 0.017 6e-3 0.034 0.01 0.051 0.017 0.363-0.033 0.651-0.149 0.865-0.113 0.231-0.302 0.337-0.567 0.318zm6.404-2.217c-0.341 0.134-0.613 0.169-0.818 0.103-0.191-0.085-0.395-0.195-0.612-0.327-0.295-0.084-0.574-0.222-0.838-0.416-0.267-0.211-0.485-0.439-0.654-0.6859-0.169-0.2468-0.26-0.4475-0.272-0.6022-0.062-0.5986-0.05-1.2637 0.037-1.9955 0.104-0.7349 0.27-1.4643 0.498-2.188 0.245-0.7271 0.546-1.3864 0.904-1.978 0.371-0.6117 0.804-1.0867 1.297-1.4252 0.311-0.1989 0.663-0.3185 1.057-0.3588 0.393-0.0403 0.685 0.0698 0.874 0.3301 0.346 0.4398 0.346 0.7624 2e-3 0.9677-0.051 0.0097-0.105 0.0462-0.162 0.1095-0.061 0.0465-0.085 0.1034-0.073 0.1707 0.074 0.0208 0.261-0.0061 0.561-0.0808 0.296-0.0915 0.589-0.1999 0.879-0.325 0.304-0.1453 0.498-0.2696 0.583-0.373 0.092-0.0698 0.162-0.1095 0.213-0.1191 0.05-0.0097 0.18-0.017 0.388-0.0219 0.302 0.0295 0.465 0.1032 0.487 0.2209 0.013 0.0674 0.059 0.1719 0.139 0.3137 0.076 0.125 0.148 0.1811 0.215 0.1682 0.121-0.0057 0.169 0.1073 0.143 0.3389-9e-3 0.2284-0.159 0.4926-0.45 0.7924-0.281 0.2631-0.458 0.4362-0.529 0.5196-0.058 0.0634-0.044 0.1828 0.042 0.3582 0.196 0.294 0.262 0.6827 0.197 1.166-0.065 0.4832-0.227 1.0026-0.487 1.5581-0.26 0.5556-0.593 1.0987-0.997 1.6294-0.391 0.5107-0.818 0.967-1.282 1.37-0.45 0.382-0.898 0.642-1.342 0.78zm-0.33-2.1352c0.068-0.0128 0.179-0.069 0.334-0.1684 0.153-0.1163 0.274-0.2093 0.366-0.2791 0.054-0.0802 0.124-0.172 0.209-0.2754 0.098-0.1235 0.179-0.2001 0.244-0.2297 0.067-0.0129 0.104-0.0462 0.111-0.0999 4e-3 -0.0705 0.039-0.208 0.105-0.4123 0.062-0.2213 0.208-0.5543 0.437-0.9992 0.266-0.4345 0.428-0.7708 0.487-1.0089 0.056-0.2548 0.016-0.5089-0.119-0.762-0.03-0.0641-0.088-0.0965-0.176-0.0973-0.07-4e-3 -0.171-0.0284-0.302-0.0732-0.168 0.0322-0.278 0.0968-0.329 0.1938-0.037 0.0769-0.163 0.0573-0.377-0.0587l-0.501-0.4277-0.347 0.5111c-0.218 0.3206-0.397 0.7038-0.539 1.1495-0.125 0.4424-0.206 0.8852-0.243 1.3284-0.038 0.4432-0.043 0.8279-0.015 1.154 0.031 0.2557 0.105 0.4159 0.222 0.4807 0.118 0.0649 0.262 0.0897 0.433 0.0743zm14.519-0.7329c-0.131 0.0425-0.39 0.0134-0.775-0.0873-0.369-0.104-0.675-0.2461-0.919-0.4263-0.196-0.2066-0.377-0.4686-0.542-0.7859-0.149-0.3204-0.294-0.7635-0.437-1.3293-0.347 0.8337-0.662 1.4694-0.944 1.9071-0.283 0.4377-0.551 0.768-0.805 0.9909-0.24 0.2029-0.487 0.3722-0.74 0.5077-0.142 0.0794-0.357 0.0507-0.645-0.0862-0.287-0.1369-0.476-0.2578-0.566-0.3627s-0.201-0.2756-0.333-0.5119c-0.119-0.2564-0.197-0.5292-0.235-0.8185-0.101-0.347-0.212-0.7444-0.333-1.1923-0.103-0.4512-0.205-0.8939-0.306-1.3282-0.086-0.4543-0.155-0.8598-0.206-1.2164s-0.062-0.5986-0.034-0.726c-0.03-0.0641-0.051-0.1298-0.064-0.1972-0.013-0.0673-0.019-0.1009-0.019-0.1009-0.067-0.0745-0.127-0.2548-0.182-0.5409-0.058-0.3029-0.097-0.6006-0.118-0.8931-4e-3 -0.2957-4e-3 -0.4788 0-0.5493 0.02-0.0738 0.139-0.1836 0.355-0.3296 0.23-0.166 0.386-0.2655 0.467-0.2984 0.262 0.0023 0.415 0.0775 0.461 0.2258 0.057 0.024 0.117 0.0648 0.181 0.1225 0.06 0.0408 0.122 0.0464 0.186 0.0167 0.057 0.024 0.161 0.2047 0.313 0.542 0.165 0.3173 0.281 0.6526 0.349 1.006 0.015 0.1715 0.046 0.3313 0.092 0.4796 0.045 0.1482 0.063 0.2844 0.051 0.4087 0.017 0.0841 0.06 0.2676 0.132 0.5504 0.068 0.2661 0.138 0.5405 0.209 0.8234 0.042 0.2187 0.077 0.4475 0.105 0.6863 0.029 0.2388 0.065 0.476 0.11 0.7116 0.115 0.3269 0.165 0.5441 0.151 0.6515-0.018 0.0905 0.017 0.0925 0.106 0.0059 0.094-0.0529 0.208-0.2317 0.342-0.5363 0.13-0.3214 0.314-0.8188 0.552-1.4921 0.192-0.4553 0.328-0.8389 0.408-1.1506 0.094-0.3319 0.192-0.5948 0.294-0.7888-0.026-0.4135-0.045-0.7849-0.056-1.1143 7e-3 -0.3326 5e-3 -0.5678-4e-3 -0.7056 0.191-0.2806 0.428-0.5003 0.712-0.6592 0.3-0.162 0.532-0.1365 0.694 0.0766 0.182 0.0352 0.376 0.1376 0.582 0.3074 0.207 0.1698 0.312 0.3505 0.313 0.542-0.022 0.2484-0.046 0.4885-0.071 0.7201-9e-3 0.2284-0.025 0.4668-0.047 0.7153-0.022 0.2484-0.018 0.5878 0.011 1.0181 0.03 0.4304 0.077 0.8575 0.141 1.2814 0.077 0.4039 0.173 0.7256 0.289 0.9651 0.045 0.1483 0.115 0.2396 0.209 0.274 0.09 0.0176 0.241-0.1071 0.452-0.3741 0.201-0.3175 0.387-0.667 0.558-1.0485 0.171-0.3816 0.307-0.7215 0.407-1.0196 0.114-0.3182 0.162-0.5194 0.146-0.6036-0.025-0.1346-0.019-0.284 0.019-0.4484 0.036-0.1811 0.096-0.3234 0.18-0.4268 0.065-0.117 0.096-0.2276 0.094-0.3318-6e-3 -0.121 5e-3 -0.2453 0.033-0.3727 0.011-0.0369 0.026-0.0922 0.047-0.1659s0.033-0.1459 0.037-0.2164c-0.073-0.1082-0.058-0.2156 0.044-0.3222 0.115-0.1267 0.18-0.2437 0.194-0.3511-8e-3 -0.2252 0.103-0.4208 0.333-0.5868 0.246-0.1692 0.504-0.2359 0.773-0.2 0.285 0.0327 0.476 0.2578 0.573 0.6753 0.039 0.2019 0.062 0.5028 0.068 0.9027 7e-3 0.3999-0.024 0.8331-0.092 1.2996-0.068 0.4664-0.194 0.9004-0.379 1.302-0.041 0.1475-0.083 0.295-0.125 0.4425-0.024 0.1442-0.083 0.3386-0.176 0.5831s-0.267 0.6092-0.524 1.0942c-0.075 0.1539-0.165 0.3194-0.271 0.4966-0.092 0.1571-0.194 0.3074-0.306 0.4509-0.216 0.4249-0.468 0.8394-0.757 1.2434-0.275 0.384-0.529 0.607-0.762 0.6688zm13.308-2.0714c-0.345-0.0735-0.682-0.1923-1.01-0.3564-0.331-0.181-0.553-0.3391-0.666-0.4745-0.029-0.1515-0.023-0.2572 0.018-0.3174 0.038-0.0769 0.176-0.1295 0.415-0.1577 0.252-0.0482 0.662-0.0917 1.231-0.1305 0.201-0.0385 0.451-0.1036 0.747-0.1951 0.297-0.0915 0.565-0.195 0.804-0.3106 0.257-0.1187 0.392-0.2318 0.406-0.3392 0.084-0.0161 0.096-0.0445 0.036-0.0854-0.063-0.0576-0.135-0.1137-0.215-0.1681-0.067 0.0128-0.148 2e-3 -0.242-0.0324-0.097-0.0512-0.179-0.0704-0.246-0.0575-0.016-0.0842-0.118-0.1606-0.306-0.2295-0.173-0.0888-0.351-0.1508-0.532-0.186-0.428-0.2322-0.799-0.4403-1.114-0.6245-0.317-0.201-0.45-0.35-0.399-0.447-0.013-0.0673-0.019-0.1009-0.019-0.1009-3e-3 -0.0169-5e-3 -0.0253-5e-3 -0.0253-0.118 0.0225-0.285-0.12-0.5-0.4277-0.199-0.3108-0.324-0.6008-0.376-0.8701-0.038-0.2019-0.028-0.4656 0.032-0.791 0.057-0.3422 0.154-0.7009 0.292-1.076 0.137-0.3751 0.295-0.693 0.472-0.9535 0.248-0.344 0.569-0.7192 0.962-1.1257 0.39-0.4234 0.78-0.803 1.169-1.139 0.403-0.3561 0.748-0.6051 1.034-0.7471 0.281-0.1756 0.547-0.2876 0.8-0.3358 0.269-0.0514 0.516-0.0375 0.74 0.0417 0.185 0.052 0.36 0.1492 0.527 0.2918 0.18 0.1225 0.337 0.2583 0.47 0.4073 0.147 0.1289 0.248 0.2491 0.304 0.3604 0.039 0.202 0.066 0.4323 0.08 0.6912 0.012 0.242 1e-3 0.462-0.031 0.66-0.015 0.1947-0.081 0.3033-0.199 0.3258 0 0-0.024 0.0133-0.071 0.0397-0.034 0.0065-0.042 0.0518-0.026 0.1359 0.032 0.1683-0.057 0.3859-0.268 0.6529-0.278 0.2798-0.53 0.4675-0.756 0.563-0.229 0.0786-0.39 0.0134-0.482-0.1957-0.063-0.0577-0.108-0.1101-0.135-0.1574-0.026-0.0473-0.073-0.0645-0.14-0.0516 0 0-0.031-0.0205-0.091-0.0613s-0.101-0.1201-0.124-0.2379c-0.012-0.0674 2e-3 -0.1311 0.042-0.1912 0.038-0.077 0.057-0.1154 0.057-0.1154 0.084-0.0161 0.176-0.1295 0.275-0.3404 0.096-0.2276 0.174-0.4605 0.233-0.6985 0.073-0.2581 0.101-0.4292 0.085-0.5134-0.019-0.1009-0.048-0.1566-0.084-0.167-0.02-0.0136-0.098-0.0076-0.232 0.0182-0.217 0.1459-0.477 0.3352-0.781 0.5678-0.305 0.2325-0.592 0.4619-0.863 0.688-0.257 0.2061-0.44 0.3893-0.549 0.5497-0.045 0.1306-0.073 0.2144-0.083 0.2513-0.014 0.02-0.054 0.0365-0.121 0.0493-0.013-0.0673-0.066-0.0224-0.158 0.1347-0.078 0.1371-0.181 0.3311-0.307 0.582-0.11 0.2477-0.22 0.4954-0.329 0.7431-0.096 0.2276-0.168 0.3984-0.216 0.5122-0.028 0.0401-0.05 0.1491-0.069 0.327-4e-3 0.1579 6e-3 0.3041 0.032 0.4388-0.029 0.2148 7e-3 0.3562 0.107 0.4242 0.097 0.0513 0.311 0.1674 0.642 0.3483 0.673 0.325 1.205 0.5984 1.596 0.8202s0.688 0.4091 0.892 0.5621c0.204 0.1529 0.337 0.3019 0.399 0.447 0.4 0.4469 0.566 0.8163 0.5 1.108-0.067 0.2918-0.308 0.582-0.723 0.8707-0.153 0.1163-0.417 0.2367-0.795 0.3611-0.377 0.1244-0.768 0.2252-1.172 0.3023-0.4 0.094-0.722 0.1467-0.964 0.158zm11.318-3.1823c-0.296 0.3704-0.674 0.6258-1.136 0.7663-0.444 0.1373-0.903 0.1552-1.376 0.0536-0.476-0.1183-0.896-0.3521-1.259-0.7013-0.357-0.3156-0.622-0.7009-0.796-1.156-0.178-0.4719-0.307-1.1014-0.387-1.8883-0.075-0.6659 0.01-1.3624 0.255-2.0894 0.241-0.7438 0.573-1.4264 0.995-2.0477 0.439-0.6245 0.9-1.0876 1.383-1.3892 0.22-0.2165 0.416-0.3324 0.588-0.3477 0.185-0.0353 0.465-0.0716 0.842-0.1086 0.397-0.0235 0.697-0.0024 0.902 0.0632 0.221 0.0624 0.407 0.1665 0.556 0.3122 0.301 0.2042 0.518 0.4245 0.65 0.6609 0.129 0.2195 0.216 0.447 0.261 0.6826 4e-3 0.3831-0.162 0.8856-0.497 1.5077-0.321 0.602-0.794 1.1372-1.42 1.6056-0.347 0.1885-0.742 0.3161-1.182 0.3829-0.441 0.0667-0.824 0.0265-1.148-0.1208-0.346-0.0736-0.551-0.0081-0.617 0.1963-0.069 0.1875-0.081 0.6259-0.037 1.3151 0.055 0.6523 0.196 1.1138 0.422 1.3846 0.223 0.2539 0.482 0.3788 0.778 0.3746 0.349 3e-3 0.62 0.0037 0.811 2e-3 0.205-0.0218 0.435-0.1441 0.689-0.367 0.237-0.2197 0.388-0.3444 0.452-0.3741 0.061-0.0465 0.105-0.0898 0.132-0.1299 0.041-0.0602 0.129-0.1904 0.265-0.3909 0.096-0.1403 0.172-0.2421 0.23-0.3054 0.054-0.0802 0.123-0.1283 0.208-0.1444 0.084-0.0161 0.168 0.0116 0.251 0.0828 0.08 0.0545 0.157 0.0921 0.231 0.1129 0.168-0.0321 0.221 0.0624 0.159 0.2836-0.046 0.218-0.176 0.4958-0.391 0.8333-0.217 0.3207-0.489 0.6341-0.814 0.9405zm-1.048-5.3464c0.169-0.1195 0.34-0.2743 0.513-0.4643 0.17-0.2069 0.305-0.4157 0.404-0.6265 0.113-0.2309 0.156-0.4136 0.131-0.5482-0.045-0.2356-0.192-0.4083-0.439-0.5179-0.251-0.1265-0.584-0.0891-0.999 0.1123-0.176 0.0859-0.362 0.2523-0.559 0.4992-0.2 0.2301-0.387 0.4838-0.561 0.7612-0.157 0.2742-0.285 0.5167-0.384 0.7275-0.083 0.2076-0.104 0.325-0.064 0.3523 0.067 0.0744 0.223 0.1144 0.468 0.1199 0.242-0.0113 0.504-0.0528 0.787-0.1242 0.3-0.0747 0.534-0.1718 0.703-0.2913zm6.373 4.4338c-0.047 0.0264-0.133 0.0341-0.257 0.0229-0.125-0.0111-0.251-0.0307-0.378-0.0587-0.127-0.0279-0.211-0.0555-0.251-0.0828-0.08-0.0544-0.167-0.1425-0.26-0.2643-0.076-0.125-0.113-0.3185-0.111-0.5805-1e-3 -0.2789 0.101-0.656 0.307-1.1314 0.052-0.1843 0.105-0.456 0.158-0.8151 0.054-0.359 0.104-0.7349 0.151-1.1276 0.061-0.4128 0.113-0.7803 0.156-1.1024 0.06-0.3255 0.104-0.5519 0.132-0.6793-0.021-0.2925-0.077-0.4912-0.166-0.5962-0.077-0.1249-0.234-0.1733-0.473-0.1452-0.168 0.0322-0.306 0.0411-0.413 0.0267-0.091-0.0176-0.165-0.1778-0.223-0.4807-0.011-0.242 0.017-0.4131 0.085-0.5134 0.082-0.1202 0.195-0.2553 0.341-0.4052 0.152-0.1163 0.309-0.2074 0.471-0.2732 0.179-0.069 0.354-0.1112 0.526-0.1265 0.171-0.0153 0.317 0.0179 0.437 0.0996 0.131 0.0448 0.235 0.1818 0.314 0.4109 0.076 0.2123 0.136 0.4363 0.181 0.6719 0.062 0.2324 0.112 0.4058 0.152 0.5204 0.142-0.1668 0.334-0.3953 0.575-0.6855 0.255-0.3103 0.47-0.5957 0.647-0.8562 0.234-0.2366 0.519-0.4828 0.854-0.7386 0.331-0.2726 0.581-0.425 0.749-0.4572 0.186-0.0353 0.38-0.0202 0.585 0.0454 0.201 0.0488 0.348 0.134 0.441 0.2558 0.223 0.2539 0.347 0.4919 0.372 0.7138 0.042 0.2188-8e-3 0.4636-0.148 0.7346-0.126 0.2509-0.308 0.4425-0.544 0.5749-0.219 0.1291-0.363 0.2001-0.43 0.213-0.101 0.0193-0.242-0.0323-0.422-0.1548-0.181-0.1226-0.289-0.2327-0.325-0.3304-0.01-0.0505-0.109 0.0208-0.299 0.2141-0.176 0.1732-0.37 0.3933-0.58 0.6603-0.214 0.2501-0.389 0.4754-0.525 0.6758-0.219 0.408-0.43 0.9455-0.634 1.6124-0.204 0.6668-0.443 1.4712-0.717 2.413-0.121 0.4592-0.195 0.8484-0.221 1.1673-0.03 0.3022-0.115 0.493-0.257 0.5724zm10.176-1.9702c-0.131 0.0425-0.339 0.0038-0.624-0.1163-0.268-0.1233-0.523-0.275-0.767-0.4552-0.153-0.1626-0.316-0.4193-0.487-0.7703-0.172-0.3509-0.326-0.7487-0.464-1.1934-0.137-0.4447-0.246-0.8774-0.326-1.2981-0.064-0.4239-0.11-0.8947-0.139-1.4124-0.016-0.5377-0.032-1.0318-0.048-1.4821 1e-3 -0.4536 3e-3 -0.7594 8e-3 -0.9173 0.119-0.1972 0.24-0.3423 0.362-0.4353 0.138-0.0963 0.27-0.1388 0.394-0.1276 0.124 0.0111 0.251 0.0828 0.381 0.2149 0.258 0.0728 0.403 0.237 0.434 0.4927 0.049 0.2524 0.029 0.5613-0.058 0.9268 0.016 0.0841 0.022 0.2051 0.017 0.363-8e-3 0.1411-0.018 0.2737-0.029 0.3979-0.089 0.2613-0.125 0.4862-0.106 0.6745 0.032 0.1683 0.094 0.3569 0.186 0.5661 0.093 0.2091 0.089 0.419-0.01 0.6299l-5e-3 -0.0253c6e-3 0.121 0.036 0.3246 0.09 0.6106 0.072 0.2829 0.152 0.5641 0.24 0.8438 0.102 0.2596 0.206 0.4402 0.313 0.542 0.046 0.1482 0.144 0.2079 0.296 0.1789 0.165-0.049 0.353-0.2069 0.563-0.4739 0.164-0.2405 0.343-0.5363 0.537-0.8874 0.212-0.3544 0.396-0.7123 0.554-1.0738 0.174-0.3648 0.306-0.6778 0.396-0.9391 0.106-0.2645 0.136-0.4272 0.09-0.4881-0.093-0.1217-0.08-0.2375 0.038-0.3474 0.132-0.1299 0.241-0.2466 0.326-0.35 0.065-0.117 0.096-0.2276 0.093-0.3318-5e-3 -0.121 0.014-0.2469 0.059-0.3775 0.068-0.1002 0.113-0.2309 0.134-0.392-0.073-0.1081-0.058-0.2155 0.044-0.3222 0.115-0.1266 0.18-0.2437 0.194-0.3511 2e-3 -0.1747 0.038-0.3037 0.109-0.3871 0.088-0.0866 0.195-0.1243 0.319-0.1132 0.121-0.0056 0.233 0.034 0.336 0.1189 0.117 0.0648 0.2 0.1798 0.249 0.3448 0.039 0.202 0.02 0.5109-0.058 0.9269-0.061 0.4127-0.159 0.8588-0.294 1.3381s-0.295 0.9197-0.48 1.3213c-0.058 0.1507-0.108 0.2998-0.15 0.4473s-0.117 0.3451-0.227 0.5928c-0.093 0.2444-0.267 0.6092-0.523 1.0941-0.109 0.1604-0.217 0.3291-0.322 0.5063-0.109 0.1603-0.22 0.3123-0.332 0.4558-0.249 0.4313-0.472 0.7704-0.669 1.0173-0.197 0.247-0.411 0.4013-0.644 0.4632zm6.998-1.3107c-0.259 0.0145-0.511-0.1204-0.757-0.4047-0.233-0.3045-0.392-0.5881-0.477-0.8509-9e-3 -0.1378-0.029-0.3345-0.06-0.5902-0.015-0.2588-0.031-0.5261-0.049-0.8017 7e-3 -0.3326 0.025-0.7373 0.056-1.2142 0.028-0.4937 0.056-0.9874 0.083-1.481 0.045-0.4969 0.086-0.9233 0.122-1.2791 0.037-0.3559 0.066-0.5707 0.087-0.6444 0.058-0.1507 0.186-0.2101 0.384-0.1781 0.198 0.0319 0.369 0.104 0.512 0.2161 0.127 0.1153 0.217 0.2639 0.269 0.4458 0.069 0.1787 0.095 0.4528 0.078 0.8222 0 0.3663-0.034 0.9136-0.105 1.6421-0.056 0.7085-0.095 1.2827-0.115 1.7227-7e-3 0.4199 0.041 0.8555 0.145 1.3066 0.042 0.585 0.059 0.948 0.051 1.0891-0.011 0.1242-0.086 0.1908-0.224 0.1997zm0.979-10.626c-0.058 0.0633-0.12 0.1014-0.187 0.1143-0.054-0.0072-0.156-0.04-0.307-0.0984-0.121 0.0056-0.287-0.0412-0.498-0.1404-0.197-0.1193-0.377-0.2418-0.541-0.3676-0.15-0.1457-0.228-0.2355-0.234-0.2691-0.049-0.1651-0.081-0.377-0.096-0.6359-1e-3 -0.2789 0.047-0.5321 0.143-0.7598 0.093-0.2445 0.264-0.3992 0.513-0.4643 0.067-0.0128 0.128-0.0157 0.181-0.0085 0.054 0.0072 0.217 0.0372 0.489 0.0899 0.182 0.2267 0.372 0.4871 0.567 0.7811 0.193 0.2772 0.31 0.5688 0.351 0.8749 0.037 0.2893-0.089 0.5839-0.381 0.8838zm5.315 9.9468c-0.472 0.1773-0.923 0.2373-1.352 0.1798-0.433-0.0743-0.808-0.2556-1.124-0.5439-0.304-0.3084-0.507-0.7318-0.609-1.2703-0.147-0.4952-0.199-1.087-0.156-1.7754 0.039-0.7053 0.155-1.425 0.346-2.1592 0.208-0.7374 0.459-1.3871 0.752-1.949 0.26-0.4682 0.526-0.9027 0.798-1.3035 0.272-0.4009 0.532-0.6859 0.778-0.8551 0.217-0.146 0.424-0.2467 0.623-0.3021 0.212-0.0754 0.386-0.126 0.52-0.1517 0.283 0.0158 0.593 0.0874 0.931 0.2146 0.352 0.1072 0.547 0.2618 0.586 0.4637 0 0 0.021 0.0221 0.065 0.0661 0.057 0.024 0.085 0.036 0.085 0.036 0.101-0.0193 0.206 0.0741 0.315 0.28 0.126 0.2026 0.225 0.4454 0.296 0.7283 0.068 0.266 0.07 0.5012 4e-3 0.7056-6e-3 0.3326-0.071 0.6327-0.194 0.9005-0.123 0.2677-0.252 0.4144-0.387 0.4402-0.067 0.0128-0.133 0.0341-0.197 0.0638-0.051 0.0096-0.068 0.0565-0.052 0.1406 0.016 0.0842-0.028 0.1275-0.132 0.1299-0.087-7e-4 -0.189-0.0335-0.306-0.0984-0.121-0.0816-0.219-0.185-0.295-0.3099-0.016-0.0842-0.01-0.2337 0.019-0.4484 0.029-0.2148 0.046-0.4885 0.052-0.8211 0.011-0.4905-0.055-0.7918-0.198-0.9039-0.147-0.1289-0.376-0.0939-0.687 0.105-0.376 0.3159-0.717 0.7212-1.023 1.2158-0.29 0.4915-0.531 1.1043-0.722 1.8384-0.194 0.7174-0.323 1.5966-0.385 2.6377-0.028 0.4063-5e-3 0.7509 0.066 1.0337 0.088 0.2797 0.159 0.4231 0.213 0.4303 0.249 0.0223 0.572-0.022 0.969-0.1328 0.394-0.1276 0.674-0.2596 0.84-0.3959 0.244-0.1861 0.513-0.4206 0.808-0.7037 0.291-0.2999 0.545-0.5665 0.762-0.7998 0.075-0.0666 0.16-0.17 0.255-0.3103s0.204-0.2569 0.326-0.35c0.096-0.2276 0.191-0.3679 0.286-0.4208 0.094-0.053 0.242-0.0988 0.444-0.1373 0.141 0.0079 0.277 0.0343 0.408 0.0791 0.13 0.0448 0.219 0.0976 0.266 0.1585 0.063 0.0577 0.049 0.1214-0.042 0.1912-0.068 0.0128-0.105 0.0461-0.112 0.0998 6e-3 0.0337 9e-3 0.0505 9e-3 0.0505 0.047 0.0609-1e-3 0.2184-0.145 0.4725-0.129 0.2341-0.305 0.503-0.526 0.8069-0.221 0.3038-0.44 0.5724-0.657 0.8058-0.203 0.2132-0.356 0.3295-0.457 0.3488-0.168 0.0322-0.242 0.0987-0.223 0.1997 6e-3 0.0336-0.104 0.1419-0.33 0.3247-0.21 0.1797-0.462 0.3673-0.756 0.563-0.277 0.1925-0.529 0.3365-0.755 0.432zm7.926-1.8542c-0.708-0.1438-1.208-0.4321-1.5-0.8647-0.278-0.4526-0.455-1.195-0.53-2.2272-0.066-0.5281-0.115-0.8763-0.147-1.0445-0.032-0.1683-0.157-0.3189-0.374-0.4518-0.064-0.0577-0.174-0.1326-0.331-0.2246-0.14-0.0953-0.21-0.1866-0.209-0.274-0.04-0.1146-0.055-0.2424-0.047-0.3834 4e-3 -0.1579 0.04-0.2433 0.108-0.2562 0.067-0.0128 0.131-0.0425 0.192-0.089 0.078-0.0497 0.153-0.0642 0.227-0.0434 0.067-0.0129 0.145-0.0189 0.232-0.0182 0.087 8e-4 0.137 0.0348 0.15 0.1021 0.09 0.105 0.203 0.1009 0.338-0.0122 0.132-0.1299 0.25-0.3792 0.354-0.7479 0.117-0.3014 0.285-0.6124 0.502-0.9331 0.235-0.3239 0.466-0.6209 0.693-0.8911 0.242-0.2902 0.445-0.5035 0.611-0.6398 0.077-0.0498 0.196-0.1159 0.354-0.1986 0.159-0.0826 0.328-0.1584 0.506-0.2274 0.196-0.0723 0.362-0.1128 0.5-0.1217 0.306-0.0411 0.575-0.0051 0.806 0.1077 0.247 0.1097 0.483 0.2478 0.707 0.4144 0.247 0.1096 0.421 0.2858 0.519 0.5286 0.116 0.2396 0.184 0.5056 0.205 0.7981s-5e-3 0.5678-0.078 0.8259c-0.018 0.1779-0.122 0.4072-0.313 0.6878-0.19 0.2805-0.416 0.5592-0.677 0.8358-0.262 0.2766-0.509 0.4895-0.742 0.6387-0.209 0.0923-0.487 0.189-0.834 0.2901-0.33 0.098-0.647 0.1759-0.949 0.2338-0.29 0.0378-0.49 0.0411-0.6 0.0099-0.131-0.0448-0.206 0.0654-0.225 0.3307s0 0.6367 0.056 1.1143c0.037 0.3767 0.089 0.6459 0.154 0.8077 0.066 0.1619 0.122 0.2733 0.169 0.3341 0.14 0.0953 0.329 0.2162 0.566 0.3628 0.251 0.1265 0.559 0.0938 0.923-0.0979 0.304-0.1452 0.574-0.4234 0.809-0.8347 0.252-0.4144 0.492-0.7568 0.719-1.027 0.045-0.1306 0.142-0.2188 0.29-0.2646 0.162-0.0658 0.34-0.0911 0.535-0.076 0.207 0.0824 0.311 0.211 0.309 0.3857 0.012 0.1547-0.027 0.4063-0.117 0.755-0.028 0.1274-0.117 0.3014-0.267 0.5218-0.136 0.2005-0.296 0.4141-0.479 0.641-0.17 0.2069-0.329 0.3768-0.478 0.51-0.454 0.3656-0.898 0.5987-1.332 0.6991-0.438 0.0836-0.873 0.0882-1.305 0.0139zm0.51-5.4085c0.354-0.1549 0.637-0.27 0.85-0.3455 0.212-0.0754 0.405-0.2081 0.578-0.3982 0.169-0.2068 0.362-0.5663 0.578-1.0786 0.032-0.1979 0.014-0.3862-0.055-0.5649-0.052-0.1819-0.119-0.3001-0.199-0.3545-0.183-0.1394-0.378-0.1545-0.584-0.0454-0.192 0.0891-0.368 0.2186-0.527 0.3886-0.109 0.073-0.261 0.2329-0.458 0.4799-0.184 0.2268-0.361 0.4874-0.531 0.7816-0.174 0.2774-0.309 0.5299-0.405 0.7575-0.096 0.2277-0.107 0.3519-0.033 0.3727-0.021 0.0738 0.08 0.0981 0.302 0.0732 0.238-0.0282 0.4-0.0503 0.484-0.0664zm7.675 0.025c-0.455 0.1741-0.809 0.0064-1.064-0.5031-0.254-0.5096-0.353-1.258-0.298-2.2454 0.063-0.2212 0.11-0.4308 0.142-0.6288 0.028-0.2147 0.032-0.381 9e-3 -0.4988 0.026-0.2317 0.062-0.5001 0.108-0.8055 0.06-0.3254 0.124-0.6256 0.194-0.9005 0.066-0.2917 0.117-0.4845 0.151-0.5783 0.068-0.0128 0.124-0.0846 0.168-0.2152 0.062-0.1339 0.082-0.2597 0.059-0.3775-0.026-0.1346-0.029-0.2909-0.011-0.4688 0.035-0.1812 0.08-0.3118 0.134-0.392-0.016-0.0841 0-0.1831 0.048-0.2969 0.048-0.1139 0.066-0.2044 0.053-0.2717-0.013-0.0674-7e-3 -0.1295 0.017-0.1864 0.041-0.0601 0.055-0.1238 0.042-0.1911 0.1-0.2982 0.218-0.7306 0.354-1.2973 0.149-0.5867 0.286-1.197 0.409-1.831 0.14-0.6372 0.25-1.199 0.332-1.6855 0.081-0.4865 0.112-0.7803 0.093-0.8812 8e-3 -0.1411 0.039-0.2517 0.094-0.3319 0.054-0.0801 0.152-0.1162 0.293-0.1083 0.058-0.0633 0.12-0.1014 0.187-0.1143 0.064-0.0297 0.13-0.051 0.197-0.0638 0 0 0.032 0.0288 0.095 0.0865 0.081 0.0544 0.192 0.1377 0.336 0.2498 0.157 0.0921 0.259 0.2123 0.304 0.3605 0.046 0.1482 0.088 0.3233 0.127 0.5253 0.044 0.3229-5e-3 0.7072-0.146 1.1528-0.142 0.4457-0.301 0.9382-0.477 1.4777-0.107 0.3519-0.217 0.6869-0.331 1.0051-0.097 0.315-0.139 0.5062-0.126 0.5735s-1e-3 0.1747-0.043 0.3222-0.085 0.3302-0.131 0.5482c-0.068 0.1876-0.139 0.4104-0.212 0.6685s-0.14 0.4977-0.203 0.7189c-0.049 0.2012-0.068 0.3271-0.059 0.3775-3e-3 0.0706-0.016 0.1427-0.037 0.2164-4e-3 0.0706-0.033 0.1459-0.087 0.2261-0.068 0.0128-0.1 0.0714-0.098 0.1755 0.016 0.0842 0.025 0.1262 0.025 0.1262 0.012 0.0674 1e-3 0.2353-0.035 0.5037-0.022 0.2485-0.086 0.5571-0.189 0.9258-0.15 0.9529-0.24 1.7115-0.272 2.2757-0.035 0.5474-0.034 1.0094 3e-3 1.386 0.044 0.4103 0.055 0.6523 0.034 0.7261-4e-3 0.0705-0.067 0.1523-0.189 0.2453zm-0.591 4.299c-0.297 0.1789-0.555 0.2892-0.774 0.331-0.205 0.0218-0.452-0.0358-0.739-0.1727-0.378-0.2418-0.545-0.5238-0.502-0.846 0.057-0.3422 0.275-0.7066 0.654-1.0931 0.268-0.2429 0.467-0.3857 0.599-0.4282 0.148-0.0458 0.386-0.0303 0.715 0.0465 0.566 0.2232 0.852 0.5348 0.859 0.9347 0.023 0.3967-0.247 0.806-0.812 1.2278z" fill="#fff"/>
<path d="m193.3 89.642c-14.83 1.6055-26.552-4.8767-29.394-19.696m6.988 0.8261-7.818-5.7219c-0.235-0.1721-0.567-0.1074-0.721 0.1406l-4.72 7.6334" stroke="#FAFAFA" stroke-linecap="round" stroke-width="2"/>
<g clip-path="url(#a)">
<path d="m149.04 9.7327c1.131 0.8501 2.122 1.7003 3.253 2.5504-0.848 0.9918-1.697 2.1253-2.688 3.1171 1.84 2.1253 2.547 4.534 2.123 7.2261-0.425 2.8338-1.981 4.8174-4.669 6.0926 0.849 0.5668 1.556 0.9918 2.263 1.4169 1.84 1.2752 2.547 3.1171 2.264 5.3841-0.283 3.4005-2.122 5.5259-5.235 6.6594-3.819 1.2752-7.639 1.2752-11.318-0.4251-2.971-1.4169-4.527-4.2506-4.103-7.5095h4.386v0.5668c0.142 1.8419 1.274 3.1171 2.971 3.6839 2.122 0.8501 4.245 0.7084 6.225-0.1417 0.425-0.1417 0.708-0.4251 1.132-0.5668 2.122-1.5585 1.981-4.534-0.424-5.8092-1.415-0.8501-2.971-0.8501-4.528-0.9918-1.556 0-3.112-0.2834-4.527-0.9918-3.254-1.4169-4.952-3.8256-5.376-7.2261-0.283-2.8338 0.141-5.3841 1.981-7.6512 2.263-2.692 5.093-3.6838 8.63-3.6838 1.697 0 3.395 0.425 5.093 1.1335 0.849-0.7085 1.698-1.7003 2.547-2.8338zm-7.64 5.9509c-4.245 0-6.933 3.4005-5.942 7.3678 0.707 2.8337 3.254 4.2506 6.225 4.1089 2.122-0.1417 3.82-0.8501 4.951-2.692 1.84-3.2589 0.566-8.643-5.234-8.7847z" fill="#fff"/>
<path d="m97.113 28.577c-1.9807 1.8419-4.1028 2.9754-6.508 3.2588-2.8295 0.4251-5.5175 0.1417-7.9226-1.2752-3.537-2.1253-4.8103-5.3841-4.6688-9.3514 0-1.9836 0.5659-3.8256 1.6978-5.5258 1.4147-1.9836 3.3954-3.2588 5.8005-3.8256 2.5466-0.5667 5.0931-0.4251 7.3568 0.5668 2.2636 0.8501 3.6784 2.5503 4.6687 4.6757 0.8489 1.9836 0.9903 3.9672 0.7074 6.2342h-15.562c0.1414 1.7003 0.9903 2.6921 2.2636 3.5422 1.8392 1.1335 3.8199 1.2752 5.8005 0.7085 1.2733-0.2834 2.4051-0.9918 3.8199-1.5586 0.7074 0.7085 1.5562 1.7003 2.5466 2.5504zm-3.3955-8.643c0.1415-2.4087-2.1221-4.2506-5.0931-4.3923-3.3955-0.1417-5.8006 1.7003-5.8006 4.3923h10.894z" fill="#fff"/>
<path d="m269.15 23.476h-15.421c0 1.9837 1.981 4.109 4.669 4.3924 2.546 0.2833 4.81-0.1417 6.932-1.842 0.849 0.8501 1.698 1.7003 2.688 2.5504-0.283 0.2834-0.566 0.7084-0.849 0.8501-4.244 3.4005-10.327 3.1172-13.864 0.9918-3.396-2.1253-4.528-5.3841-4.386-9.2097 0-1.9836 0.566-3.9672 1.839-5.6675 1.415-1.9836 3.396-3.2588 5.801-3.6839 2.546-0.5667 4.951-0.4251 7.356 0.5668 2.406 0.9918 3.962 2.692 4.811 4.959 0.566 1.9837 0.707 3.9673 0.424 6.0926zm-15.279-3.6839c1.273 0.1417 10.044 0.1417 10.893 0-0.141-2.5503-2.405-4.2506-5.659-4.2506-2.405 0-5.093 1.7003-5.234 4.2506z" fill="#fff"/>
<path d="m246.09 13.842c-0.708 1.1336-1.274 2.1254-1.981 3.1172-1.415-0.8501-2.83-1.5586-4.527-1.5586-1.132 0-2.264 0-3.396 0.1417-0.424 0-0.849 0.2834-1.132 0.4251-1.273 0.8501-1.131 2.267 0.142 2.8337 0.99 0.4251 2.122 0.5668 3.254 0.8502 1.273 0.2833 2.405 0.425 3.678 0.7084 0.425 0.1417 0.849 0.2834 1.273 0.4251 1.84 0.8501 2.971 2.1253 3.113 4.2506 0.141 2.267-0.566 4.109-2.547 5.3842-1.556 0.9918-3.395 1.4168-5.376 1.4168-3.395 0.1417-6.649-0.7084-9.479-2.9754 0.708-1.1335 1.415-2.1253 1.981-2.9755 1.698 0.5668 3.112 1.2752 4.81 1.7003 1.274 0.2834 2.547 0.1417 3.82 0.1417 0.566 0 1.132-0.2834 1.556-0.5668 1.132-0.7084 1.132-2.1253-0.141-2.8337-0.708-0.4251-1.556-0.5668-2.264-0.7085-1.132-0.2833-2.263-0.2833-3.254-0.5667-1.132-0.2834-2.263-0.7085-3.254-1.2752-3.395-1.9837-3.254-6.801 0.142-8.9264 1.698-0.9918 3.395-1.2752 5.376-1.4168 3.112 0 5.659 0.7084 8.206 2.4086z" fill="#fff"/>
<path d="m100.79 29.002c0.566-0.9918 1.132-1.842 1.698-2.6921 0.141-0.1417 0.283-0.2834 0.424-0.5668 1.415 0.9919 2.83 1.7003 4.527 1.842 1.274 0.1417 2.547 0.1417 3.82 0.1417 0.566 0 1.132-0.2834 1.557-0.5668 1.131-0.7084 1.131-2.1253-0.142-2.8337-0.707-0.4251-1.556-0.5668-2.405-0.7085-1.415-0.2833-2.83-0.425-4.103-0.7084-1.132-0.2834-2.264-0.8501-3.112-1.7003-2.547-2.267-2.123-6.3759 0.99-8.2179 1.698-0.9918 3.537-1.4169 5.376-1.4169 2.83-0.1416 5.376 0.4251 7.781 1.842 0.142 0.1417 0.283 0.1417 0.425 0.2834l0.141 0.1417c-0.566 0.9918-1.273 1.9836-1.98 3.1171-1.415-0.8501-2.83-1.4169-4.528-1.5586-1.132 0-2.263 0-3.395 0.1417-0.283 0-0.708 0.2834-0.991 0.4251-0.565 0.2833-0.99 0.8501-0.99 1.5585 0 0.7085 0.425 1.1335 1.132 1.4169 0.99 0.2834 2.122 0.5668 3.112 0.7085 1.274 0.2833 2.406 0.425 3.679 0.7084 0.424 0.1417 0.849 0.2834 1.273 0.4251 1.981 0.8501 3.113 2.4087 3.254 4.534 0.142 2.1253-0.707 3.8256-2.546 4.9591-1.84 1.1335-3.82 1.5585-5.942 1.5585-2.972 0-5.943-0.7084-8.348-2.5503-0.283 0-0.424 0-0.707-0.2834z" fill="#fff"/>
<path d="m127.25 6.4739c0 1.5586-1.273 2.6921-2.971 2.6921s-2.83-1.1335-2.83-2.6921c0-1.5586 1.132-2.6921 2.83-2.6921 1.98 0 2.971 0.99182 2.971 2.6921z" fill="#fff"/>
<path d="m274.67 31.836c-1.698 0-2.688-1.1335-2.688-2.692 0-1.5586 1.273-2.6921 2.83-2.5504 1.697 0 2.829 1.1335 2.688 2.6921-0.142 1.2752-1.274 2.692-2.83 2.5503z" fill="#DBF40C"/>
<path d="m73.77 5.9071c-1.4148-0.85013-2.8295-1.7002-4.3858-2.267v9.9182h-0.1415-0.1414c-2.2637-1.842-4.9517-2.267-7.6398-1.9837-3.1125 0.2834-5.5176 1.842-7.0738 4.6757-1.1318 2.1254-1.4148 4.5341-1.1318 6.9428 0.7074 6.6593 6.5079 9.6348 12.308 8.2179 1.5562-0.4251 2.971-1.1335 4.2443-2.267l0.1414 2.267h3.9614l-0.1415-25.504zm-15.138 19.695c-0.8489-1.1335-1.1318-2.4087-1.1318-3.8256 0-2.4087 0.9903-4.3923 3.2539-5.5259 2.2637-0.9918 4.5273-0.8501 6.508 0.7085 1.9806 1.7002 2.4051 3.9673 1.8392 6.3759-0.5659 2.4087-2.1222 3.9673-4.6688 4.3924-2.2636 0.425-4.2443-0.2834-5.8005-2.1253z" clip-rule="evenodd" fill="#fff" fill-rule="evenodd"/>
<path d="m126.54 13.842v17.711h-4.386v-19.978c1.556 0.5668 3.112 1.2752 4.386 2.2671z" clip-rule="evenodd" fill="#fff" fill-rule="evenodd"/>
<path d="m221.19 12c0 0.7084-0.142 1.5586-0.142 2.267h-0.283c-2.829-2.5504-6.083-2.9754-9.762-2.1253-1.98 0.4251-3.678 1.7003-4.81 3.4005-1.273 1.7003-1.839 3.6839-1.839 5.8092-0.425 8.3596 6.366 12.327 13.016 10.343 1.415-0.4251 2.546-1.2752 3.82-2.2671v1.4169 0.8502h3.961c0.283-1.5586 0-11.335 0-16.436v-1.1335c-1.273-0.9918-2.547-1.7002-3.961-2.1253zm-6.367 3.6839c3.396 0 5.801 2.5504 5.801 6.0926s-2.547 6.0926-5.942 6.0926c-3.396 0-5.942-2.5504-5.942-6.0926s2.688-6.0926 6.083-6.0926z" clip-rule="evenodd" fill="#fff" fill-rule="evenodd"/>
<path d="m160.21 12c-1.415 0.5667-2.688 1.1335-3.962 1.9836-0.141 4.9591 1e-3 16.861 0.142 17.569h4.244v-1.4169-2.4087-6.376c0-2.267 0.991-3.9673 2.971-4.9591 3.113-1.5585 6.367 0 7.074 3.4005 0.142 0.5668 0.142 1.2752 0.142 1.842v5.3841 3.5422 0.7085 0.2834h4.385v-3.6839-8.643c-0.141-2.1253-0.99-4.109-2.688-5.6675-2.971-2.5504-8.347-2.5504-11.318 0-0.141 0.1417-0.283 0.2833-0.424 0.425-0.142 0.1417-0.283 0.2834-0.425 0.4251 0-0.5668 0-0.9918-0.141-1.4169v-0.9918z" clip-rule="evenodd" fill="#fff" fill-rule="evenodd"/>
<path d="m180.58 5.9071c-0.142 6.6594-0.142 24.937 0.141 25.646h3.82v-2.2671c0.283 0.1417 0.566 0.4251 0.707 0.5668 0.566 0.4251 0.991 0.7084 1.557 0.9918 1.98 0.9918 4.102 1.2752 6.366 0.9918 2.264-0.2833 4.244-1.2752 5.801-2.9754 1.98-2.4087 2.688-5.2425 2.405-8.2179-0.566-6.6594-5.942-10.06-12.309-8.7847-1.415 0.2834-2.688 0.9918-3.961 1.9836v-10.201c-1.556 0.70844-3.113 1.4169-4.527 2.267zm10.469 21.962c-3.396 0-5.942-2.5504-5.942-6.0926s2.546-6.0926 5.942-6.0926c3.395 0 5.942 2.6921 5.942 6.0926 0 3.5422-2.688 6.0926-5.942 6.0926z" clip-rule="evenodd" fill="#fff" fill-rule="evenodd"/>
<path d="m21.141 39.912c11.035-3.5422 13.723-15.444 11.318-24.087-1.2733-4.534-3.8198-8.9264-7.9227-11.76-4.2443-2.8338-9.7619-3.8256-15.845-2.267l2.4052 8.9263c3.6783-0.99181 6.3664-0.2834 8.2056 0.9918 1.9807 1.2752 3.5369 3.6839 4.2443 6.376 1.5562 5.9509-0.7074 11.335-5.2346 12.752-5.9421 1.842-8.3472-0.8501-8.9131-2.5504-0.28295-0.9918-0.28295-2.1253 0.56591-3.2588 0.56586-0.9918 1.9807-2.1253 4.3858-2.9754l-2.4051-8.9264c-4.2443 1.4169-7.6397 3.6839-9.6204 6.801-2.2636 3.4005-2.6881 7.5095-1.5562 11.052 2.1221 7.9345 10.611 12.044 20.373 8.9264z" clip-rule="evenodd" fill="#DBF40C" fill-rule="evenodd"/>
</g>
<defs>
<clipPath id="a">
<rect width="278" height="43.789" fill="#fff"/>
</clipPath>
</defs>
</svg>
