<svg width="43" height="43" viewBox="0 0 43 43" fill="none" xmlns="http://www.w3.org/2000/svg">
<rect width="43" height="43" rx="5.73333" fill="#DBF40C"/>
<g clip-path="url(#clip0_26_898)">
<path d="M23.813 19.7313C23.5643 19.4811 23.2884 19.2593 22.9907 19.0699C22.202 18.5649 21.2851 18.2965 20.3486 18.2965C19.0488 18.2941 17.8018 18.8106 16.8843 19.7313L12.4331 24.186C11.5171 25.1037 11.0023 26.3471 11.0015 27.6437C10.9997 30.3494 13.1917 32.5442 15.8974 32.546C17.1953 32.5505 18.4411 32.0365 19.3583 31.1182L23.0327 27.4439C23.0994 27.3777 23.1367 27.2874 23.1362 27.1934C23.1351 27.0001 22.9775 26.8444 22.7842 26.8455H22.6442C21.8766 26.8482 21.1157 26.7008 20.4047 26.4116C20.2736 26.3577 20.1231 26.3881 20.0232 26.4886L17.3812 29.1341C16.5608 29.9545 15.2306 29.9545 14.4102 29.1341C13.5898 28.3137 13.5898 26.9835 14.4102 26.1631L18.8789 21.6979C19.6987 20.8792 21.0267 20.8792 21.8464 21.6979C22.3989 22.2179 23.2606 22.2179 23.8131 21.6979C24.0507 21.46 24.1948 21.1445 24.219 20.8091C24.2445 20.4082 24.0967 20.0156 23.813 19.7313Z" fill="black"/>
<path d="M30.5633 12.981C28.65 11.0677 25.5479 11.0677 23.6346 12.981L19.9637 16.6483C19.8629 16.7496 19.8338 16.902 19.8902 17.0333C19.9459 17.165 20.0762 17.2495 20.2191 17.2467H20.3486C21.1154 17.2453 21.875 17.3939 22.5847 17.6842C22.7157 17.7381 22.8663 17.7077 22.9661 17.6072L25.6011 14.9757C26.4216 14.1552 27.7517 14.1552 28.5721 14.9757C29.3925 15.7961 29.3925 17.1262 28.5721 17.9466L25.2897 21.2255L25.2617 21.257L24.1139 22.3978C23.2941 23.2166 21.9662 23.2166 21.1464 22.3978C20.594 21.8779 19.7322 21.8779 19.1798 22.3978C18.9406 22.6375 18.7964 22.9558 18.7738 23.2936C18.7483 23.6945 18.8961 24.0871 19.1798 24.3715C19.5848 24.7782 20.0587 25.1099 20.5795 25.3513C20.653 25.3863 20.7265 25.4143 20.8 25.4458C20.8735 25.4773 20.9504 25.5017 21.0239 25.5297C21.0974 25.5578 21.1744 25.5822 21.2479 25.6032L21.4543 25.6592C21.5943 25.6942 21.7343 25.7222 21.8778 25.7467C22.0506 25.7723 22.2246 25.7887 22.3992 25.7957H22.6441H22.6651L22.8751 25.7712C22.9521 25.7677 23.0326 25.7502 23.1235 25.7502H23.2425L23.484 25.7152L23.596 25.6942L23.7989 25.6522H23.8374C24.697 25.4363 25.4819 24.9913 26.1085 24.3645L30.5632 19.9098C32.4766 17.9964 32.4766 14.8943 30.5633 12.981Z" fill="black"/>
</g>
<defs>
<clipPath id="clip0_26_898">
<rect width="21" height="21" fill="white" transform="translate(11 11.546)"/>
</clipPath>
</defs>
</svg>
