<svg width="43" height="43" viewBox="0 0 43 43" fill="none" xmlns="http://www.w3.org/2000/svg">
<rect width="43" height="43" rx="5.73333" fill="#E60000"/>
<path d="M35.3218 14.6196C34.7419 12.8348 32.8227 11.754 31.0564 11.5062C24.7033 10.8313 18.2967 10.8313 11.9436 11.5062C10.1773 11.754 8.25286 12.8243 7.67816 14.6196C6.77395 19.2268 6.77395 23.966 7.67816 28.5732C8.25814 30.3553 10.1773 31.4388 11.9436 31.6866C18.2967 32.3615 24.7033 32.3615 31.0564 31.6866C32.8227 31.4388 34.7471 30.3685 35.3218 28.5732C36.2261 23.966 36.2261 19.2268 35.3218 14.6196ZM18.0307 27.1523V16.0379L27.0783 21.5951C24.0282 23.4694 21.0677 25.2858 18.0307 27.1523Z" fill="white"/>
</svg>
