<svg width="137" height="56" viewBox="0 0 137 56" fill="none" xmlns="http://www.w3.org/2000/svg">
<path d="M39.6912 27.2988C37.0829 29.1076 32.9305 31.964 32.195 31.2904C31.4589 30.6146 32.7518 30.11 32.7518 30.11C44.2543 25.6787 39.7371 20.0694 39.2787 19.2404C38.8175 18.4122 37.4761 19.326 37.4761 19.326C37.4761 19.326 32.928 25.1444 32.1508 26.3838C31.373 27.6234 30.2956 27.754 30.4082 26.6932C30.5213 25.6317 36.118 19.293 36.8391 17.8324C37.557 16.3695 35.7515 14.079 34.0993 14.1242C32.4466 14.1696 31.1954 19.2658 29.8886 21.2015C28.5847 23.137 28.5731 22.5058 28.1377 22.0681C27.7039 21.6269 31.4626 16.4169 32.546 14.5405C33.6293 12.664 31.8353 11.0042 29.8596 9.55056C27.884 8.09693 27.4959 13.7531 27.3401 14.3498C27.1821 14.9471 26.3482 18.3423 24.9648 17.9211C23.5837 17.4969 25.9281 14.4095 27.152 10.9886C28.3759 7.56767 25.504 6.90917 24.1969 6.46753C22.887 6.02422 22.5851 9.03994 22.2078 11.9977C21.8276 14.9532 21.0358 14.213 21.0358 14.213C19.9016 14.1225 21.1026 10.3108 21.1443 8.39542C21.1861 6.47999 19.1319 5.92046 16.9845 5.30713C14.8372 4.6938 14.844 5.60349 12.986 7.84502C11.1281 10.089 12.4642 11.6737 13.9651 13.5702C15.4643 15.4695 16.8662 15.3717 15.8774 16.2704C14.8893 17.1719 12.5071 13.0115 11.4879 12.1722C10.4716 11.3345 10.1597 12.6886 9.46043 14.8181C8.7634 16.947 12.8171 18.7577 15.6529 20.0194C18.4908 21.2798 16.342 21.6981 16.342 21.6981C13.5147 22.0991 10.7051 18.5702 9.78274 17.7868C8.85733 17.0036 8.20439 15.1546 7.14033 19.327C6.07608 23.4964 13.9723 25.5866 15.6685 25.8446C17.3641 26.1027 16.3903 26.7611 16.3903 26.7611C13.6533 27.652 10.1266 24.5522 8.42636 23.3837C6.72554 22.213 6.41357 23.5665 6.41357 23.5665C6.41357 23.5665 5.60355 25.9436 7.35186 28.0321C9.10092 30.1234 12.6955 31.1023 14.7265 31.2108C16.7583 31.3221 15.7797 32.2589 15.7797 32.2589C13.647 33.842 7.41617 30.7922 7.41617 30.7922C7.41617 30.7922 4.8363 29.5193 6.52761 33.1518C8.21603 36.7827 14.3775 36.9352 16.2631 36.0545C18.1487 35.1738 18.2348 36.4591 18.2348 36.4591C18.1582 39.0554 10.2935 37.2377 10.2935 37.2377C10.2935 37.2377 8.63347 36.8094 7.98136 37.3401C7.33002 37.8736 8.68461 39.6707 8.68461 39.6707C12.293 43.9593 19.116 40.6432 19.7251 40.1045C20.3335 39.5636 21.6515 39.4467 21.2363 40.7088C20.8211 41.9709 15.0354 42.9473 14.5256 43.043C14.0152 43.1388 13.3921 43.249 13.2448 43.6633C13.0984 44.0805 13.7653 44.7944 13.7653 44.7944C23.0989 48.4006 26.0587 43.7612 26.2769 41.1647C26.4929 38.5689 27.289 38.4343 27.289 38.4343C27.331 38.4042 27.3741 38.3761 27.418 38.3509C27.8685 39.795 28.2776 41.2514 28.6261 42.7252C29.125 44.7535 29.5649 46.8005 30.0087 48.8533L30.307 50.3699C30.3984 50.793 30.6137 51.1113 30.7829 51.0727L31.5544 50.8965C31.7235 50.8579 31.7792 50.4779 31.678 50.0569L31.2372 48.5736C30.746 46.5329 30.2558 44.4847 29.7044 42.4473C29.4296 41.4287 29.1367 40.4131 28.8233 39.403C28.6933 38.9793 28.5526 38.5591 28.4104 38.14C30.212 38.2171 32.9386 40.1038 36.2333 40.4396C40.3104 40.854 41.7209 36.3525 41.7884 34.827C41.856 33.3021 37.7488 35.2427 34.9156 34.9225C32.6244 34.6658 33.8713 33.6955 33.8713 33.6955C39.6291 32.392 41.0745 32.1628 41.9369 30.3456C42.7981 28.5287 42.2995 25.49 39.6912 27.2988ZM24.3679 21.9274C24.0976 22.3997 23.6608 22.6584 23.3964 22.5058C23.1321 22.3532 23.1407 21.8453 23.4116 21.3753C23.6847 20.9022 24.1187 20.6443 24.383 20.7969C24.6474 20.9495 24.6418 21.4572 24.3679 21.9274ZM22.059 30.345C22.8451 30.4555 23.433 30.9042 23.3687 31.3458C23.3067 31.7843 22.619 32.0497 21.8331 31.9398C21.0464 31.827 20.4591 31.3805 20.5205 30.9398C20.5847 30.4982 21.2723 30.2322 22.059 30.345ZM25.4055 24.6013C25.9604 23.8811 26.737 23.5509 27.1379 23.8599C27.5423 24.1704 27.4177 25.0066 26.8655 25.7254C26.3105 26.4456 25.5339 26.7758 25.1324 26.4645C24.7279 26.1535 24.8527 25.3203 25.4055 24.6013ZM27.9677 30.0921C27.5801 30.5934 27.0378 30.8254 26.7571 30.6094C26.4758 30.3911 26.5612 29.8078 26.9495 29.3063C27.3365 28.8027 27.8794 28.573 28.1601 28.789C28.4408 29.005 28.3548 29.5885 27.9677 30.0921ZM18.3412 26.4179C18.3969 25.8534 19.2615 25.4777 20.2719 25.5824C21.2809 25.6845 22.052 26.2264 21.9939 26.7914C21.9359 27.3564 21.073 27.7293 20.0632 27.6268C19.0534 27.5244 18.2831 26.9829 18.3412 26.4179Z" fill="#0F352E"/>
<path d="M46.0895 21.3285C46.0895 19.7809 44.8339 18.8952 42.7899 18.1749C40.0159 17.1529 37.7967 15.9849 37.7967 12.7437C37.7967 9.82371 39.8407 7.3125 45.5834 7.3125C49.8174 7.3125 52.0366 8.31017 52.0366 10.2666C52.0366 11.5465 51.0146 12.3349 49.1166 12.3349C47.2186 12.3349 45.7635 11.7266 45.7635 10.2958C45.7489 9.78667 45.8699 9.28283 46.1139 8.83577C46.2069 8.67408 46.2665 8.49534 46.2891 8.31017C46.2891 8.0425 46.1139 7.87217 45.5883 7.87217C44.1867 7.87217 43.6903 8.68977 43.6903 9.62417C43.6903 10.7922 44.3911 11.7266 47.7491 13.0065C51.4867 14.4665 52.5379 16.0725 52.5379 18.5837C52.5379 21.9904 49.8807 23.8689 44.7123 23.8689C39.2227 23.8689 37.7627 22.5257 37.7627 20.7445C37.7627 19.3137 38.8431 18.5837 40.8579 18.5837C42.8727 18.5837 44.0991 19.4889 44.0991 20.7445C44.1242 21.2402 44.0041 21.7323 43.7535 22.1607C43.6014 22.331 43.5091 22.5463 43.4907 22.7739C43.4907 23.0951 43.7535 23.2606 44.3375 23.2606C44.582 23.2568 44.8231 23.2028 45.0459 23.102C45.2686 23.0011 45.4683 22.8557 45.6326 22.6745C45.7968 22.4934 45.9221 22.2805 46.0007 22.049C46.0793 21.8174 46.1096 21.5722 46.0895 21.3285V21.3285Z" fill="#FF5722"/>
<path d="M60.9232 23.9858C56.5724 23.9858 52.6498 22.2046 52.6498 15.9558C52.6498 9.50261 56.2122 7.1958 61.0887 7.1958C66.7535 7.1958 68.4471 9.73134 68.4471 12.9141C68.4471 14.7246 67.6003 15.9802 63.4831 15.9802C61.0497 15.9802 59.8915 16.2722 59.8915 17.411C59.8915 18.3843 60.9427 18.9878 63.1911 18.9878C65.6731 18.9878 68.1259 18.1994 68.1259 16.0678C68.12 16.0306 68.1226 15.9926 68.1333 15.9565C68.144 15.9204 68.1626 15.8872 68.1878 15.8592C68.2129 15.8312 68.244 15.8092 68.2788 15.7948C68.3135 15.7804 68.3511 15.7739 68.3887 15.7758C68.5347 15.7758 68.6223 15.8634 68.6223 16.0678C68.6369 21.7082 66.588 23.9858 60.9232 23.9858ZM59.6968 13.4008C59.6804 13.9855 59.6999 14.5706 59.7552 15.1528C59.7744 15.275 59.8395 15.3852 59.9371 15.4612C60.0348 15.5371 60.1576 15.573 60.2808 15.5616C60.9232 15.5616 62.2956 14.9484 62.2956 10.3105C62.2956 8.32487 61.916 7.7944 61.186 7.7944C60.1056 7.7798 59.6968 9.47341 59.6968 13.4008Z" fill="#FF5722"/>
<path d="M80.4289 19.8394C82.9985 19.8394 83.9329 18.6714 83.9329 17.8928C83.894 17.5394 83.8355 17.1884 83.7577 16.8416C83.7577 16.6372 83.8453 16.4036 84.1081 16.4036C84.3709 16.4036 84.5461 16.6664 84.5461 17.1044C84.5461 21.1632 82.9693 23.9956 77.538 23.9956C72.6714 23.9956 68.924 22.4772 68.924 15.4692C68.924 9.54641 71.3574 7.1958 77.684 7.1958C82.9693 7.1958 84.7213 9.14247 84.7213 12.3009C84.7213 14.5202 83.6993 16.6226 81.1296 16.6226C78.56 16.6226 77.4796 15.2502 77.4796 13.4105C77.4796 11.2838 78.7936 10.1985 79.8448 9.51721C80.3996 9.17167 80.75 8.82127 80.75 8.50007C80.75 8.17887 80.4288 7.88687 79.3484 7.88687C77.538 7.88687 75.64 8.67527 75.64 14.2136C75.64 18.1166 77.4212 19.8394 80.4289 19.8394Z" fill="#FF5722"/>
<path d="M85.7432 15.5469C85.7432 13.3569 85.714 11.3421 85.6264 9.64854C85.568 8.4562 85.4804 8.2226 84.984 8.2226C84.7212 8.2226 84.5752 8.2226 84.4584 8.2226C84.1956 8.2226 84.1664 8.08147 84.1664 7.93547C84.1664 7.78947 84.1956 7.61427 84.4584 7.61427C85.4318 7.61427 86.444 7.70187 87.6412 7.70187C88.8385 7.70187 89.8313 7.52667 91.0479 7.52667C91.7779 7.52667 91.8947 8.01333 91.8947 8.57787C91.8947 10.8214 91.4859 12.6902 91.4859 15.0554C91.4859 15.6102 91.6611 15.8146 91.8947 15.8146C92.1283 15.8146 92.2451 15.6686 92.3035 14.5882C92.4203 9.6242 93.5883 7.32227 95.8367 7.32227C97.3551 7.32227 98.4647 8.37347 98.4647 11.9359C98.4647 14.8802 97.9391 17.3622 96.0314 17.3622C94.805 17.3622 94.3086 16.4278 93.9582 15.5518C93.7538 15.0262 93.5786 14.5785 93.199 14.5785C92.8194 14.5785 92.4836 15.3133 92.4836 18.7006C92.4836 22.4382 92.834 22.9638 95.2284 22.9638C95.608 22.9638 96.1336 22.847 96.3964 22.847C96.6592 22.847 96.8831 22.9638 96.8831 23.1974C96.8764 23.2544 96.8586 23.3096 96.8304 23.3597C96.8023 23.4097 96.7645 23.4537 96.7192 23.489C96.6739 23.5244 96.622 23.5503 96.5666 23.5654C96.5112 23.5805 96.4533 23.5844 96.3964 23.577C95.1116 23.577 90.79 23.4894 88.5416 23.4894C87.14 23.4894 85.8552 23.5186 84.6872 23.5478C84.6444 23.5499 84.6017 23.543 84.5618 23.5276C84.5219 23.5122 84.4857 23.4886 84.4554 23.4583C84.4252 23.4281 84.4016 23.3918 84.3862 23.3519C84.3708 23.312 84.3639 23.2693 84.366 23.2266C84.366 23.1414 84.3998 23.0597 84.4601 22.9994C84.5203 22.9392 84.602 22.9054 84.6872 22.9054C84.7456 22.9054 85.0668 22.9638 85.1252 22.9638C85.534 22.9638 85.6118 22.0294 85.6118 21.241C85.714 19.3138 85.7432 17.3574 85.7432 15.5469Z" fill="#FF5722"/>
<path d="M106.709 23.9858C102.358 23.9858 98.4355 22.2046 98.4355 15.9558C98.4355 9.50261 101.998 7.1958 106.874 7.1958C112.539 7.1958 114.233 9.73134 114.233 12.9141C114.233 14.7246 113.386 15.9802 109.269 15.9802C106.835 15.9802 105.677 16.2722 105.677 17.411C105.677 18.3843 106.728 18.9878 108.977 18.9878C111.459 18.9878 113.912 18.1994 113.912 16.0678C113.906 16.0306 113.908 15.9926 113.919 15.9565C113.93 15.9204 113.948 15.8872 113.973 15.8592C113.999 15.8312 114.03 15.8092 114.064 15.7948C114.099 15.7804 114.137 15.7739 114.174 15.7758C114.32 15.7758 114.408 15.8634 114.408 16.0678C114.418 21.7082 112.374 23.9858 106.709 23.9858ZM105.482 13.4008C105.466 13.9855 105.486 14.5706 105.541 15.1528C105.56 15.275 105.625 15.3852 105.723 15.4612C105.82 15.5371 105.943 15.573 106.066 15.5616C106.709 15.5616 108.081 14.9484 108.081 10.3105C108.081 8.32487 107.702 7.7944 106.972 7.7944C105.891 7.7798 105.482 9.47341 105.482 13.4008Z" fill="#FF5722"/>
<path d="M119.995 23.84C116.783 23.84 115.352 22.8667 115.352 18.9344C115.352 17.6204 115.44 15.3136 115.44 13.3572C115.44 12.0724 115.469 10.7632 115.381 9.23996C115.352 8.54403 115.06 8.22283 114.651 8.22283C114.456 8.22525 114.26 8.24315 114.067 8.27636C113.863 8.27636 113.804 8.10603 113.804 7.96003C113.804 7.81402 113.863 7.66802 114.067 7.63882C116.841 7.58042 120.141 6.00362 121.718 4.23215C121.864 4.08615 121.922 4.02775 122.068 4.02775C122.107 4.02564 122.146 4.03175 122.182 4.04568C122.219 4.05961 122.252 4.08105 122.279 4.10859C122.307 4.13614 122.328 4.16918 122.342 4.20556C122.356 4.24194 122.362 4.28085 122.36 4.31975C122.36 4.64095 122.272 5.34175 122.272 6.83096C122.272 7.56096 122.594 7.64856 123.246 7.64856C123.45 7.64856 124.063 7.61936 124.443 7.61936C124.487 7.6138 124.531 7.61828 124.572 7.63246C124.614 7.64664 124.651 7.67013 124.682 7.70114C124.713 7.73215 124.737 7.76986 124.751 7.81136C124.765 7.85286 124.77 7.89706 124.764 7.94056C124.77 7.98544 124.766 8.03102 124.752 8.07413C124.738 8.11724 124.715 8.15685 124.685 8.1902C124.654 8.22355 124.617 8.24983 124.575 8.26724C124.533 8.28464 124.488 8.29273 124.443 8.29096C124.005 8.29096 123.392 8.22769 122.983 8.22769C122.37 8.22769 122.195 8.55376 122.195 9.07936C122.165 12.2865 122.165 15.5861 122.282 17.7469C122.37 19.0901 122.633 19.2945 123.041 19.2945C123.45 19.2945 123.655 18.7689 123.655 18.3212C123.655 17.6788 123.217 16.9196 123.217 16.248C123.217 15.9268 123.392 15.7613 123.625 15.7613C124.005 15.7613 124.209 16.1117 124.209 17.708C124.2 21.9712 123.265 23.84 119.995 23.84Z" fill="#FF5722"/>
<path d="M49.068 51.8476C49.0645 51.7981 49.0722 51.7485 49.0905 51.7024C49.1088 51.6563 49.1372 51.6149 49.1736 51.5812C49.2101 51.5476 49.2536 51.5226 49.301 51.508C49.3484 51.4935 49.3985 51.4898 49.4476 51.4972C50.0024 51.4972 50.7324 51.8184 51.4624 51.8184C52.1924 51.8184 52.4357 51.4972 52.4357 51.2052C52.4357 50.592 51.2093 50.4168 49.6325 50.4168C46.7125 50.4168 43.9969 51.6724 41.0477 51.6724C38.2445 51.6724 37.2517 50.0664 37.2517 47.2924C37.2517 44.4016 38.8869 42.9416 41.0769 42.9416C41.9821 42.9416 42.6537 42.9708 43.3837 42.9708C43.6465 42.9708 43.7925 42.8248 43.7925 42.6204C43.7925 42.416 43.6465 42.27 43.3545 42.27C39.5001 42.2116 38.0011 40.3233 38.0011 37.3644C38.0011 33.6024 40.3372 31.5584 45.0968 31.5584C47.462 31.5584 49.0388 32.0451 50.09 32.0451C50.4696 32.0451 50.6156 31.8991 50.6156 31.6606C50.6156 31.4221 50.4404 31.2859 49.9732 31.2567C47.8416 31.2275 46.5665 30.4391 46.5665 28.9207C46.5665 27.6067 47.7345 26.6431 50.0121 26.6431C52.6109 26.6431 54.2461 27.9279 54.2461 29.9427C54.2461 31.4611 53.3409 32.4831 51.7057 32.4831C50.8589 32.4831 50.2165 32.4247 50.0705 32.4247C50.0241 32.4185 49.9769 32.4222 49.9319 32.4354C49.887 32.4486 49.8453 32.471 49.8096 32.5012C49.7738 32.5315 49.7448 32.5689 49.7244 32.611C49.7039 32.6531 49.6925 32.6991 49.6909 32.7459C49.6909 32.9211 49.8077 33.0622 50.0997 33.1206C51.2787 33.3035 52.3495 33.9131 53.1085 34.8337C53.8676 35.7542 54.262 36.9215 54.2169 38.1138C54.2169 41.8222 51.9685 43.3406 46.1285 43.3406C41.3981 43.3406 40.6681 43.6618 40.6681 44.314C40.6681 44.7228 40.9017 45.0148 41.9237 45.0148C43.6465 45.0148 47.9097 43.9344 50.6253 43.9344C53.3409 43.9344 54.6257 45.1316 54.6257 47.8277C54.6257 51.0981 53.6037 52.3537 51.1217 52.3537C49.6228 52.3343 49.068 52.2029 49.068 51.8476ZM44.9508 36.8728C44.9508 39.8804 45.0092 41.7784 46.2064 41.7784C46.9948 41.7784 47.2868 41.0484 47.2868 38.3718C47.2868 33.471 47.024 32.1278 46.0896 32.1278C45.418 32.1473 44.9508 33.4613 44.9508 36.8728Z" fill="#FF5722"/>
<path d="M70.0969 37.0239C70.0969 39.1506 69.9801 41.5158 69.9801 42.275C69.9801 43.151 70.0677 43.6182 70.6225 43.6182C71.1773 43.6182 71.2941 43.1802 71.2941 42.6449C71.2941 42.1096 71.0702 40.9026 71.0702 40.377C71.0702 40.1142 71.187 39.9974 71.3622 39.9974C71.7418 39.9974 71.8489 40.4841 71.8489 42.4794C71.8489 46.7718 71.2941 48.1734 68.0529 48.1734C64.6949 48.1734 64.5781 46.071 64.5197 43.9686C64.4905 43.6474 64.3445 43.5306 64.1693 43.5306C63.9941 43.5306 63.8481 43.6474 63.8189 43.9686C63.7897 45.9153 62.4756 48.2318 58.7672 48.2318C55.672 48.2318 54.3288 46.5382 54.3288 44.1146C54.3288 40.961 56.986 40.1434 60.052 39.8806C63.3809 39.5886 63.9454 38.1286 63.9454 35.7634C63.9454 33.2571 62.5146 32.4979 60.091 32.4979C59.653 32.4979 59.4778 32.7023 59.4778 32.9067C59.4778 33.1111 59.653 33.2863 59.9644 33.3106C61.6288 33.515 62.242 34.7122 62.242 36.2014C62.242 38.5666 60.344 39.4426 58.3 39.4426C56.256 39.4426 54.7084 38.6542 54.7084 36.143C54.7084 33.6318 57.1028 31.7095 62.9818 31.7095C68.9824 31.7095 70.0969 33.8411 70.0969 37.0239ZM61.04 42.1144C61.04 43.1948 61.5948 43.516 62.208 43.516C63.2884 43.516 64.1547 42.3772 64.1547 40.7128C64.1547 39.8076 64.0087 39.5156 63.4539 39.5156C62.8021 39.5755 62.1953 39.8738 61.7498 40.3533C61.3044 40.8329 61.0516 41.46 61.04 42.1144V42.1144Z" fill="#FF5722"/>
<path d="M72.5302 39.8804C72.5302 37.6904 72.501 35.6756 72.4134 33.982C72.355 32.7897 72.2674 32.5561 71.771 32.5561C71.5082 32.5561 71.3622 32.5561 71.2454 32.5561C70.9826 32.5561 70.9534 32.415 70.9534 32.269C70.9534 32.123 70.9826 31.9478 71.2454 31.9478C72.2187 31.9478 73.231 32.0354 74.4282 32.0354C75.6254 32.0354 76.6182 31.8602 77.8349 31.8602C78.5649 31.8602 78.6817 32.3468 78.6817 32.9114C78.6817 35.1549 78.2729 37.0237 78.2729 39.3889C78.2729 39.9437 78.4481 40.1481 78.6817 40.1481C78.9153 40.1481 79.0321 40.0021 79.0905 38.9217C79.2073 33.9577 80.3753 31.6558 82.6237 31.6558C84.1421 31.6558 85.2517 32.707 85.2517 36.2694C85.2517 39.1894 84.7261 41.6957 82.8184 41.6957C81.592 41.6957 81.0956 40.7613 80.7452 39.8853C80.5407 39.3597 80.3656 38.912 79.9859 38.912C79.6063 38.912 79.3143 39.6128 79.3143 43C79.3143 46.7376 79.6648 47.2632 82.0592 47.2632C82.4388 47.2632 82.9644 47.1464 83.2272 47.1464C83.49 47.1464 83.7138 47.2632 83.7138 47.4968C83.7072 47.5538 83.6893 47.609 83.6612 47.6591C83.6331 47.7092 83.5952 47.7532 83.55 47.7885C83.5047 47.8238 83.4528 47.8498 83.3974 47.8649C83.342 47.88 83.2841 47.8839 83.2272 47.8764C81.9424 47.8764 77.6207 47.7888 75.3723 47.7888C73.9707 47.7888 72.6859 47.818 71.5179 47.8472C71.4752 47.8493 71.4325 47.8424 71.3926 47.827C71.3527 47.8116 71.3164 47.788 71.2862 47.7578C71.2559 47.7275 71.2323 47.6913 71.2169 47.6513C71.2015 47.6114 71.1946 47.5687 71.1967 47.526C71.1967 47.4408 71.2306 47.3591 71.2908 47.2989C71.351 47.2386 71.4327 47.2048 71.5179 47.2048C71.5763 47.2048 71.8975 47.2632 71.9559 47.2632C72.3647 47.2632 72.4426 46.3288 72.4426 45.5404C72.4864 43.6473 72.5302 41.6909 72.5302 39.8804Z" fill="#FF5722"/>
<path d="M99.438 47.7937C98.4647 47.7937 97.4914 47.8813 96.4888 47.8813C95.3792 47.8813 95.4084 47.4725 95.35 42.8589C95.35 42.5961 95.2624 42.5085 95.058 42.5085C94.9728 42.5085 94.8911 42.5423 94.8309 42.6026C94.7707 42.6628 94.7368 42.7445 94.7368 42.8297C94.182 46.3921 93.306 48.183 90.2108 48.183C86.3175 48.183 85.2176 45.847 85.2176 40.2406C85.2176 33.9383 87.612 31.7483 91.6124 31.7483C93.014 31.7483 93.4228 31.9819 94.0458 31.9819C94.3962 31.9819 94.4546 31.8067 94.4546 31.4271C94.4546 29.2371 94.2502 28.7699 93.6078 28.7699C93.3158 28.7699 92.9362 28.8867 92.7026 28.8867C92.6554 28.8912 92.6079 28.8852 92.5633 28.8692C92.5187 28.8532 92.4783 28.8275 92.4448 28.794C92.4113 28.7606 92.3856 28.7201 92.3696 28.6755C92.3536 28.6309 92.3476 28.5834 92.3522 28.5363C92.3522 28.3611 92.469 28.2151 92.7318 28.2151C95.2138 28.2151 99.769 27.6895 100.82 27.6895C101.346 27.6895 101.521 27.9231 101.521 28.5655C101.521 30.9988 101.404 34.8921 101.375 38.1382C101.375 40.9122 101.375 43.5986 101.433 45.6134C101.463 46.8398 101.842 47.2778 102.368 47.2778C102.407 47.2757 102.446 47.2818 102.482 47.2957C102.518 47.3097 102.551 47.3311 102.579 47.3587C102.606 47.3862 102.628 47.4192 102.642 47.4556C102.656 47.492 102.662 47.5309 102.66 47.5698C102.666 47.6108 102.662 47.6526 102.65 47.6922C102.638 47.7318 102.617 47.7682 102.589 47.7989C102.561 47.8296 102.527 47.8537 102.489 47.8696C102.45 47.8855 102.409 47.8929 102.368 47.891C101.92 47.8813 100.402 47.7937 99.438 47.7937ZM93.306 43.5013C94.2794 43.5013 94.5324 42.4793 94.5324 39.9973V34.6877C94.5324 33.1985 94.1236 32.5269 93.452 32.5269C92.5468 32.5269 92.1672 33.5003 92.1672 40.0557C92.1672 42.9465 92.576 43.5013 93.306 43.5013Z" fill="#FF5722"/>
<path d="M110.709 48.3193C106.358 48.3193 102.436 46.5381 102.436 40.2893C102.436 33.8361 105.998 31.5293 110.875 31.5293C116.54 31.5293 118.233 34.0648 118.233 37.2476C118.233 39.058 117.386 40.3136 113.269 40.3136C110.836 40.3136 109.678 40.6056 109.678 41.7444C109.678 42.7178 110.729 43.3213 112.977 43.3213C115.459 43.3213 117.912 42.5329 117.912 40.4012C117.906 40.3641 117.909 40.3261 117.919 40.29C117.93 40.2539 117.949 40.2207 117.974 40.1927C117.999 40.1647 118.03 40.1427 118.065 40.1283C118.1 40.1138 118.137 40.1073 118.175 40.1092C118.321 40.1092 118.408 40.1968 118.408 40.4012C118.418 46.0417 116.374 48.3193 110.709 48.3193ZM109.483 37.7343C109.467 38.319 109.486 38.9041 109.541 39.4863C109.561 39.6085 109.626 39.7187 109.723 39.7947C109.821 39.8706 109.944 39.9065 110.067 39.8951C110.709 39.8951 112.082 39.2819 112.082 34.644C112.082 32.6584 111.702 32.1279 110.972 32.1279C109.892 32.1133 109.483 33.8069 109.483 37.7343Z" fill="#FF5722"/>
<path d="M127.09 47.2971C127.178 47.2971 127.616 47.2679 127.733 47.2679C127.775 47.2625 127.818 47.2659 127.86 47.2779C127.901 47.2899 127.939 47.3102 127.972 47.3376C128.005 47.365 128.031 47.3989 128.051 47.4372C128.07 47.4754 128.081 47.5172 128.083 47.5599C128.084 47.6049 128.076 47.6496 128.058 47.6909C128.04 47.7323 128.014 47.7694 127.981 47.7998C127.948 47.8302 127.908 47.8532 127.866 47.8672C127.823 47.8813 127.778 47.886 127.733 47.8811C126.536 47.8519 124.638 47.8227 122.827 47.8227C121.25 47.8227 119.732 47.8811 118.506 47.8811C118.463 47.8832 118.42 47.8764 118.38 47.8609C118.34 47.8455 118.304 47.822 118.274 47.7917C118.244 47.7615 118.22 47.7252 118.205 47.6853C118.189 47.6454 118.182 47.6027 118.184 47.5599C118.186 47.5194 118.195 47.4796 118.212 47.4428C118.229 47.406 118.253 47.373 118.283 47.3458C118.313 47.3185 118.348 47.2976 118.386 47.2842C118.425 47.2708 118.465 47.2653 118.506 47.2679L118.992 47.2971C119.372 47.2971 119.43 46.6839 119.479 46.1583C119.508 43.6471 119.537 41.0483 119.537 38.6831C119.537 36.9311 119.537 35.2765 119.479 33.9576C119.421 32.7896 119.333 32.5803 118.837 32.5803C118.603 32.5803 118.457 32.6095 118.311 32.6095C118.077 32.6095 118.019 32.4684 118.019 32.2932C118.013 32.2497 118.018 32.2055 118.032 32.164C118.046 32.1225 118.07 32.0848 118.101 32.0538C118.132 32.0228 118.17 31.9993 118.211 31.9851C118.253 31.9709 118.297 31.9664 118.34 31.972C119.245 31.972 120.287 32.0304 121.406 32.0596C122.224 32.0596 123.158 31.972 124.063 31.972C125.348 31.972 125.64 32.3224 125.64 33.724C125.64 34.6292 125.436 35.6463 125.436 36.9895C125.438 37.0361 125.45 37.0817 125.471 37.1234C125.491 37.1652 125.52 37.2023 125.556 37.2324C125.592 37.2625 125.633 37.285 125.678 37.2985C125.722 37.3119 125.769 37.3161 125.815 37.3107C125.86 37.3134 125.904 37.3071 125.946 37.2922C125.988 37.2774 126.026 37.2543 126.059 37.2243C126.091 37.1944 126.118 37.1581 126.136 37.1178C126.154 37.0775 126.165 37.0338 126.166 36.9895C126.283 33.0475 127.684 31.4756 131.071 31.4756C134.634 31.4756 135.773 33.2276 135.773 37.1063C135.773 40.5519 135.539 43.6763 135.539 45.6035C135.539 46.7715 135.685 47.2971 136.327 47.2971C136.444 47.2971 136.59 47.2679 136.678 47.2679C136.719 47.2661 136.761 47.2734 136.799 47.2893C136.837 47.3053 136.871 47.3294 136.899 47.3601C136.927 47.3907 136.948 47.4271 136.96 47.4667C136.972 47.5063 136.976 47.5481 136.97 47.5891C136.972 47.628 136.966 47.6669 136.952 47.7033C136.938 47.7397 136.917 47.7727 136.889 47.8003C136.861 47.8278 136.828 47.8493 136.792 47.8632C136.756 47.8771 136.717 47.8832 136.678 47.8811C135.597 47.8519 134.371 47.7643 133.028 47.7643C132.055 47.7643 131.013 47.8811 129.933 47.8811C128.852 47.8811 128.531 47.1511 128.531 44.3187C128.531 41.7491 128.765 38.6831 128.765 36.8143C128.765 36.0892 128.589 35.3835 127.889 35.3835C127.188 35.3835 126.691 35.8264 126.487 38.3035C126.37 39.7051 126.341 41.0483 126.341 42.3915C126.341 43.7347 126.37 44.9027 126.429 46.1875C126.448 46.9808 126.711 47.2971 127.09 47.2971Z" fill="#FF5722"/>
</svg>
