<svg width="40" height="40" viewBox="0 0 40 40" fill="none" xmlns="http://www.w3.org/2000/svg">
<path d="M19.9908 40C16.8472 40.001 13.7477 39.2598 10.9441 37.8366C8.14055 36.4134 5.712 34.3484 3.8558 31.8093C1.9996 29.2703 0.768096 26.3288 0.261355 23.2239C-0.245386 20.119 -0.0130731 16.9383 0.93942 13.9401C1.89191 10.942 3.53772 8.211 5.74311 5.96906C7.94851 3.72712 10.6513 2.03747 13.6318 1.0374C16.6124 0.03733 19.7867 -0.244955 22.8967 0.213481C26.0068 0.671917 28.9649 1.85814 31.5308 3.67578C31.7597 3.88196 31.9049 4.16515 31.9388 4.4715C31.9727 4.77784 31.893 5.08598 31.7147 5.33731C31.5364 5.58864 31.2721 5.76564 30.9719 5.83465C30.6717 5.90365 30.3567 5.85986 30.0867 5.71159C26.8842 3.45363 23.0169 2.3373 19.1047 2.5416C15.1926 2.74589 11.4624 4.25898 8.51211 6.83824C5.56185 9.41751 3.56251 12.9135 2.83466 16.7657C2.10681 20.6179 2.69262 24.6032 4.49816 28.0824C6.30371 31.5616 9.22438 34.3333 12.7919 35.953C16.3594 37.5727 20.367 37.9466 24.1722 37.0147C27.9773 36.0829 31.3596 33.8992 33.7767 30.8139C36.1937 27.7286 37.5055 23.9205 37.5017 20C37.5015 18.3109 37.2584 16.6307 36.7796 15.011C36.7232 14.7062 36.7813 14.3914 36.9428 14.1269C37.1042 13.8624 37.3577 13.667 37.6544 13.5781C37.9511 13.4893 38.2701 13.5133 38.5502 13.6456C38.8303 13.7778 39.0516 14.009 39.1717 14.2947C40.0587 17.2816 40.2362 20.4345 39.6902 23.5022C39.1442 26.5699 37.8897 29.4676 36.0267 31.9642C34.1637 34.4609 31.7438 36.4876 28.9597 37.8827C26.1756 39.2778 23.1044 40.0028 19.9908 40Z" fill="#292929"/>
<path d="M14.9813 13.7542C14.9813 14.0028 14.9076 14.2457 14.7697 14.4524C14.6317 14.6591 14.4356 14.8201 14.2061 14.9153C13.9767 15.0104 13.7242 15.0353 13.4806 14.9868C13.237 14.9383 13.0133 14.8186 12.8377 14.6428C12.6621 14.4671 12.5425 14.2432 12.494 13.9994C12.4456 13.7556 12.4704 13.503 12.5655 13.2733C12.6605 13.0437 12.8215 12.8474 13.028 12.7093C13.2345 12.5713 13.4772 12.4976 13.7256 12.4976C14.0586 12.4976 14.378 12.63 14.6135 12.8656C14.849 13.1013 14.9813 13.4209 14.9813 13.7542Z" fill="#292929"/>
<path d="M27.5127 13.7542C27.5127 14.0028 27.439 14.2457 27.301 14.4524C27.163 14.6591 26.9669 14.8201 26.7375 14.9153C26.508 15.0104 26.2556 15.0353 26.012 14.9868C25.7684 14.9383 25.5446 14.8186 25.369 14.6428C25.1934 14.4671 25.0738 14.2432 25.0254 13.9994C24.9769 13.7556 25.0018 13.503 25.0968 13.2733C25.1919 13.0437 25.3528 12.8474 25.5593 12.7093C25.7658 12.5713 26.0086 12.4976 26.2569 12.4976C26.59 12.4976 26.9094 12.63 27.1449 12.8656C27.3804 13.1013 27.5127 13.4209 27.5127 13.7542Z" fill="#292929"/>
<path d="M19.9211 31.9197C16.7573 31.9197 13.723 30.6619 11.4859 28.423C9.24871 26.1841 7.99188 23.1476 7.99188 19.9813C7.99188 19.648 8.12418 19.3284 8.35967 19.0927C8.59516 18.857 8.91456 18.7246 9.24759 18.7246C9.58062 18.7246 9.90002 18.857 10.1355 19.0927C10.371 19.3284 10.5033 19.648 10.5033 19.9813C10.5033 22.481 11.4955 24.8783 13.2617 26.6458C15.0279 28.4134 17.4233 29.4064 19.9211 29.4064C22.4189 29.4064 24.8143 28.4134 26.5805 26.6458C28.3467 24.8783 29.3389 22.481 29.3389 19.9813C29.3389 19.648 29.4712 19.3284 29.7067 19.0927C29.9422 18.857 30.2616 18.7246 30.5946 18.7246C30.9277 18.7246 31.2471 18.857 31.4825 19.0927C31.718 19.3284 31.8503 19.648 31.8503 19.9813C31.8503 23.1476 30.5935 26.1841 28.3563 28.423C26.1192 30.6619 23.0849 31.9197 19.9211 31.9197V31.9197Z" fill="#292929"/>
</svg>
