<svg width="24" height="24" viewBox="0 0 24 24" fill="none" xmlns="http://www.w3.org/2000/svg">
<path d="M4.25892 16.5934C3.14073 14.7084 2.74913 12.48 3.15765 10.3267C3.56618 8.17341 4.74672 6.24331 6.47761 4.89884C8.2085 3.55437 10.3707 2.88801 12.5581 3.0249C14.7455 3.16178 16.8077 4.09249 18.3575 5.64225C19.9073 7.19202 20.838 9.25423 20.9749 11.4417C21.1118 13.6291 20.4454 15.7912 19.101 17.5221C17.7565 19.253 15.8264 20.4336 13.6731 20.8421C11.5198 21.2507 9.29146 20.8591 7.40646 19.7409L7.40648 19.7408L4.29805 20.6289C4.16944 20.6657 4.03335 20.6673 3.90387 20.6338C3.7744 20.6002 3.65625 20.5327 3.56167 20.4381C3.4671 20.3435 3.39953 20.2254 3.36598 20.0959C3.33243 19.9664 3.33412 19.8303 3.37086 19.7017L4.25898 16.5933L4.25892 16.5934Z" stroke="#292929" stroke-width="1.5" stroke-linecap="round" stroke-linejoin="round"/>
<path d="M12 12.9375C12.5178 12.9375 12.9375 12.5178 12.9375 12C12.9375 11.4822 12.5178 11.0625 12 11.0625C11.4822 11.0625 11.0625 11.4822 11.0625 12C11.0625 12.5178 11.4822 12.9375 12 12.9375Z" fill="#292929"/>
<path d="M7.49994 12.9375C8.01771 12.9375 8.43744 12.5178 8.43744 12C8.43744 11.4822 8.01771 11.0625 7.49994 11.0625C6.98217 11.0625 6.56244 11.4822 6.56244 12C6.56244 12.5178 6.98217 12.9375 7.49994 12.9375Z" fill="#292929"/>
<path d="M16.5 12.9375C17.0178 12.9375 17.4375 12.5178 17.4375 12C17.4375 11.4822 17.0178 11.0625 16.5 11.0625C15.9822 11.0625 15.5625 11.4822 15.5625 12C15.5625 12.5178 15.9822 12.9375 16.5 12.9375Z" fill="#292929"/>
</svg>
