<svg width="380" height="380" viewBox="0 0 380 380" fill="none" xmlns="http://www.w3.org/2000/svg">
<g clip-path="url(#clip0_685:5)">
<path d="M191.951 22.0776L193.339 0L202.991 0.6069C207.659 0.9004 209.757 3.2808 209.557 6.4663C209.51 7.67499 209.037 8.82822 208.222 9.72161C207.406 10.615 206.301 11.1909 205.102 11.3472C206.418 11.5991 207.599 12.3172 208.429 13.3697C209.258 14.4222 209.68 15.7386 209.618 17.0772C209.356 21.2403 205.923 22.9561 201.949 22.7061L191.951 22.0776ZM195.287 19.3745L201.69 19.7773C204.402 19.9478 206.161 18.665 206.3 16.4573C206.44 14.2173 204.85 12.8196 202.138 12.6487L195.735 12.2464L195.287 19.3745ZM195.914 9.4077L202.064 9.7944C204.493 9.9473 206.117 8.7832 206.244 6.7644C206.373 4.7144 204.889 3.6394 202.461 3.4866L196.311 3.1L195.914 9.4077Z" fill="#E3FC03"/>
<path d="M213.628 18.4136L215.458 8.30713L218.381 8.83643L216.675 18.2588C216.174 21.0264 217.215 22.3711 219.143 22.7202C222.999 23.4185 223.946 19.2539 224.38 16.8602L225.596 10.1429L228.519 10.6722L225.727 26.0965L222.865 25.5784L223.344 22.9354C222.687 23.7852 221.808 24.4361 220.804 24.8156C219.799 25.1951 218.709 25.2883 217.655 25.0848C214.142 24.4482 213.009 21.8345 213.628 18.4136Z" fill="#E3FC03"/>
<path d="M243.791 14.7779L246.799 15.6393L235.951 31.1383C234.162 33.7159 232.768 34.3355 230.125 33.5792L226.996 32.6832L227.726 30.131L230.764 31.001C231.201 31.2006 231.698 31.2286 232.154 31.0792C232.611 30.9299 232.995 30.6141 233.23 30.1948L234.607 28.2554L232.215 11.4644L235.405 12.3774L236.355 20.7686C236.688 23.3945 236.77 24.1416 236.835 24.9486C237.343 24.2069 237.691 23.6815 238.973 21.8461L243.791 14.7779Z" fill="#E3FC03"/>
<path d="M252.452 34.3599L261.745 14.2793L270.523 18.3413C274.769 20.3062 275.863 23.2852 274.523 26.1826C274.041 27.2927 273.183 28.1965 272.099 28.7341C271.015 29.2717 269.776 29.4082 268.601 29.1196C269.737 29.8312 270.578 30.9287 270.97 32.2105C271.362 33.4924 271.279 34.8727 270.735 36.0981C268.982 39.8848 265.161 40.2407 261.545 38.5681L252.452 34.3599ZM256.543 33.0479L262.366 35.7432C264.833 36.8848 266.938 36.3262 267.867 34.3179C268.81 32.2812 267.833 30.4014 265.366 29.2598L259.543 26.5649L256.543 33.0479ZM260.737 23.9834L266.331 26.5718C268.54 27.5938 270.477 27.0972 271.326 25.2612C272.19 23.3965 271.195 21.8564 268.986 20.8345L263.393 18.2461L260.737 23.9834Z" fill="#E3FC03"/>
<path d="M273.988 38.8076L279.359 30.0547L281.891 31.6079L276.884 39.7679C275.413 42.1648 275.896 43.7957 277.565 44.8201C280.905 46.8694 283.297 43.3328 284.569 41.2591L288.139 35.4417L290.67 36.9949L282.474 50.3533L279.996 48.8333L281.4 46.5439C280.481 47.0977 279.425 47.3854 278.352 47.3748C277.279 47.3642 276.229 47.0558 275.321 46.4839C272.277 44.6162 272.171 41.77 273.988 38.8076Z" fill="#E3FC03"/>
<path d="M303.414 46.3427L305.906 48.2343L290.184 58.7592C287.582 60.5145 286.059 60.5878 283.868 58.9257L281.275 56.9584L282.88 54.8432L285.397 56.7538C285.733 57.0983 286.185 57.304 286.665 57.3301C287.145 57.3561 287.618 57.2006 287.988 56.8944L289.974 55.5849L293.821 39.0649L296.465 41.0707L294.315 49.2377C293.674 51.807 293.481 52.5326 293.248 53.309C293.991 52.8012 294.505 52.4374 296.365 51.1899L303.414 46.3427Z" fill="#E3FC03"/>
<path d="M304.422 67.7422L320.315 52.3613L327.039 59.3091C330.291 62.6691 330.239 65.8418 327.946 68.0605C327.098 68.9225 325.972 69.4564 324.767 69.5676C323.563 69.6788 322.358 69.3601 321.366 68.668C322.169 69.7405 322.559 71.0667 322.463 72.4032C322.367 73.7397 321.793 74.9969 320.845 75.9438C317.848 78.8438 314.155 77.8008 311.388 74.9395L304.422 67.7422ZM308.708 67.9912L313.169 72.6006C315.058 74.5527 317.222 74.7896 318.811 73.2515C320.423 71.6915 320.189 69.5869 318.3 67.6348L313.839 63.0254L308.708 67.9912ZM315.883 61.0479L320.167 65.4756C321.859 67.2236 323.845 67.457 325.298 66.0508C326.773 64.623 326.4 62.8291 324.708 61.0808L320.424 56.653L315.883 61.0479Z" fill="#E3FC03"/>
<path d="M322.892 79.6221L331.05 73.3833L332.855 75.7433L325.249 81.5592C323.015 83.2677 322.879 84.963 324.069 86.5192C326.449 89.6315 329.953 87.1906 331.885 85.7126L337.307 81.5666L339.112 83.926L326.662 93.447L324.895 91.1379L327.029 89.5061C325.972 89.6926 324.884 89.5818 323.886 89.186C322.888 88.7903 322.019 88.1252 321.377 87.2648C319.208 84.4282 320.131 81.7334 322.892 79.6221Z" fill="#E3FC03"/>
<path d="M347.661 97.248L349.308 99.908L330.855 104.082C327.798 104.785 326.349 104.307 324.902 101.969L323.188 99.2015L325.446 97.8045L327.109 100.492C327.299 100.933 327.647 101.288 328.086 101.485C328.524 101.682 329.021 101.706 329.477 101.554L331.8 101.045L341.324 87.01L343.07 89.8312L338.13 96.6804C336.61 98.8478 336.168 99.4558 335.673 100.096C336.548 99.8893 337.159 99.7346 339.342 99.238L347.661 97.248Z" fill="#E3FC03"/>
<path d="M340.899 117.57L361.279 108.961L365.043 117.87C366.863 122.178 365.669 125.119 362.729 126.361C361.626 126.859 360.383 126.95 359.219 126.619C358.056 126.288 357.047 125.555 356.372 124.552C356.734 125.842 356.619 127.22 356.047 128.432C355.475 129.644 354.485 130.609 353.259 131.151C349.415 132.774 346.348 130.467 344.799 126.799L340.899 117.57ZM344.808 119.35L347.305 125.26C348.362 127.763 350.295 128.765 352.333 127.905C354.4 127.031 354.942 124.985 353.885 122.48L351.388 116.57L344.808 119.35ZM354.008 115.464L356.406 121.141C357.353 123.383 359.12 124.317 360.983 123.531C362.876 122.731 363.176 120.923 362.229 118.681L359.831 113.004L354.008 115.464Z" fill="#E3FC03"/>
<path d="M353.847 135.329L363.71 132.467L364.537 135.32L355.342 137.988C352.641 138.771 351.9 140.303 352.446 142.184C353.537 145.948 357.688 144.941 360.024 144.263L366.58 142.361L367.407 145.214L352.355 149.581L351.544 146.789L354.124 146.04C353.071 145.832 352.097 145.334 351.31 144.604C350.523 143.874 349.954 142.939 349.667 141.905C348.672 138.475 350.508 136.297 353.847 135.329Z" fill="#E3FC03"/>
<path d="M370.532 160.698L371.102 163.773L352.396 160.972C349.292 160.519 348.116 159.547 347.616 156.845L347.023 153.645L349.632 153.161L350.207 156.268C350.223 156.748 350.42 157.205 350.757 157.547C351.094 157.89 351.547 158.093 352.027 158.116L354.377 158.485L368.34 148.862L368.945 152.124L361.858 156.713C359.656 158.182 359.024 158.588 358.33 159.005C359.221 159.13 359.845 159.207 362.059 159.536L370.532 160.698Z" fill="#E3FC03"/>
<path d="M356.864 177.198L378.974 176.536L379.264 186.201C379.404 190.876 377.228 193.187 374.038 193.281C372.83 193.347 371.638 192.983 370.673 192.254C369.708 191.525 369.032 190.478 368.765 189.298C368.637 190.632 368.031 191.875 367.06 192.798C366.089 193.722 364.817 194.264 363.478 194.325C359.309 194.45 357.283 191.191 357.164 187.211L356.864 177.198ZM359.864 180.271L360.057 186.682C360.138 189.398 361.578 191.032 363.789 190.965C366.031 190.898 367.276 189.185 367.195 186.468L367.003 180.057L359.864 180.271ZM369.846 179.972L370.03 186.131C370.102 188.563 371.413 190.072 373.435 190.012C375.487 189.95 376.42 188.373 376.348 185.942L376.163 179.783L369.846 179.972Z" fill="#E3FC03"/>
<path d="M362.522 198.434L372.759 199.307L372.506 202.267L362.964 201.453C360.16 201.214 358.919 202.377 358.753 204.33C358.42 208.235 362.655 208.786 365.08 208.993L371.883 209.573L371.631 212.534L356.01 211.202L356.257 208.305L358.934 208.532C358.026 207.959 357.295 207.144 356.823 206.18C356.351 205.216 356.156 204.139 356.259 203.07C356.563 199.512 359.059 198.138 362.522 198.434Z" fill="#E3FC03"/>
<path d="M368.984 228.126L368.412 231.201L351.956 221.87C349.221 220.332 348.472 219.004 348.975 216.301L349.57 213.101L352.18 213.587L351.602 216.694C351.444 217.148 351.463 217.645 351.655 218.085C351.847 218.526 352.198 218.878 352.638 219.073L354.698 220.26L371.187 216.289L370.581 219.552L362.317 221.292C359.734 221.872 358.999 222.024 358.201 222.165C358.988 222.601 359.543 222.897 361.492 223.999L368.984 228.126Z" fill="#E3FC03"/>
<path d="M350.31 238.602L371.17 245.95L367.957 255.068C366.403 259.479 363.543 260.85 360.532 259.789C359.382 259.415 358.402 258.646 357.765 257.618C357.127 256.59 356.875 255.37 357.051 254.174C356.45 255.372 355.438 256.312 354.199 256.824C352.961 257.335 351.579 257.383 350.309 256.958C346.374 255.572 345.659 251.803 346.981 248.048L350.31 238.602ZM352.001 242.547L349.87 248.597C348.968 251.159 349.723 253.2 351.809 253.936C353.924 254.681 355.702 253.532 356.606 250.969L358.737 244.92L352.001 242.547ZM361.418 245.864L359.371 251.676C358.563 253.97 359.241 255.851 361.148 256.522C363.085 257.204 364.523 256.069 365.331 253.775L367.378 247.964L361.418 245.864Z" fill="#E3FC03"/>
<path d="M347.917 260.456L357.136 264.98L355.828 267.646L347.233 263.429C344.709 262.19 343.131 262.824 342.268 264.583C340.542 268.101 344.288 270.149 346.473 271.221L352.6 274.227L351.292 276.893L337.222 269.99L338.502 267.381L340.913 268.564C340.275 267.7 339.89 266.677 339.799 265.607C339.709 264.538 339.917 263.464 340.401 262.506C341.974 259.3 344.797 258.926 347.917 260.456Z" fill="#E3FC03"/>
<path d="M343.194 290.436L341.546 293.096L329.592 278.436C327.601 276.012 327.384 274.502 328.832 272.166L330.547 269.399L332.802 270.798L331.137 273.483C330.826 273.85 330.664 274.319 330.683 274.799C330.703 275.28 330.902 275.735 331.241 276.075L332.731 277.929L349.537 280.205L347.789 283.024L339.458 281.652C336.84 281.257 336.099 281.132 335.305 280.974C335.88 281.665 336.291 282.143 337.707 283.876L343.194 290.436Z" fill="#E3FC03"/>
<path d="M321.968 293.469L338.77 307.856L332.481 315.201C329.439 318.753 326.275 318.998 323.851 316.922C322.913 316.158 322.276 315.087 322.053 313.898C321.83 312.709 322.035 311.48 322.631 310.428C321.638 311.327 320.354 311.839 319.014 311.869C317.674 311.898 316.369 311.444 315.337 310.589C312.169 307.875 312.863 304.102 315.452 301.077L321.968 293.469ZM322.121 297.76L317.948 302.632C316.181 304.696 316.147 306.873 317.828 308.312C319.532 309.771 321.606 309.342 323.373 307.278L327.545 302.406L322.121 297.76ZM329.706 304.255L325.697 308.935C324.115 310.783 324.068 312.781 325.604 314.097C327.164 315.433 328.915 314.894 330.498 313.046L334.506 308.365L329.706 304.255Z" fill="#E3FC03"/>
<path d="M311.875 312.958L318.853 320.496L316.673 322.514L310.167 315.486C308.257 313.422 306.555 313.446 305.118 314.777C302.242 317.439 305.001 320.699 306.654 322.485L311.292 327.495L309.111 329.513L298.463 318.009L300.596 316.034L302.421 318.005C302.136 316.97 302.144 315.876 302.445 314.845C302.745 313.814 303.326 312.887 304.123 312.167C306.743 309.741 309.514 310.407 311.875 312.958Z" fill="#E3FC03"/>
<path d="M296.649 339.26L294.155 341.149L288.273 323.17C287.285 320.192 287.626 318.705 289.818 317.046L292.413 315.081L294.015 317.197L291.496 319.105C291.074 319.334 290.753 319.714 290.599 320.169C290.444 320.624 290.466 321.121 290.66 321.561L291.385 323.826L306.248 331.993L303.603 333.996L296.321 329.719C294.021 328.408 293.375 328.026 292.69 327.593C292.98 328.444 293.19 329.038 293.889 331.164L296.649 339.26Z" fill="#E3FC03"/>
<path d="M275.792 334.44L286.291 353.912L277.779 358.502C273.662 360.722 270.622 359.812 269.107 357.002C268.507 355.951 268.299 354.722 268.518 353.533C268.738 352.343 269.371 351.27 270.307 350.503C269.056 350.985 267.674 351.001 266.413 350.546C265.152 350.091 264.097 349.197 263.442 348.028C261.462 344.356 263.469 341.085 266.974 339.195L275.792 334.44ZM274.39 338.498L268.744 341.543C266.351 342.833 265.536 344.853 266.587 346.8C267.652 348.774 269.741 349.12 272.133 347.83L277.78 344.785L274.39 338.498ZM279.13 347.288L273.705 350.214C271.564 351.368 270.801 353.216 271.761 354.996C272.735 356.805 274.564 356.931 276.705 355.776L282.13 352.851L279.13 347.288Z" fill="#E3FC03"/>
<path d="M259.34 349.005L263.123 358.551L260.363 359.646L256.835 350.746C255.799 348.131 254.204 347.54 252.384 348.261C248.741 349.705 250.137 353.741 251.033 356.002L253.548 362.346L250.787 363.441L245.012 348.872L247.715 347.802L248.704 350.298C248.813 349.23 249.215 348.213 249.867 347.36C250.519 346.507 251.395 345.853 252.398 345.469C255.717 344.152 258.059 345.773 259.34 349.005Z" fill="#E3FC03"/>
<path d="M235.627 368.039L232.617 368.896L233.639 350.003C233.797 346.868 234.653 345.605 237.298 344.852L240.428 343.959L241.156 346.512L238.116 347.379C237.639 347.44 237.203 347.679 236.894 348.047C236.585 348.415 236.426 348.886 236.448 349.366L236.303 351.741L247.207 364.736L244.015 365.646L238.774 359.023C237.104 356.969 236.639 356.378 236.158 355.726C236.119 356.625 236.101 357.255 235.983 359.49L235.627 368.039Z" fill="#E3FC03"/>
<path d="M217.921 355.98L220.645 377.93L211.05 379.12C206.409 379.696 203.907 377.746 203.514 374.579C203.336 373.383 203.587 372.162 204.223 371.133C204.858 370.104 205.838 369.334 206.987 368.958C205.647 368.954 204.354 368.467 203.344 367.587C202.334 366.706 201.675 365.491 201.489 364.164C200.975 360.025 204.03 357.704 207.981 357.213L217.921 355.98ZM215.144 359.254L208.778 360.044C206.082 360.378 204.591 361.964 204.863 364.16C205.14 366.386 206.961 367.465 209.658 367.13L216.023 366.341L215.144 359.254ZM216.373 369.164L210.259 369.921C207.844 370.221 206.463 371.666 206.712 373.673C206.965 375.711 208.622 376.493 211.037 376.193L217.151 375.434L216.373 369.164Z" fill="#E3FC03"/>
<path d="M197.37 363.528L197.539 373.799L194.569 373.848L194.411 364.273C194.365 361.46 193.082 360.343 191.123 360.375C187.204 360.44 187.085 364.709 187.125 367.143L187.237 373.968L184.266 374.017L184.009 358.343L186.916 358.295L186.961 360.982C187.439 360.02 188.175 359.211 189.087 358.643C189.998 358.076 191.049 357.772 192.123 357.767C195.694 357.708 197.313 360.053 197.37 363.528Z" fill="#E3FC03"/>
<path d="M168.374 372.794L165.258 372.514L173.003 355.25C174.277 352.382 175.53 351.511 178.269 351.758L181.511 352.05L181.273 354.695L178.124 354.411C177.658 354.296 177.165 354.362 176.744 354.594C176.323 354.827 176.005 355.209 175.854 355.665L174.865 357.829L180.368 373.876L177.062 373.578L174.553 365.513C173.733 362.995 173.512 362.278 173.296 361.496C172.936 362.321 172.694 362.902 171.78 364.946L168.374 372.794Z" fill="#E3FC03"/>
<path d="M156.18 355.191L150.839 376.66L141.455 374.325C136.915 373.196 135.279 370.477 136.05 367.38C136.313 366.199 136.986 365.149 137.949 364.417C138.912 363.685 140.103 363.317 141.311 363.38C140.062 362.895 139.029 361.976 138.403 360.791C137.776 359.606 137.598 358.235 137.9 356.93C138.907 352.881 142.593 351.811 146.457 352.772L156.18 355.191ZM150 366.941L144.019 365.454C141.658 364.866 139.85 365.72 139.362 367.682C138.866 369.676 140.132 371.001 142.494 371.588L148.475 373.075L150 366.941ZM152.411 357.25L146.185 355.701C143.547 355.045 141.586 355.99 141.052 358.137C140.511 360.314 141.823 361.977 144.461 362.633L150.687 364.181L152.411 357.25Z" fill="#E3FC03"/>
<path d="M134.191 354.881L130.561 364.486L127.783 363.436L131.167 354.48C132.162 351.85 131.381 350.34 129.549 349.647C125.884 348.262 124.199 352.184 123.339 354.461L120.927 360.845L118.148 359.795L123.688 345.135L126.408 346.163L125.458 348.675C126.258 347.958 127.24 347.478 128.296 347.286C129.352 347.095 130.441 347.201 131.441 347.592C134.78 348.855 135.42 351.629 134.191 354.881Z" fill="#E3FC03"/>
<path d="M103.877 352.996L101.075 351.606L114.549 338.326C116.775 336.115 118.259 335.757 120.721 336.98L123.636 338.427L122.456 340.805L119.626 339.4C119.232 339.124 118.749 339.006 118.272 339.07C117.796 339.134 117.361 339.375 117.054 339.745L115.349 341.404L114.662 358.351L111.69 356.875L112.274 348.45C112.422 345.808 112.477 345.058 112.559 344.252C111.925 344.89 111.488 345.344 109.895 346.917L103.877 352.996Z" fill="#E3FC03"/>
<path d="M98.8945 332.165L86.1416 350.238L78.2416 344.663C74.4203 341.967 73.8816 338.84 75.7211 336.232C76.3942 335.227 77.4013 334.493 78.564 334.16C79.7267 333.826 80.9699 333.915 82.0732 334.411C81.0843 333.507 80.4547 332.276 80.3 330.945C80.1453 329.614 80.4758 328.271 81.2309 327.164C83.6357 323.756 87.4579 324.095 90.7109 326.39L98.8945 332.165ZM88.88 340.877L83.8453 337.324C81.8575 335.922 79.8634 336.061 78.6974 337.714C77.5133 339.393 78.2135 341.085 80.2013 342.489L85.2359 346.041L88.88 340.877ZM94.6368 332.719L89.3961 329.02C87.1754 327.453 85.0055 327.624 83.7301 329.43C82.4366 331.264 83.0582 333.288 85.2784 334.855L90.5196 338.553L94.6368 332.719Z" fill="#E3FC03"/>
<path d="M78.5269 323.923L71.6733 331.57L69.4614 329.588L75.8514 322.459C77.7283 320.364 77.5462 318.674 76.0872 317.366C73.1697 314.752 70.1819 317.802 68.5579 319.613L64.0032 324.695L61.7913 322.714L72.2513 311.043L74.4158 312.983L72.6238 314.983C73.6277 314.603 74.7175 314.509 75.7716 314.712C76.8257 314.915 77.8027 315.406 78.5938 316.132C81.2515 318.516 80.8467 321.335 78.5269 323.923Z" fill="#E3FC03"/>
<path d="M50.9253 311.236L48.812 308.928L66.1626 301.39C69.0356 300.128 70.5479 300.33 72.4053 302.356L74.604 304.756L72.6465 306.549L70.5122 304.219C70.2439 303.82 69.8356 303.537 69.3681 303.425C68.9006 303.314 68.4083 303.382 67.9888 303.616L65.8008 304.55L59.0586 320.112L56.8169 317.666L60.395 310.017C61.4844 307.604 61.805 306.925 62.1719 306.202C61.3511 306.569 60.7803 306.835 58.728 307.73L50.9253 311.236Z" fill="#E3FC03"/>
<path d="M53.7632 290.006L35.37 302.29L30.0009 294.249C27.4037 290.36 28.0233 287.249 30.6771 285.477C31.6662 284.781 32.8697 284.457 34.0744 284.564C35.2791 284.67 36.4071 285.2 37.2587 286.059C36.6608 284.859 36.5155 283.485 36.8493 282.187C37.1832 280.89 37.9738 279.756 39.0761 278.994C42.5443 276.678 45.9896 278.366 48.2006 281.677L53.7632 290.006ZM41.2881 294.538L37.8662 289.414C36.5151 287.392 34.6045 286.806 32.9229 287.929C31.2148 289.069 31.2598 290.9 32.6113 292.924L36.0332 298.048L41.2881 294.538ZM49.5913 288.993L46.0288 283.659C44.52 281.399 42.4336 280.779 40.5947 282.007C38.729 283.253 38.5815 285.365 40.0908 287.625L43.6528 292.959L49.5913 288.993Z" fill="#E3FC03"/>
<path d="M37.7099 274.989L28.5599 279.66L27.2088 277.014L35.7388 272.659C38.2446 271.38 38.6831 269.736 37.792 267.99C36.0098 264.5 32.1226 266.271 29.9551 267.378L23.874 270.482L22.5229 267.837L36.4863 260.707L37.8091 263.297L35.416 264.518C36.49 264.525 37.5409 264.83 38.4517 265.399C39.3626 265.968 40.0975 266.779 40.5747 267.741C42.1991 270.922 40.8061 273.408 37.7099 274.989Z" fill="#E3FC03"/>
<path d="M16.5301 253.199L15.3914 250.285L34.2947 249.514C37.4295 249.374 38.7679 250.106 39.7684 252.667L40.9534 255.698L38.4812 256.665L37.3312 253.722C37.2248 253.253 36.946 252.841 36.5502 252.568C36.1543 252.296 35.6704 252.182 35.1944 252.249L32.817 252.33L20.9142 264.414L19.7062 261.323L25.8028 255.48C27.6896 253.622 28.2335 253.103 28.8365 252.562C27.9381 252.608 27.3097 252.65 25.0729 252.744L16.5301 253.199Z" fill="#E3FC03"/>
<path d="M26.856 234.43L5.25881 239.204L3.17141 229.763C2.16211 225.196 3.86871 222.521 6.98491 221.833C8.15911 221.543 9.39796 221.678 10.482 222.214C11.566 222.751 12.4251 223.653 12.9072 224.763C12.7851 223.428 13.1483 222.094 13.9301 221.006C14.7119 219.918 15.86 219.148 17.1636 218.838C21.2363 217.938 23.8345 220.762 24.6936 224.648L26.856 234.43ZM13.586 234.127L12.256 228.111C11.7306 225.735 10.1622 224.496 8.18761 224.933C6.18221 225.376 5.56021 227.099 6.08511 229.475L7.41511 235.491L13.586 234.127ZM23.336 231.972L21.9513 225.708C21.3649 223.055 19.6456 221.72 17.486 222.198C15.296 222.682 14.3922 224.597 14.9786 227.25L16.3634 233.513L23.336 231.972Z" fill="#E3FC03"/>
<path d="M17.3472 214.642L7.13133 215.679L6.83133 212.724L16.3558 211.758C19.1531 211.474 20.157 210.102 19.9598 208.152C19.5643 204.255 15.3016 204.497 12.8811 204.742L6.09163 205.432L5.79163 202.477L21.3824 200.895L21.6759 203.786L19.004 204.058C20.002 204.453 20.8705 205.118 21.5129 205.978C22.1552 206.838 22.5462 207.86 22.6422 208.929C23.0029 212.48 20.8047 214.291 17.3472 214.642Z" fill="#E3FC03"/>
<path d="M5.43509 186.85L5.38379 183.721L23.3711 189.59C26.3584 190.552 27.3569 191.705 27.4023 194.454L27.4556 197.709L24.8013 197.753L24.7495 194.593C24.8132 194.117 24.6955 193.634 24.4196 193.24C24.1437 192.846 23.7299 192.571 23.2603 192.468L21.0039 191.715L5.63279 198.89L5.57859 195.572L13.3311 192.22C15.7471 191.137 16.4375 190.841 17.1911 190.544C16.3332 190.275 15.7297 190.094 13.6003 189.403L5.43509 186.85Z" fill="#E3FC03"/>
<path d="M21.875 172.89L0 169.6L1.4385 160.038C2.1338 155.413 4.6865 153.528 7.8428 154.002C9.04287 154.153 10.1509 154.724 10.9705 155.613C11.7901 156.503 12.2685 157.653 12.3208 158.862C12.6855 157.572 13.5029 156.457 14.6231 155.722C15.7433 154.987 17.0912 154.68 18.4194 154.858C22.5444 155.478 23.957 159.046 23.3652 162.984L21.875 172.89ZM9.595 167.847L10.5115 161.753C10.8733 159.347 9.8538 157.628 7.8538 157.328C5.8226 157.022 4.6238 158.408 4.2615 160.814L3.345 166.908L9.595 167.847ZM19.47 169.332L20.4241 162.989C20.8284 160.301 19.7024 158.439 17.5149 158.11C15.2962 157.776 13.7659 159.24 13.3616 161.927L12.4075 168.271L19.47 169.332Z" fill="#E3FC03"/>
<path d="M20.1016 150.988L10.1929 148.285L10.9746 145.419L20.2124 147.939C22.9258 148.679 24.356 147.759 24.8716 145.869C25.9028 142.089 21.8369 140.783 19.4893 140.143L12.9043 138.347L13.6855 135.481L28.8071 139.606L28.0425 142.411L25.4507 141.704C26.2402 142.431 26.8122 143.364 27.1029 144.397C27.3936 145.431 27.3916 146.525 27.0972 147.557C26.1572 151.002 23.4551 151.902 20.1016 150.988Z" fill="#E3FC03"/>
<path d="M19.1152 120.604L20.2363 117.683L34.7314 129.845C37.1431 131.854 37.6392 133.297 36.6538 135.864L35.4878 138.904L33.0088 137.953L34.1411 135.003C34.3785 134.584 34.4499 134.092 34.3411 133.624C34.2323 133.155 33.9511 132.745 33.5537 132.475L31.7412 130.933L14.8018 131.848L15.9907 128.75L24.4346 128.536C27.0806 128.434 27.8315 128.418 28.6416 128.423C27.9468 127.852 27.4541 127.46 25.7373 126.023L19.1152 120.604Z" fill="#E3FC03"/>
<path d="M39.3809 113.69L20.1865 102.688L24.9965 94.2975C27.3227 90.2394 30.3852 89.4083 33.1547 90.9957C34.2186 91.5715 35.0443 92.5054 35.4855 93.6317C35.9267 94.7581 35.955 96.0043 35.5653 97.1495C36.3729 96.0799 37.5392 95.3375 38.8501 95.0585C40.1609 94.7795 41.5284 94.9826 42.7016 95.6305C46.3216 97.7047 46.3437 101.543 44.3632 104.998L39.3809 113.69ZM29.7651 104.536L32.83 99.1886C34.04 97.0772 33.7138 95.1051 31.9589 94.0992C30.1767 93.0772 28.5561 93.9337 27.3461 96.045L24.2816 101.392L29.7651 104.536ZM38.43 109.502L41.62 103.936C42.9716 101.577 42.598 99.4327 40.6786 98.3326C38.7318 97.2164 36.7748 98.0255 35.4232 100.383L32.2332 105.95L38.43 109.502Z" fill="#E3FC03"/>
<path d="M45.67 92.6411L37.4132 86.5317L39.18 84.1436L46.8777 89.8394C49.139 91.5127 50.8055 91.1729 51.971 89.5981C54.302 86.4481 50.9852 83.7573 49.0291 82.3096L43.5415 78.249L45.3086 75.8613L57.91 85.1855L56.18 87.5225L54.02 85.9248C54.4922 86.8892 54.6873 87.9658 54.5837 89.0345C54.4801 90.1033 54.0818 91.1223 53.4331 91.978C51.31 94.8486 48.4648 94.709 45.67 92.6411Z" fill="#E3FC03"/>
<path d="M55.7339 63.9565L57.8339 61.6365L66.9639 78.2117C68.4883 80.9554 68.4302 82.4798 66.585 84.5189L64.4 86.9326L62.4313 85.1514L64.5519 82.8076C64.9242 82.5032 65.1684 82.0698 65.2359 81.5937C65.3034 81.1175 65.1892 80.6334 64.9161 80.2376L63.7822 78.146L47.6528 72.886L49.88 70.4253L57.8326 73.2734C60.337 74.1334 61.0436 74.3887 61.797 74.687C61.3551 73.9033 61.037 73.3599 59.9547 71.3994L55.7339 63.9565Z" fill="#E3FC03"/>
<path d="M77.1348 64.8067L63.1848 47.6422L70.6882 41.544C74.3171 38.5948 77.4733 38.921 79.486 41.3976C80.2713 42.3173 80.7057 43.4853 80.7124 44.6947C80.719 45.904 80.2974 47.0767 79.5222 48.005C80.6601 47.2975 82.0151 47.0241 83.3383 47.2351C84.6615 47.446 85.8643 48.1271 86.7258 49.1534C89.3558 52.3902 87.9973 55.9786 84.9074 58.4894L77.1348 64.8067ZM71.4561 52.8092L76.2378 48.9234C78.126 47.3888 78.5303 45.4317 77.2549 43.8624C75.9595 42.2682 74.1401 42.4845 72.252 44.0191L67.4707 47.9054L71.4561 52.8092ZM77.7534 60.5577L82.731 56.5123C84.8398 54.7989 85.2627 52.6637 83.8677 50.9474C82.4531 49.2062 80.3364 49.2574 78.2277 50.9708L73.25 55.0162L77.7534 60.5577Z" fill="#E3FC03"/>
<path d="M90.5693 47.4253L85.0593 38.7568L87.5666 37.1636L92.7033 45.2451C94.2121 47.6191 95.8893 47.9009 97.5427 46.8501C100.85 44.748 98.7219 41.0454 97.4162 38.9917L93.7546 33.2305L96.2619 31.6367L104.67 44.8662L102.216 46.4262L100.776 44.1591C100.87 45.2288 100.665 46.3035 100.184 47.2637C99.7035 48.2238 98.9656 49.0316 98.0528 49.5971C95.0391 51.5122 92.4341 50.3594 90.5693 47.4253Z" fill="#E3FC03"/>
<path d="M110.252 24.2905L113.045 22.8813L115.602 41.626C116.037 44.7339 115.434 46.1353 112.98 47.3735L110.074 48.84L108.878 46.47L111.699 45.0462C112.156 44.8963 112.539 44.58 112.773 44.1602C113.008 43.7404 113.075 43.248 112.963 42.7806L112.657 40.4212L99.5024 29.7148L102.465 28.2197L108.859 33.7363C110.887 35.439 111.454 35.9316 112.049 36.4805C111.919 35.5905 111.818 34.9692 111.513 32.7515L110.252 24.2905Z" fill="#E3FC03"/>
<path d="M129.92 32.7876L123.116 11.7354L132.319 8.76072C136.771 7.32232 139.596 8.76762 140.578 11.8052C140.978 12.947 140.96 14.1934 140.529 15.3238C140.098 16.4541 139.281 17.3954 138.222 17.981C139.539 17.7326 140.902 17.9676 142.06 18.6428C143.218 19.318 144.093 20.3881 144.526 21.6567C145.808 25.6267 143.243 28.4819 139.454 29.7067L129.92 32.7876ZM128.962 19.5449L134.827 17.6499C137.143 16.9014 138.227 15.2222 137.605 13.2974C136.973 11.3423 135.198 10.8862 132.883 11.6348L127.018 13.53L128.962 19.5449ZM132.033 29.0488L138.139 27.0757C140.725 26.2397 141.892 24.4014 141.211 22.2957C140.521 20.1604 138.528 19.4427 135.942 20.2786L129.837 22.2518L132.033 29.0488Z" fill="#E3FC03"/>
<path d="M148.744 21.44L146.75 11.3628L149.665 10.7861L151.523 20.1807C152.069 22.9407 153.53 23.8107 155.453 23.4307C159.297 22.6699 158.655 18.4473 158.183 16.0596L156.858 9.36233L159.773 8.78613L162.815 24.165L159.963 24.729L159.441 22.0937C159.141 23.1248 158.561 24.0523 157.765 24.7729C156.969 25.4936 155.988 25.9791 154.933 26.1753C151.429 26.8691 149.418 24.85 148.744 21.44Z" fill="#E3FC03"/>
<path d="M175.489 7.02287L178.603 6.72217L174.189 25.1143C173.468 28.1675 172.398 29.2549 169.663 29.519L166.423 29.8315L166.169 27.1899L169.314 26.8862C169.793 26.9119 170.265 26.7562 170.636 26.45C171.006 26.1438 171.247 25.7095 171.312 25.2334L171.883 22.9248L163.508 8.17997L166.81 7.86107L170.768 15.3191C172.039 17.6409 172.389 18.305 172.745 19.0325C172.946 18.1561 173.077 17.5403 173.597 15.3636L175.489 7.02287Z" fill="#E3FC03"/>
</g>
<defs>
<clipPath id="clip0_685:5">
<rect width="379.27" height="379.221" fill="white"/>
</clipPath>
</defs>
</svg>
